M48
;Layer_Color=9474304
;FILE_FORMAT=2:5
INCH,LZ
;TYPE=PLATED
T1F00S00C0.01181
T2F00S00C0.01200
T3F00S00C0.04200
T4F00S00C0.12598
%
T01
X0170079Y0125984
Y0130709
X0167717Y0128347
X0175197Y0125984
X0179921
Y0130709
X0175197
X0177559Y0128347
X0185039Y0128937
X0188976Y0126969
X0192913Y0128937
X019685Y0126969
X0200787Y0128937
X0204724Y0126969
X0208661Y0128937
X0212598Y0126969
X0216535Y0128937
X0226772Y0125984
X0229921
X025315Y0121766
Y0112486
Y0103206
Y0093926
Y0084646
X0262467
Y0093926
Y0103206
Y0112486
Y0121766
Y0131046
Y0140326
X0271785
Y0131046
Y0121766
Y0112486
Y0103206
Y0093926
Y0084646
X0281102
Y0093926
Y0103206
Y0112486
Y0121766
Y0131046
Y0140326
X029042
Y0131046
Y0121766
Y0112486
Y0103206
Y0093926
Y0084646
X0299738
Y0093926
Y0103206
Y0112486
Y0121766
Y0131046
Y0140326
X0309055
Y0131046
Y0121766
Y0112486
Y0103206
Y0093926
Y0084646
X025315Y0131046
Y0140326
X0198819Y014252
X0170472Y0146063
X0165354Y0130709
Y0125984
X0150984Y017185
X014626
Y0176575
X0150984
X0148622Y0174213
X014626Y0183661
Y0188386
X0150984
Y0183661
X0148622Y0186024
X014626Y0195669
Y0200394
X0150984
Y0195669
X0148622Y0198031
X0147244Y0212106
X0144095
X0140157Y0211319
Y0207776
X0134646Y0216929
X0130709Y0216437
X0126772Y0216929
X0122835Y0216437
X0118898Y0216929
X0114961Y0216437
X0111024Y0216929
X0107087Y0216437
X010315Y0216929
X0098032Y0218504
X0094882Y0214961
X0091732Y0214567
X0082284Y0220866
X0081299Y0226772
X0086024
Y0231496
X0081299
X0083661Y0229134
X0086024Y0236811
Y0241535
X0081299
Y0236811
X0083661Y0239173
X0087795Y025
Y025928
Y026856
Y027784
Y028712
Y02964
X0097113
Y028712
Y027784
Y026856
Y025928
Y025
X010643
Y025928
Y026856
Y027784
Y028712
Y02964
X0115748
Y028712
Y027784
Y026856
Y025928
Y025
X0125066
Y025928
Y026856
Y027784
Y028712
Y02964
X0134383
Y028712
Y027784
Y026856
Y025928
Y025
X0135039Y0241732
X0131496Y0242618
X0128543Y0239075
X0120079Y0234941
X0116142Y0228642
X0123622Y0211024
Y0207874
X0120912Y0204527
X0124016Y0200787
Y0198031
Y0195276
X0132677Y0194095
X0115354Y0192126
X0115748Y0199213
X0109843Y0204724
X0101181Y0206299
X0104724Y0197441
X0111417Y0184646
X0112598Y0180315
X0109449Y0176575
X0105118
X0107283Y0174213
X0105118Y017185
X0109449
X0122835
X0127165
X0125Y0174213
X0127165Y0176575
X0122835
X0119685Y0183858
X0095669Y0180315
X009252Y017874
X0091732Y0171653
X0086024Y017185
Y0176575
X0081299
Y017185
X0083661Y0174213
X0086024Y0183661
Y0188386
X0081299
Y0183661
X0083661Y0186024
X0081299Y0199606
Y0204331
X0086024
Y0199606
X0083661Y0201969
X0095276Y0233858
X0143701Y0240846
X0143701Y025928
Y026856
Y027784
Y028712
Y02964
X017126Y0293026
Y0283746
Y0274466
Y0265186
Y0255906
X0180577
X0178543Y0258366
X0180577Y0265186
X0178937Y0267913
X0180577Y0274466
Y0283746
Y0293026
Y0302306
X0189895
Y0293026
Y0283746
Y0274466
Y0265186
Y0255906
X0199213
Y0265186
Y0274466
Y0283746
Y0293026
Y0302306
X020853
Y0293026
Y0283746
Y0274466
Y0265186
Y0255906
X0217848
X0216535Y0249213
X0213484Y0248819
X022559Y0251181
X0226378Y0256693
X0232283Y0258268
X0227165Y0265186
Y0274466
Y0283746
Y0293026
Y0302306
X0217848
Y0293026
Y0283746
Y0274466
Y0265186
X021706Y0232283
Y0223003
Y0213723
Y0204443
Y0195163
Y0185883
Y0176603
Y0167323
X0215846Y015935
X0216795Y015555
X0212992Y0153937
X0226378Y0154724
X0246457Y0155118
X0254724Y0154331
X025315Y0149606
X0262467
X0271785
X0281102
X029042
X0299738
X0309055
X0308268Y0168504
X0309842Y0173228
Y0182508
Y0191788
Y0201069
Y0210349
Y0219629
Y0228909
Y0238189
X0300525
Y0228909
Y0219629
Y0210349
Y0201069
Y0191788
Y0182508
Y0173228
X0291207
Y0182508
Y0191788
Y0201069
Y0210349
Y0219629
Y0228909
Y0238189
X028189
Y0228909
Y0219629
Y0210349
Y0201069
Y0191788
Y0182508
Y0173228
X0272572
Y0182508
Y0191788
Y0201069
Y0210349
Y0219629
Y0228909
Y0238189
X0266339Y0238976
X0263255Y0238189
X0256299Y0238189
X0253937Y0228909
Y0219629
Y0210349
Y0201069
Y0191788
Y0182508
Y0173228
X0263255
Y0182508
Y0191788
Y0201069
Y0210349
Y0219629
Y0228909
X0268209Y0246949
X0253937Y0250787
X0253543Y0279528
X0250394
X0263779Y0276575
X0267717Y0278543
X0271654Y0276575
X027559Y0278543
X0279528Y0276575
X0283465Y0278543
X0287402Y0276575
X0291339Y0278543
X0295276Y0276575
X0300394Y027441
Y0279134
X0305118
Y027441
X0302756Y0276772
X0310236Y0279134
Y027441
X0314961
Y0279134
X0312598Y0276772
X0309842Y0259449
X0281496Y0262992
X0277559Y0256693
X0226378Y0232283
Y0223003
Y0213723
Y0204443
Y0195163
Y0185883
Y0176603
X0207743
Y0167323
X0198425
Y0176603
Y0185883
Y0195163
Y0204443
Y0213723
X0200492Y0220571
X0198425Y0223003
X0200492Y0229823
X0198425Y0232283
X0207743
Y0223003
Y0213723
Y0204443
Y0195163
Y0185883
X0189108
Y0176603
Y0167323
X017979
Y0176603
Y0185883
Y0195163
Y0204443
Y0213723
Y0223003
Y0232283
X0170472
X0172047Y0237008
X0170472Y0223003
Y0213723
Y0204443
Y0195163
Y0185883
Y0176603
Y0167323
X0189108Y0195163
Y0204443
Y0213723
Y0223003
Y0232283
X0179921Y0249213
X0177264Y0248819
X017126Y0302306
X0202756Y0148819
X0199213Y0311586
Y0320866
X020853
Y0311586
X0217848
Y0320866
X0227165
Y0311586
X0189895
Y0320866
X0180577
X017254Y0320822
X017126Y0311586
X0180577
X0196457Y0329134
X0201181
Y0333858
X0196457
X0198819Y0331496
X0197638Y035
X0194882
X0192126
X0200787
X0218228Y0353937
X0223228
Y0358937
X0228228
X0228228Y0353937
X0228346Y0348819
X022126Y0346457
Y0343307
X0218228Y0358937
X0218898Y0367323
X0221595Y0365866
X0214961Y0366535
X0211811
X0208661
X0210236Y0362598
X0219291Y0375984
X0224409Y0381496
X0220472Y0386221
X0201181Y0385827
X0199606Y0399213
X0194882
X0204331
X0184193Y0399331
X0174409Y0393701
Y0390945
X017145Y038752
X0175591Y0379921
X0168504Y0377165
Y0372441
Y0364961
Y0360236
Y0352756
Y0348031
X0168504Y0338583
X0171653
X0177953Y035
X0180709Y0351969
X0179527Y0364961
X0233405Y0366063
X0233405Y0377677
X0163779Y0377165
Y0372441
X0166142Y0374803
X0163779Y0364961
Y0360236
X0166142Y0362598
X0163779Y0352756
Y0348031
X0166142Y0350394
X0144488Y0347863
Y0357143
Y0366423
Y0375703
Y0384983
Y0394263
Y0403543
X0135171
Y0394263
Y0384983
Y0375703
Y0366423
Y0357143
Y0347863
Y0338583
X0125853
Y0347863
Y0357143
Y0366423
Y0375703
Y0384983
Y0394263
Y0403543
X0116535
Y0394263
Y0384983
Y0375703
Y0366423
Y0357143
Y0347863
Y0338583
X0107218
Y0347863
Y0357143
Y0366423
Y0375703
Y0384983
Y0394263
Y0403543
X00979
Y0394263
Y0384983
Y0375703
Y0366423
Y0357143
Y0347863
Y0338583
X0088583
Y0347863
Y0357143
Y0366423
Y0375703
Y0384983
Y0394263
Y0403543
X008937Y0319685
X0087795Y0314961
Y030568
X0097113
Y0314961
X010643
Y030568
X0115748
Y0314961
X0125066
Y030568
X0134383
Y0314961
X0143701
Y030568
X0142913Y0333858
X0144488Y0338583
X0151181Y0333071
T02
X0187343Y0369803
X0192067
X0196791
Y0374528
Y0379252
X0192067
X0187343
Y0374528
X0192067
T03
X0213228Y0356437
X0233228Y0360437
Y0352437
T04
X0374016Y0066929
X0019685
X0374016Y042126
X0019685
M30
