G04*
G04 #@! TF.GenerationSoftware,Altium Limited,Altium Designer,20.1.11 (218)*
G04*
G04 Layer_Color=128*
%FSLAX25Y25*%
%MOIN*%
G70*
G04*
G04 #@! TF.SameCoordinates,BC695F09-BB28-4D9F-8763-E19565E056B6*
G04*
G04*
G04 #@! TF.FilePolarity,Positive*
G04*
G01*
G75*
%ADD11C,0.01968*%
D11*
X413279Y49462D02*
Y29783D01*
X423119D01*
X426399Y33063D01*
Y36343D01*
X423119Y39623D01*
X413279D01*
X423119D01*
X426399Y42903D01*
Y46182D01*
X423119Y49462D01*
X413279D01*
X436238Y29783D02*
X442798D01*
X446077Y33063D01*
Y39623D01*
X442798Y42903D01*
X436238D01*
X432958Y39623D01*
Y33063D01*
X436238Y29783D01*
X455917Y46182D02*
Y42903D01*
X452637D01*
X459196D01*
X455917D01*
Y33063D01*
X459196Y29783D01*
X472316Y46182D02*
Y42903D01*
X469036D01*
X475595D01*
X472316D01*
Y33063D01*
X475595Y29783D01*
X488715D02*
X495274D01*
X498554Y33063D01*
Y39623D01*
X495274Y42903D01*
X488715D01*
X485435Y39623D01*
Y33063D01*
X488715Y29783D01*
X505113D02*
Y42903D01*
X508393D01*
X511673Y39623D01*
Y29783D01*
Y39623D01*
X514953Y42903D01*
X518232Y39623D01*
Y29783D01*
X544471D02*
Y49462D01*
X554310D01*
X557590Y46182D01*
Y39623D01*
X554310Y36343D01*
X544471D01*
X567429Y42903D02*
X573989D01*
X577269Y39623D01*
Y29783D01*
X567429D01*
X564149Y33063D01*
X567429Y36343D01*
X577269D01*
X583828Y29783D02*
X593667D01*
X596947Y33063D01*
X593667Y36343D01*
X587108D01*
X583828Y39623D01*
X587108Y42903D01*
X596947D01*
X606786Y46182D02*
Y42903D01*
X603507D01*
X610066D01*
X606786D01*
Y33063D01*
X610066Y29783D01*
X629745D02*
X623185D01*
X619906Y33063D01*
Y39623D01*
X623185Y42903D01*
X629745D01*
X633025Y39623D01*
Y36343D01*
X619906D01*
M02*
