G04*
G04 #@! TF.GenerationSoftware,Altium Limited,Altium Designer,20.1.11 (218)*
G04*
G04 Layer_Color=8421504*
%FSLAX25Y25*%
%MOIN*%
G70*
G04*
G04 #@! TF.SameCoordinates,BC695F09-BB28-4D9F-8763-E19565E056B6*
G04*
G04*
G04 #@! TF.FilePolarity,Positive*
G04*
G01*
G75*
%ADD11C,0.01968*%
%ADD13R,0.03347X0.03543*%
%ADD14R,0.02165X0.01575*%
%ADD15R,0.08976X0.08976*%
%ADD16R,0.00787X0.03543*%
%ADD17R,0.03543X0.00787*%
%ADD18R,0.03150X0.03937*%
%ADD19R,0.03937X0.03150*%
%ADD20R,0.01575X0.02165*%
%ADD21R,0.03543X0.00984*%
%ADD22R,0.05512X0.05118*%
%ADD23R,0.05118X0.05512*%
%ADD24R,0.03543X0.03347*%
%ADD27R,0.03543X0.01575*%
%ADD28O,0.02756X0.00984*%
%ADD29O,0.00984X0.02756*%
%ADD30R,0.02756X0.02756*%
%ADD31R,0.03150X0.03150*%
%ADD32R,0.03937X0.02362*%
%ADD33R,0.03543X0.01378*%
%ADD34R,0.13780X0.13780*%
%ADD35O,0.03347X0.01181*%
%ADD36O,0.01181X0.03347*%
%ADD37R,0.04528X0.01968*%
%ADD38R,0.01968X0.04528*%
%ADD39P,0.04454X4X180.0*%
%ADD40R,0.03543X0.03937*%
%ADD41R,0.03150X0.04528*%
%ADD43R,0.08661X0.03937*%
%ADD44R,0.03937X0.03937*%
%ADD57R,0.04331X0.03150*%
%ADD58C,0.05200*%
D11*
X413279Y295608D02*
X426399D01*
X419839D01*
Y275930D01*
X436238D02*
X442798D01*
X446077Y279209D01*
Y285769D01*
X442798Y289049D01*
X436238D01*
X432958Y285769D01*
Y279209D01*
X436238Y275930D01*
X452637Y269370D02*
Y289049D01*
X462476D01*
X465756Y285769D01*
Y279209D01*
X462476Y275930D01*
X452637D01*
X491994D02*
Y295608D01*
X501834D01*
X505113Y292329D01*
Y285769D01*
X501834Y282489D01*
X491994D01*
X514953Y289049D02*
X521512D01*
X524792Y285769D01*
Y275930D01*
X514953D01*
X511673Y279209D01*
X514953Y282489D01*
X524792D01*
X531352Y275930D02*
X541191D01*
X544471Y279209D01*
X541191Y282489D01*
X534631D01*
X531352Y285769D01*
X534631Y289049D01*
X544471D01*
X554310Y292329D02*
Y289049D01*
X551030D01*
X557590D01*
X554310D01*
Y279209D01*
X557590Y275930D01*
X577269D02*
X570709D01*
X567429Y279209D01*
Y285769D01*
X570709Y289049D01*
X577269D01*
X580548Y285769D01*
Y282489D01*
X567429D01*
D13*
X134744Y190453D02*
D03*
X140847D02*
D03*
X104527Y174705D02*
D03*
X98425D02*
D03*
X93602D02*
D03*
X87500D02*
D03*
X140847Y181004D02*
D03*
X134744D02*
D03*
Y176279D02*
D03*
X140847D02*
D03*
X81201Y146850D02*
D03*
X87303D02*
D03*
X101083Y124803D02*
D03*
X94980D02*
D03*
X217421Y90158D02*
D03*
X223524D02*
D03*
Y94882D02*
D03*
X217421D02*
D03*
X176279Y88583D02*
D03*
X170177D02*
D03*
X187205D02*
D03*
X181102D02*
D03*
X262894Y220866D02*
D03*
X256791D02*
D03*
Y216142D02*
D03*
X262894D02*
D03*
X304035Y222441D02*
D03*
X310138D02*
D03*
X293110D02*
D03*
X299213D02*
D03*
X223524Y104331D02*
D03*
X217421D02*
D03*
X262894Y206693D02*
D03*
X256791D02*
D03*
D14*
X92126Y183937D02*
D03*
Y187716D02*
D03*
X96063Y179902D02*
D03*
Y183681D02*
D03*
X103150D02*
D03*
Y179902D02*
D03*
X99606D02*
D03*
Y183681D02*
D03*
X117323Y124488D02*
D03*
Y128268D02*
D03*
X182283Y93779D02*
D03*
Y97559D02*
D03*
X185827D02*
D03*
Y93779D02*
D03*
X178740D02*
D03*
Y97559D02*
D03*
X173622D02*
D03*
Y93779D02*
D03*
X298031Y217244D02*
D03*
Y213465D02*
D03*
X294488D02*
D03*
Y217244D02*
D03*
X301575D02*
D03*
Y213465D02*
D03*
X306693D02*
D03*
Y217244D02*
D03*
D15*
X118110Y184547D02*
D03*
X200787Y98425D02*
D03*
X279528Y212598D02*
D03*
D16*
X122835Y177165D02*
D03*
X121260D02*
D03*
X119685D02*
D03*
X118110D02*
D03*
X116535D02*
D03*
X114961D02*
D03*
X113386D02*
D03*
Y191929D02*
D03*
X114961D02*
D03*
X116535D02*
D03*
X118110D02*
D03*
X119685D02*
D03*
X121260D02*
D03*
X122835D02*
D03*
X205512Y105807D02*
D03*
X203937D02*
D03*
X202362D02*
D03*
X200787D02*
D03*
X199213D02*
D03*
X197638D02*
D03*
X196063D02*
D03*
Y91043D02*
D03*
X197638D02*
D03*
X199213D02*
D03*
X200787D02*
D03*
X202362D02*
D03*
X203937D02*
D03*
X205512D02*
D03*
X274803Y219980D02*
D03*
X276378D02*
D03*
X277953D02*
D03*
X279528D02*
D03*
X281102D02*
D03*
X282677D02*
D03*
X284252D02*
D03*
Y205217D02*
D03*
X282677D02*
D03*
X281102D02*
D03*
X279528D02*
D03*
X277953D02*
D03*
X276378D02*
D03*
X274803D02*
D03*
D17*
X110728Y179823D02*
D03*
Y181398D02*
D03*
Y182972D02*
D03*
Y184547D02*
D03*
Y186122D02*
D03*
Y187697D02*
D03*
Y189272D02*
D03*
X125492D02*
D03*
Y187697D02*
D03*
Y186122D02*
D03*
Y184547D02*
D03*
Y182972D02*
D03*
Y181398D02*
D03*
Y179823D02*
D03*
X208169Y93701D02*
D03*
Y95276D02*
D03*
Y96850D02*
D03*
Y98425D02*
D03*
Y100000D02*
D03*
Y101575D02*
D03*
Y103150D02*
D03*
X193405D02*
D03*
Y101575D02*
D03*
Y100000D02*
D03*
Y98425D02*
D03*
Y96850D02*
D03*
Y95276D02*
D03*
Y93701D02*
D03*
X286909Y217323D02*
D03*
Y215748D02*
D03*
Y214173D02*
D03*
Y212598D02*
D03*
Y211024D02*
D03*
Y209449D02*
D03*
Y207874D02*
D03*
X272146D02*
D03*
Y209449D02*
D03*
Y211024D02*
D03*
Y212598D02*
D03*
Y214173D02*
D03*
Y215748D02*
D03*
Y217323D02*
D03*
D18*
X140748Y185728D02*
D03*
X134843D02*
D03*
X95866Y190453D02*
D03*
X101772D02*
D03*
X184055Y298819D02*
D03*
X178150D02*
D03*
X184449Y104331D02*
D03*
X178543D02*
D03*
X223425Y99606D02*
D03*
X217520D02*
D03*
X262795Y211417D02*
D03*
X256890D02*
D03*
X302165Y206693D02*
D03*
X296260D02*
D03*
X172382Y336339D02*
D03*
X178287D02*
D03*
X214567Y333661D02*
D03*
X220472D02*
D03*
D19*
X145472Y190453D02*
D03*
Y184547D02*
D03*
X228150Y104331D02*
D03*
Y98425D02*
D03*
X252165Y212598D02*
D03*
Y206693D02*
D03*
X194882Y342323D02*
D03*
Y348228D02*
D03*
X199606D02*
D03*
Y342323D02*
D03*
X180709Y308071D02*
D03*
Y313976D02*
D03*
X204331Y348228D02*
D03*
Y342323D02*
D03*
X220866Y348228D02*
D03*
Y342323D02*
D03*
X207874Y323031D02*
D03*
Y328937D02*
D03*
D20*
X102677Y186516D02*
D03*
X98898D02*
D03*
X181575Y100394D02*
D03*
X185354D02*
D03*
X294961Y210630D02*
D03*
X298740D02*
D03*
D21*
X92716Y157677D02*
D03*
Y155709D02*
D03*
Y153740D02*
D03*
Y151772D02*
D03*
X97835Y157677D02*
D03*
Y155709D02*
D03*
Y153740D02*
D03*
Y151772D02*
D03*
D22*
X105118Y154724D02*
D03*
Y161811D02*
D03*
X82677Y169291D02*
D03*
Y162205D02*
D03*
X146063Y169193D02*
D03*
Y176279D02*
D03*
X251575Y227953D02*
D03*
Y220866D02*
D03*
X228740Y83071D02*
D03*
Y90158D02*
D03*
X179272Y349724D02*
D03*
Y342638D02*
D03*
D23*
X92126Y162992D02*
D03*
X99213D02*
D03*
X128347Y162205D02*
D03*
X135433D02*
D03*
X170079Y287008D02*
D03*
X177165D02*
D03*
X119291Y162205D02*
D03*
X112205D02*
D03*
X216929Y297638D02*
D03*
X209842D02*
D03*
D24*
X111811Y153839D02*
D03*
Y147736D02*
D03*
X108268Y139665D02*
D03*
Y133563D02*
D03*
X140945Y152657D02*
D03*
Y146555D02*
D03*
X136221Y152657D02*
D03*
Y146555D02*
D03*
X190157Y348327D02*
D03*
Y342224D02*
D03*
X185433Y348327D02*
D03*
Y342224D02*
D03*
D27*
X129134Y154626D02*
D03*
Y152067D02*
D03*
Y149508D02*
D03*
Y146949D02*
D03*
X118898D02*
D03*
Y149508D02*
D03*
Y152067D02*
D03*
Y154626D02*
D03*
D28*
X123327Y133661D02*
D03*
Y135630D02*
D03*
Y137598D02*
D03*
Y139567D02*
D03*
X116043D02*
D03*
Y137598D02*
D03*
Y135630D02*
D03*
Y133661D02*
D03*
D29*
X120669Y140256D02*
D03*
X118701D02*
D03*
Y132972D02*
D03*
X120669D02*
D03*
D30*
X119685Y136614D02*
D03*
D31*
X133661Y136811D02*
D03*
X127756D02*
D03*
D32*
X90945Y133858D02*
D03*
X100394Y137598D02*
D03*
Y130118D02*
D03*
D33*
X101673Y147835D02*
D03*
Y145276D02*
D03*
Y142717D02*
D03*
X92815D02*
D03*
Y145276D02*
D03*
Y147835D02*
D03*
D34*
X192067Y327283D02*
D03*
D35*
X182421Y334173D02*
D03*
Y332205D02*
D03*
Y330236D02*
D03*
Y328268D02*
D03*
Y326299D02*
D03*
Y324331D02*
D03*
Y322362D02*
D03*
Y320394D02*
D03*
X201713D02*
D03*
Y322362D02*
D03*
Y324331D02*
D03*
Y326299D02*
D03*
Y328268D02*
D03*
Y330236D02*
D03*
Y332205D02*
D03*
Y334173D02*
D03*
D36*
X185177Y317638D02*
D03*
X187146D02*
D03*
X189114D02*
D03*
X191083D02*
D03*
X193051D02*
D03*
X195020D02*
D03*
X196988D02*
D03*
X198957D02*
D03*
Y336929D02*
D03*
X196988D02*
D03*
X195020D02*
D03*
X193051D02*
D03*
X191083D02*
D03*
X189114D02*
D03*
X187146D02*
D03*
X185177D02*
D03*
D37*
X187598Y302756D02*
D03*
X205315D02*
D03*
D38*
X188583Y307677D02*
D03*
X191732D02*
D03*
X194882D02*
D03*
X198031D02*
D03*
X201181D02*
D03*
X204331D02*
D03*
Y297835D02*
D03*
X201181D02*
D03*
X198031D02*
D03*
X194882D02*
D03*
X191732D02*
D03*
X188583D02*
D03*
D39*
X85401Y355086D02*
D03*
X81921Y351606D02*
D03*
X91205D02*
D03*
X94685Y355086D02*
D03*
X103972D02*
D03*
X100492Y351606D02*
D03*
X109776D02*
D03*
X113256Y355086D02*
D03*
X122539D02*
D03*
X119059Y351606D02*
D03*
X128343D02*
D03*
X131823Y355086D02*
D03*
X141110D02*
D03*
X137630Y351606D02*
D03*
X146914D02*
D03*
X150393Y355086D02*
D03*
X146914Y203969D02*
D03*
X150393Y207449D02*
D03*
X141110D02*
D03*
X137630Y203969D02*
D03*
X128343D02*
D03*
X131823Y207449D02*
D03*
X122539D02*
D03*
X119059Y203969D02*
D03*
X109776D02*
D03*
X113256Y207449D02*
D03*
X103972D02*
D03*
X100492Y203969D02*
D03*
X91205D02*
D03*
X94685Y207449D02*
D03*
X85401D02*
D03*
X81921Y203969D02*
D03*
X168047Y272409D02*
D03*
X164567Y268929D02*
D03*
X173851D02*
D03*
X177331Y272409D02*
D03*
X186618D02*
D03*
X183138Y268929D02*
D03*
X192421D02*
D03*
X195901Y272409D02*
D03*
X205185D02*
D03*
X201705Y268929D02*
D03*
X210988D02*
D03*
X214468Y272409D02*
D03*
X223756D02*
D03*
X220276Y268929D02*
D03*
X229559D02*
D03*
X233039Y272409D02*
D03*
X85401Y345807D02*
D03*
X81921Y342327D02*
D03*
X91205D02*
D03*
X94685Y345807D02*
D03*
X103972D02*
D03*
X100492Y342327D02*
D03*
X109776D02*
D03*
X113256Y345807D02*
D03*
X122539D02*
D03*
X119059Y342327D02*
D03*
X128343D02*
D03*
X131823Y345807D02*
D03*
X141110D02*
D03*
X137630Y342327D02*
D03*
X146914D02*
D03*
X150393Y345807D02*
D03*
X146914Y213248D02*
D03*
X150393Y216728D02*
D03*
X141110D02*
D03*
X137630Y213248D02*
D03*
X128343D02*
D03*
X131823Y216728D02*
D03*
X122539D02*
D03*
X119059Y213248D02*
D03*
X109776D02*
D03*
X113256Y216728D02*
D03*
X103972D02*
D03*
X100492Y213248D02*
D03*
X91205D02*
D03*
X94685Y216728D02*
D03*
X85401D02*
D03*
X81921Y213248D02*
D03*
X168047Y263130D02*
D03*
X164567Y259650D02*
D03*
X173851D02*
D03*
X177331Y263130D02*
D03*
X186618D02*
D03*
X183138Y259650D02*
D03*
X192421D02*
D03*
X195901Y263130D02*
D03*
X205185D02*
D03*
X201705Y259650D02*
D03*
X210988D02*
D03*
X214468Y263130D02*
D03*
X223756D02*
D03*
X220276Y259650D02*
D03*
X229559D02*
D03*
X233039Y263130D02*
D03*
X85401Y336527D02*
D03*
X81921Y333048D02*
D03*
X91205D02*
D03*
X94685Y336527D02*
D03*
X103972D02*
D03*
X100492Y333048D02*
D03*
X109776D02*
D03*
X113256Y336527D02*
D03*
X122539D02*
D03*
X119059Y333048D02*
D03*
X128343D02*
D03*
X131823Y336527D02*
D03*
X141110D02*
D03*
X137630Y333048D02*
D03*
X146914D02*
D03*
X150393Y336527D02*
D03*
X146914Y222528D02*
D03*
X150393Y226008D02*
D03*
X141110D02*
D03*
X137630Y222528D02*
D03*
X128343D02*
D03*
X131823Y226008D02*
D03*
X122539D02*
D03*
X119059Y222528D02*
D03*
X109776D02*
D03*
X113256Y226008D02*
D03*
X103972D02*
D03*
X100492Y222528D02*
D03*
X91205D02*
D03*
X94685Y226008D02*
D03*
X85401D02*
D03*
X81921Y222528D02*
D03*
X168047Y253850D02*
D03*
X164567Y250370D02*
D03*
X173851D02*
D03*
X177331Y253850D02*
D03*
X186618D02*
D03*
X183138Y250370D02*
D03*
X192421D02*
D03*
X195901Y253850D02*
D03*
X205185D02*
D03*
X201705Y250370D02*
D03*
X210988D02*
D03*
X214468Y253850D02*
D03*
X223756D02*
D03*
X220276Y250370D02*
D03*
X229559D02*
D03*
X233039Y253850D02*
D03*
X85401Y327248D02*
D03*
X81921Y323768D02*
D03*
X91205D02*
D03*
X94685Y327248D02*
D03*
X103972D02*
D03*
X100492Y323768D02*
D03*
X109776D02*
D03*
X113256Y327248D02*
D03*
X122539D02*
D03*
X119059Y323768D02*
D03*
X128343D02*
D03*
X131823Y327248D02*
D03*
X141110D02*
D03*
X137630Y323768D02*
D03*
X146914D02*
D03*
X150393Y327248D02*
D03*
X146914Y231807D02*
D03*
X150393Y235287D02*
D03*
X141110D02*
D03*
X137630Y231807D02*
D03*
X128343D02*
D03*
X131823Y235287D02*
D03*
X122539D02*
D03*
X119059Y231807D02*
D03*
X109776D02*
D03*
X113256Y235287D02*
D03*
X103972D02*
D03*
X100492Y231807D02*
D03*
X91205D02*
D03*
X94685Y235287D02*
D03*
X85401D02*
D03*
X81921Y231807D02*
D03*
X168047Y244571D02*
D03*
X164567Y241091D02*
D03*
X173851D02*
D03*
X177331Y244571D02*
D03*
X186618D02*
D03*
X183138Y241091D02*
D03*
X192421D02*
D03*
X195901Y244571D02*
D03*
X205185D02*
D03*
X201705Y241091D02*
D03*
X210988D02*
D03*
X214468Y244571D02*
D03*
X223756D02*
D03*
X220276Y241091D02*
D03*
X229559D02*
D03*
X233039Y244571D02*
D03*
X85401Y317964D02*
D03*
X81921Y314485D02*
D03*
X91205D02*
D03*
X94685Y317964D02*
D03*
X103972D02*
D03*
X100492Y314485D02*
D03*
X109776D02*
D03*
X113256Y317964D02*
D03*
X122539D02*
D03*
X119059Y314485D02*
D03*
X128343D02*
D03*
X131823Y317964D02*
D03*
X141110D02*
D03*
X137630Y314485D02*
D03*
X146914D02*
D03*
X150393Y317964D02*
D03*
X146914Y241091D02*
D03*
X150393Y244571D02*
D03*
X141110D02*
D03*
X137630Y241091D02*
D03*
X128343D02*
D03*
X131823Y244571D02*
D03*
X122539D02*
D03*
X119059Y241091D02*
D03*
X109776D02*
D03*
X113256Y244571D02*
D03*
X103972D02*
D03*
X100492Y241091D02*
D03*
X91205D02*
D03*
X94685Y244571D02*
D03*
X85401D02*
D03*
X81921Y241091D02*
D03*
X168047Y235287D02*
D03*
X164567Y231807D02*
D03*
X173851D02*
D03*
X177331Y235287D02*
D03*
X186618D02*
D03*
X183138Y231807D02*
D03*
X192421D02*
D03*
X195901Y235287D02*
D03*
X205185D02*
D03*
X201705Y231807D02*
D03*
X210988D02*
D03*
X214468Y235287D02*
D03*
X223756D02*
D03*
X220276Y231807D02*
D03*
X229559D02*
D03*
X233039Y235287D02*
D03*
X85401Y308685D02*
D03*
X81921Y305205D02*
D03*
X91205D02*
D03*
X94685Y308685D02*
D03*
X103972D02*
D03*
X100492Y305205D02*
D03*
X109776D02*
D03*
X113256Y308685D02*
D03*
X122539D02*
D03*
X119059Y305205D02*
D03*
X128343D02*
D03*
X131823Y308685D02*
D03*
X141110D02*
D03*
X137630Y305205D02*
D03*
X146914D02*
D03*
X150393Y308685D02*
D03*
X146914Y250370D02*
D03*
X150393Y253850D02*
D03*
X141110D02*
D03*
X137630Y250370D02*
D03*
X128343D02*
D03*
X131823Y253850D02*
D03*
X122539D02*
D03*
X119059Y250370D02*
D03*
X109776D02*
D03*
X113256Y253850D02*
D03*
X103972D02*
D03*
X100492Y250370D02*
D03*
X91205D02*
D03*
X94685Y253850D02*
D03*
X85401D02*
D03*
X81921Y250370D02*
D03*
X168047Y226008D02*
D03*
X164567Y222528D02*
D03*
X173851D02*
D03*
X177331Y226008D02*
D03*
X186618D02*
D03*
X183138Y222528D02*
D03*
X192421D02*
D03*
X195901Y226008D02*
D03*
X205185D02*
D03*
X201705Y222528D02*
D03*
X210988D02*
D03*
X214468Y226008D02*
D03*
X223756D02*
D03*
X220276Y222528D02*
D03*
X229559D02*
D03*
X233039Y226008D02*
D03*
X85401Y299405D02*
D03*
X81921Y295925D02*
D03*
X91205D02*
D03*
X94685Y299405D02*
D03*
X103972D02*
D03*
X100492Y295925D02*
D03*
X109776D02*
D03*
X113256Y299405D02*
D03*
X122539D02*
D03*
X119059Y295925D02*
D03*
X128343D02*
D03*
X131823Y299405D02*
D03*
X141110D02*
D03*
X137630Y295925D02*
D03*
X146914D02*
D03*
X150393Y299405D02*
D03*
X146914Y259650D02*
D03*
X150393Y263130D02*
D03*
X141110D02*
D03*
X137630Y259650D02*
D03*
X128343D02*
D03*
X131823Y263130D02*
D03*
X122539D02*
D03*
X119059Y259650D02*
D03*
X109776D02*
D03*
X113256Y263130D02*
D03*
X103972D02*
D03*
X100492Y259650D02*
D03*
X91205D02*
D03*
X94685Y263130D02*
D03*
X85401D02*
D03*
X81921Y259650D02*
D03*
X168047Y216728D02*
D03*
X164567Y213248D02*
D03*
X173851D02*
D03*
X177331Y216728D02*
D03*
X186618D02*
D03*
X183138Y213248D02*
D03*
X192421D02*
D03*
X195901Y216728D02*
D03*
X205185D02*
D03*
X201705Y213248D02*
D03*
X210988D02*
D03*
X214468Y216728D02*
D03*
X223756D02*
D03*
X220276Y213248D02*
D03*
X229559D02*
D03*
X233039Y216728D02*
D03*
X85401Y290126D02*
D03*
X81921Y286646D02*
D03*
X91130D02*
D03*
X94610Y290126D02*
D03*
X103909D02*
D03*
X100429Y286646D02*
D03*
X109725D02*
D03*
X113205Y290126D02*
D03*
X122500D02*
D03*
X119020Y286646D02*
D03*
X128319D02*
D03*
X131799Y290126D02*
D03*
X141094D02*
D03*
X137614Y286646D02*
D03*
X146914D02*
D03*
X150393Y290126D02*
D03*
X146914Y268929D02*
D03*
X150393Y272409D02*
D03*
X141185D02*
D03*
X137705Y268929D02*
D03*
X128406D02*
D03*
X131886Y272409D02*
D03*
X122590D02*
D03*
X119110Y268929D02*
D03*
X109815D02*
D03*
X113295Y272409D02*
D03*
X103996D02*
D03*
X100516Y268929D02*
D03*
X91221D02*
D03*
X94700Y272409D02*
D03*
X85401D02*
D03*
X81921Y268929D02*
D03*
X168047Y207449D02*
D03*
X164567Y203969D02*
D03*
X173776D02*
D03*
X177256Y207449D02*
D03*
X186555D02*
D03*
X183075Y203969D02*
D03*
X192370D02*
D03*
X195850Y207449D02*
D03*
X205145D02*
D03*
X201666Y203969D02*
D03*
X210965D02*
D03*
X214445Y207449D02*
D03*
X223740D02*
D03*
X220260Y203969D02*
D03*
X229559D02*
D03*
X233039Y207449D02*
D03*
X250724Y189732D02*
D03*
X247244Y186252D02*
D03*
X256528D02*
D03*
X260008Y189732D02*
D03*
X269295D02*
D03*
X265815Y186252D02*
D03*
X275099D02*
D03*
X278578Y189732D02*
D03*
X287862D02*
D03*
X284382Y186252D02*
D03*
X293666D02*
D03*
X297145Y189732D02*
D03*
X306433D02*
D03*
X302953Y186252D02*
D03*
X312236D02*
D03*
X315716Y189732D02*
D03*
X229591Y121292D02*
D03*
X233071Y124771D02*
D03*
X223787D02*
D03*
X220307Y121292D02*
D03*
X211020D02*
D03*
X214500Y124771D02*
D03*
X205216D02*
D03*
X201736Y121292D02*
D03*
X192453D02*
D03*
X195933Y124771D02*
D03*
X186649D02*
D03*
X183169Y121292D02*
D03*
X173882D02*
D03*
X177362Y124771D02*
D03*
X168078D02*
D03*
X164599Y121292D02*
D03*
X312268Y38614D02*
D03*
X315748Y42094D02*
D03*
X306464D02*
D03*
X302984Y38614D02*
D03*
X293697D02*
D03*
X297177Y42094D02*
D03*
X287894D02*
D03*
X284414Y38614D02*
D03*
X275130D02*
D03*
X278610Y42094D02*
D03*
X269326D02*
D03*
X265847Y38614D02*
D03*
X256559D02*
D03*
X260039Y42094D02*
D03*
X250756D02*
D03*
X247276Y38614D02*
D03*
X250724Y180453D02*
D03*
X247244Y176973D02*
D03*
X256528D02*
D03*
X260008Y180453D02*
D03*
X269295D02*
D03*
X265815Y176973D02*
D03*
X275099D02*
D03*
X278578Y180453D02*
D03*
X287862D02*
D03*
X284382Y176973D02*
D03*
X293666D02*
D03*
X297145Y180453D02*
D03*
X306433D02*
D03*
X302953Y176973D02*
D03*
X312236D02*
D03*
X315716Y180453D02*
D03*
X229591Y130571D02*
D03*
X233071Y134051D02*
D03*
X223787D02*
D03*
X220307Y130571D02*
D03*
X211020D02*
D03*
X214500Y134051D02*
D03*
X205216D02*
D03*
X201736Y130571D02*
D03*
X192453D02*
D03*
X195933Y134051D02*
D03*
X186649D02*
D03*
X183169Y130571D02*
D03*
X173882D02*
D03*
X177362Y134051D02*
D03*
X168078D02*
D03*
X164599Y130571D02*
D03*
X312268Y47894D02*
D03*
X315748Y51374D02*
D03*
X306464D02*
D03*
X302984Y47894D02*
D03*
X293697D02*
D03*
X297177Y51374D02*
D03*
X287894D02*
D03*
X284414Y47894D02*
D03*
X275130D02*
D03*
X278610Y51374D02*
D03*
X269326D02*
D03*
X265847Y47894D02*
D03*
X256559D02*
D03*
X260039Y51374D02*
D03*
X250756D02*
D03*
X247276Y47894D02*
D03*
X250724Y171173D02*
D03*
X247244Y167693D02*
D03*
X256528D02*
D03*
X260008Y171173D02*
D03*
X269295D02*
D03*
X265815Y167693D02*
D03*
X275099D02*
D03*
X278578Y171173D02*
D03*
X287862D02*
D03*
X284382Y167693D02*
D03*
X293666D02*
D03*
X297145Y171173D02*
D03*
X306433D02*
D03*
X302953Y167693D02*
D03*
X312236D02*
D03*
X315716Y171173D02*
D03*
X229591Y139851D02*
D03*
X233071Y143331D02*
D03*
X223787D02*
D03*
X220307Y139851D02*
D03*
X211020D02*
D03*
X214500Y143331D02*
D03*
X205216D02*
D03*
X201736Y139851D02*
D03*
X192453D02*
D03*
X195933Y143331D02*
D03*
X186649D02*
D03*
X183169Y139851D02*
D03*
X173882D02*
D03*
X177362Y143331D02*
D03*
X168078D02*
D03*
X164599Y139851D02*
D03*
X312268Y57174D02*
D03*
X315748Y60653D02*
D03*
X306464D02*
D03*
X302984Y57174D02*
D03*
X293697D02*
D03*
X297177Y60653D02*
D03*
X287894D02*
D03*
X284414Y57174D02*
D03*
X275130D02*
D03*
X278610Y60653D02*
D03*
X269326D02*
D03*
X265847Y57174D02*
D03*
X256559D02*
D03*
X260039Y60653D02*
D03*
X250756D02*
D03*
X247276Y57174D02*
D03*
X250724Y161893D02*
D03*
X247244Y158414D02*
D03*
X256528D02*
D03*
X260008Y161893D02*
D03*
X269295D02*
D03*
X265815Y158414D02*
D03*
X275099D02*
D03*
X278578Y161893D02*
D03*
X287862D02*
D03*
X284382Y158414D02*
D03*
X293666D02*
D03*
X297145Y161893D02*
D03*
X306433D02*
D03*
X302953Y158414D02*
D03*
X312236D02*
D03*
X315716Y161893D02*
D03*
X229591Y149130D02*
D03*
X233071Y152610D02*
D03*
X223787D02*
D03*
X220307Y149130D02*
D03*
X211020D02*
D03*
X214500Y152610D02*
D03*
X205216D02*
D03*
X201736Y149130D02*
D03*
X192453D02*
D03*
X195933Y152610D02*
D03*
X186649D02*
D03*
X183169Y149130D02*
D03*
X173882D02*
D03*
X177362Y152610D02*
D03*
X168078D02*
D03*
X164599Y149130D02*
D03*
X312268Y66453D02*
D03*
X315748Y69933D02*
D03*
X306464D02*
D03*
X302984Y66453D02*
D03*
X293697D02*
D03*
X297177Y69933D02*
D03*
X287894D02*
D03*
X284414Y66453D02*
D03*
X275130D02*
D03*
X278610Y69933D02*
D03*
X269326D02*
D03*
X265847Y66453D02*
D03*
X256559D02*
D03*
X260039Y69933D02*
D03*
X250756D02*
D03*
X247276Y66453D02*
D03*
X250724Y152610D02*
D03*
X247244Y149130D02*
D03*
X256528D02*
D03*
X260008Y152610D02*
D03*
X269295D02*
D03*
X265815Y149130D02*
D03*
X275099D02*
D03*
X278578Y152610D02*
D03*
X287862D02*
D03*
X284382Y149130D02*
D03*
X293666D02*
D03*
X297145Y152610D02*
D03*
X306433D02*
D03*
X302953Y149130D02*
D03*
X312236D02*
D03*
X315716Y152610D02*
D03*
X229591Y158414D02*
D03*
X233071Y161893D02*
D03*
X223787D02*
D03*
X220307Y158414D02*
D03*
X211020D02*
D03*
X214500Y161893D02*
D03*
X205216D02*
D03*
X201736Y158414D02*
D03*
X192453D02*
D03*
X195933Y161893D02*
D03*
X186649D02*
D03*
X183169Y158414D02*
D03*
X173882D02*
D03*
X177362Y161893D02*
D03*
X168078D02*
D03*
X164599Y158414D02*
D03*
X312268Y75736D02*
D03*
X315748Y79216D02*
D03*
X306464D02*
D03*
X302984Y75736D02*
D03*
X293697D02*
D03*
X297177Y79216D02*
D03*
X287894D02*
D03*
X284414Y75736D02*
D03*
X275130D02*
D03*
X278610Y79216D02*
D03*
X269326D02*
D03*
X265847Y75736D02*
D03*
X256559D02*
D03*
X260039Y79216D02*
D03*
X250756D02*
D03*
X247276Y75736D02*
D03*
X250724Y143331D02*
D03*
X247244Y139851D02*
D03*
X256528D02*
D03*
X260008Y143331D02*
D03*
X269295D02*
D03*
X265815Y139851D02*
D03*
X275099D02*
D03*
X278578Y143331D02*
D03*
X287862D02*
D03*
X284382Y139851D02*
D03*
X293666D02*
D03*
X297145Y143331D02*
D03*
X306433D02*
D03*
X302953Y139851D02*
D03*
X312236D02*
D03*
X315716Y143331D02*
D03*
X229591Y167693D02*
D03*
X233071Y171173D02*
D03*
X223787D02*
D03*
X220307Y167693D02*
D03*
X211020D02*
D03*
X214500Y171173D02*
D03*
X205216D02*
D03*
X201736Y167693D02*
D03*
X192453D02*
D03*
X195933Y171173D02*
D03*
X186649D02*
D03*
X183169Y167693D02*
D03*
X173882D02*
D03*
X177362Y171173D02*
D03*
X168078D02*
D03*
X164599Y167693D02*
D03*
X312268Y85016D02*
D03*
X315748Y88496D02*
D03*
X306464D02*
D03*
X302984Y85016D02*
D03*
X293697D02*
D03*
X297177Y88496D02*
D03*
X287894D02*
D03*
X284414Y85016D02*
D03*
X275130D02*
D03*
X278610Y88496D02*
D03*
X269326D02*
D03*
X265847Y85016D02*
D03*
X256559D02*
D03*
X260039Y88496D02*
D03*
X250756D02*
D03*
X247276Y85016D02*
D03*
X250724Y134051D02*
D03*
X247244Y130571D02*
D03*
X256528D02*
D03*
X260008Y134051D02*
D03*
X269295D02*
D03*
X265815Y130571D02*
D03*
X275099D02*
D03*
X278578Y134051D02*
D03*
X287862D02*
D03*
X284382Y130571D02*
D03*
X293666D02*
D03*
X297145Y134051D02*
D03*
X306433D02*
D03*
X302953Y130571D02*
D03*
X312236D02*
D03*
X315716Y134051D02*
D03*
X229591Y176973D02*
D03*
X233071Y180453D02*
D03*
X223787D02*
D03*
X220307Y176973D02*
D03*
X211020D02*
D03*
X214500Y180453D02*
D03*
X205216D02*
D03*
X201736Y176973D02*
D03*
X192453D02*
D03*
X195933Y180453D02*
D03*
X186649D02*
D03*
X183169Y176973D02*
D03*
X173882D02*
D03*
X177362Y180453D02*
D03*
X168078D02*
D03*
X164599Y176973D02*
D03*
X312268Y94296D02*
D03*
X315748Y97775D02*
D03*
X306464D02*
D03*
X302984Y94296D02*
D03*
X293697D02*
D03*
X297177Y97775D02*
D03*
X287894D02*
D03*
X284414Y94296D02*
D03*
X275130D02*
D03*
X278610Y97775D02*
D03*
X269326D02*
D03*
X265847Y94296D02*
D03*
X256559D02*
D03*
X260039Y97775D02*
D03*
X250756D02*
D03*
X247276Y94296D02*
D03*
X250724Y124771D02*
D03*
X247244Y121292D02*
D03*
X256453D02*
D03*
X259933Y124771D02*
D03*
X269232D02*
D03*
X265752Y121292D02*
D03*
X275047D02*
D03*
X278527Y124771D02*
D03*
X287823D02*
D03*
X284343Y121292D02*
D03*
X293642D02*
D03*
X297122Y124771D02*
D03*
X306417D02*
D03*
X302937Y121292D02*
D03*
X312236D02*
D03*
X315716Y124771D02*
D03*
X229591Y186252D02*
D03*
X233071Y189732D02*
D03*
X223862D02*
D03*
X220382Y186252D02*
D03*
X211083D02*
D03*
X214563Y189732D02*
D03*
X205268D02*
D03*
X201788Y186252D02*
D03*
X192492D02*
D03*
X195972Y189732D02*
D03*
X186673D02*
D03*
X183193Y186252D02*
D03*
X173898D02*
D03*
X177378Y189732D02*
D03*
X168078D02*
D03*
X164599Y186252D02*
D03*
X312268Y103575D02*
D03*
X315748Y107055D02*
D03*
X306539D02*
D03*
X303059Y103575D02*
D03*
X293760D02*
D03*
X297240Y107055D02*
D03*
X287945D02*
D03*
X284465Y103575D02*
D03*
X275169D02*
D03*
X278649Y107055D02*
D03*
X269350D02*
D03*
X265870Y103575D02*
D03*
X256575D02*
D03*
X260055Y107055D02*
D03*
X250756D02*
D03*
X247276Y103575D02*
D03*
D40*
X209055Y340945D02*
D03*
Y348031D02*
D03*
X216142Y340945D02*
D03*
Y348031D02*
D03*
D41*
X217520Y324528D02*
D03*
X211890D02*
D03*
D43*
X227500Y318819D02*
D03*
Y330236D02*
D03*
D44*
X233405Y324528D02*
D03*
X221595D02*
D03*
D57*
X124016Y148622D02*
D03*
Y152953D02*
D03*
D58*
X385827Y43307D02*
D03*
X39370Y350394D02*
D03*
M02*
