G04*
G04 #@! TF.GenerationSoftware,Altium Limited,Altium Designer,20.1.11 (218)*
G04*
G04 Layer_Color=8388736*
%FSLAX25Y25*%
%MOIN*%
G70*
G04*
G04 #@! TF.SameCoordinates,46BD3A0D-DB86-42CC-8E7D-09D2F19248DD*
G04*
G04*
G04 #@! TF.FilePolarity,Negative*
G04*
G01*
G75*
%ADD11C,0.01968*%
%ADD13R,0.03347X0.03543*%
%ADD14R,0.02165X0.01575*%
%ADD15R,0.08976X0.08976*%
%ADD16R,0.00787X0.03543*%
%ADD17R,0.03543X0.00787*%
%ADD18R,0.03150X0.03937*%
%ADD19R,0.03937X0.03150*%
%ADD20R,0.01575X0.02165*%
%ADD21R,0.03543X0.00984*%
%ADD22R,0.05512X0.05118*%
%ADD23R,0.05118X0.05512*%
%ADD24R,0.03543X0.03347*%
%ADD25R,0.01968X0.13780*%
%ADD26R,0.04331X0.07480*%
%ADD27R,0.03543X0.01575*%
%ADD28O,0.02756X0.00984*%
%ADD29O,0.00984X0.02756*%
%ADD30R,0.02756X0.02756*%
%ADD31R,0.03150X0.03150*%
%ADD32R,0.03937X0.02362*%
%ADD33R,0.03543X0.01378*%
%ADD34R,0.13780X0.13780*%
%ADD35O,0.03347X0.01181*%
%ADD36O,0.01181X0.03347*%
%ADD37R,0.04528X0.01968*%
%ADD38R,0.01968X0.04528*%
%ADD39P,0.04454X4X180.0*%
%ADD40R,0.03543X0.03937*%
%ADD41R,0.03150X0.04528*%
%ADD42C,0.03398*%
%ADD43R,0.08661X0.03937*%
%ADD44R,0.03937X0.03937*%
%ADD50R,0.06299X0.06299*%
%ADD51R,0.07874X0.07874*%
%ADD52C,0.02559*%
%ADD53C,0.02400*%
%ADD62C,0.12000*%
%ADD63C,0.07874*%
D11*
X444776Y262800D02*
X457895D01*
X451335D01*
Y243121D01*
X467734D02*
X474294D01*
X477573Y246401D01*
Y252961D01*
X474294Y256240D01*
X467734D01*
X464454Y252961D01*
Y246401D01*
X467734Y243121D01*
X484133Y236562D02*
Y256240D01*
X493972D01*
X497252Y252961D01*
Y246401D01*
X493972Y243121D01*
X484133D01*
X536609Y259520D02*
X533330Y262800D01*
X526770D01*
X523490Y259520D01*
Y256240D01*
X526770Y252961D01*
X533330D01*
X536609Y249681D01*
Y246401D01*
X533330Y243121D01*
X526770D01*
X523490Y246401D01*
X546449Y243121D02*
X553008D01*
X556288Y246401D01*
Y252961D01*
X553008Y256240D01*
X546449D01*
X543169Y252961D01*
Y246401D01*
X546449Y243121D01*
X562848D02*
X569407D01*
X566127D01*
Y262800D01*
X562848D01*
X592366D02*
Y243121D01*
X582526D01*
X579247Y246401D01*
Y252961D01*
X582526Y256240D01*
X592366D01*
X608765Y243121D02*
X602205D01*
X598925Y246401D01*
Y252961D01*
X602205Y256240D01*
X608765D01*
X612044Y252961D01*
Y249681D01*
X598925D01*
X618604Y256240D02*
Y243121D01*
Y249681D01*
X621884Y252961D01*
X625164Y256240D01*
X628443D01*
D13*
X134744Y237697D02*
D03*
X140847D02*
D03*
X104527Y221949D02*
D03*
X98425D02*
D03*
X93602D02*
D03*
X87500D02*
D03*
X140847Y228248D02*
D03*
X134744D02*
D03*
Y223524D02*
D03*
X140847D02*
D03*
X81201Y194095D02*
D03*
X87303D02*
D03*
X101083Y172047D02*
D03*
X94980D02*
D03*
X217421Y137402D02*
D03*
X223524D02*
D03*
Y142126D02*
D03*
X217421D02*
D03*
X176279Y135827D02*
D03*
X170177D02*
D03*
X187205D02*
D03*
X181102D02*
D03*
X262894Y268110D02*
D03*
X256791D02*
D03*
Y263386D02*
D03*
X262894D02*
D03*
X304035Y269685D02*
D03*
X310138D02*
D03*
X293110D02*
D03*
X299213D02*
D03*
X223524Y151575D02*
D03*
X217421D02*
D03*
X262894Y253937D02*
D03*
X256791D02*
D03*
D14*
X92126Y231181D02*
D03*
Y234961D02*
D03*
X96063Y227146D02*
D03*
Y230925D02*
D03*
X103150D02*
D03*
Y227146D02*
D03*
X99606D02*
D03*
Y230925D02*
D03*
X117323Y171732D02*
D03*
Y175512D02*
D03*
X182283Y141024D02*
D03*
Y144803D02*
D03*
X185827D02*
D03*
Y141024D02*
D03*
X178740D02*
D03*
Y144803D02*
D03*
X173622D02*
D03*
Y141024D02*
D03*
X298031Y264488D02*
D03*
Y260709D02*
D03*
X294488D02*
D03*
Y264488D02*
D03*
X301575D02*
D03*
Y260709D02*
D03*
X306693D02*
D03*
Y264488D02*
D03*
D15*
X118110Y231791D02*
D03*
X200787Y145669D02*
D03*
X279528Y259842D02*
D03*
D16*
X122835Y224409D02*
D03*
X121260D02*
D03*
X119685D02*
D03*
X118110D02*
D03*
X116535D02*
D03*
X114961D02*
D03*
X113386D02*
D03*
Y239173D02*
D03*
X114961D02*
D03*
X116535D02*
D03*
X118110D02*
D03*
X119685D02*
D03*
X121260D02*
D03*
X122835D02*
D03*
X205512Y153051D02*
D03*
X203937D02*
D03*
X202362D02*
D03*
X200787D02*
D03*
X199213D02*
D03*
X197638D02*
D03*
X196063D02*
D03*
Y138287D02*
D03*
X197638D02*
D03*
X199213D02*
D03*
X200787D02*
D03*
X202362D02*
D03*
X203937D02*
D03*
X205512D02*
D03*
X274803Y267224D02*
D03*
X276378D02*
D03*
X277953D02*
D03*
X279528D02*
D03*
X281102D02*
D03*
X282677D02*
D03*
X284252D02*
D03*
Y252461D02*
D03*
X282677D02*
D03*
X281102D02*
D03*
X279528D02*
D03*
X277953D02*
D03*
X276378D02*
D03*
X274803D02*
D03*
D17*
X110728Y227067D02*
D03*
Y228642D02*
D03*
Y230217D02*
D03*
Y231791D02*
D03*
Y233366D02*
D03*
Y234941D02*
D03*
Y236516D02*
D03*
X125492D02*
D03*
Y234941D02*
D03*
Y233366D02*
D03*
Y231791D02*
D03*
Y230217D02*
D03*
Y228642D02*
D03*
Y227067D02*
D03*
X208169Y140945D02*
D03*
Y142520D02*
D03*
Y144095D02*
D03*
Y145669D02*
D03*
Y147244D02*
D03*
Y148819D02*
D03*
Y150394D02*
D03*
X193405D02*
D03*
Y148819D02*
D03*
Y147244D02*
D03*
Y145669D02*
D03*
Y144095D02*
D03*
Y142520D02*
D03*
Y140945D02*
D03*
X286909Y264567D02*
D03*
Y262992D02*
D03*
Y261417D02*
D03*
Y259842D02*
D03*
Y258268D02*
D03*
Y256693D02*
D03*
Y255118D02*
D03*
X272146D02*
D03*
Y256693D02*
D03*
Y258268D02*
D03*
Y259842D02*
D03*
Y261417D02*
D03*
Y262992D02*
D03*
Y264567D02*
D03*
D18*
X140748Y232972D02*
D03*
X134843D02*
D03*
X95866Y237697D02*
D03*
X101772D02*
D03*
X184055Y346063D02*
D03*
X178150D02*
D03*
X184449Y151575D02*
D03*
X178543D02*
D03*
X223425Y146850D02*
D03*
X217520D02*
D03*
X262795Y258661D02*
D03*
X256890D02*
D03*
X302165Y253937D02*
D03*
X296260D02*
D03*
X172382Y383583D02*
D03*
X178287D02*
D03*
X214567Y380906D02*
D03*
X220472D02*
D03*
D19*
X145472Y237697D02*
D03*
Y231791D02*
D03*
X228150Y151575D02*
D03*
Y145669D02*
D03*
X252165Y259842D02*
D03*
Y253937D02*
D03*
X194882Y389567D02*
D03*
Y395472D02*
D03*
X199606D02*
D03*
Y389567D02*
D03*
X180709Y355315D02*
D03*
Y361221D02*
D03*
X204331Y395472D02*
D03*
Y389567D02*
D03*
X220866Y395472D02*
D03*
Y389567D02*
D03*
X207874Y370276D02*
D03*
Y376181D02*
D03*
D20*
X102677Y233760D02*
D03*
X98898D02*
D03*
X181575Y147638D02*
D03*
X185354D02*
D03*
X294961Y257874D02*
D03*
X298740D02*
D03*
D21*
X92716Y204921D02*
D03*
Y202953D02*
D03*
Y200984D02*
D03*
Y199016D02*
D03*
X97835Y204921D02*
D03*
Y202953D02*
D03*
Y200984D02*
D03*
Y199016D02*
D03*
D22*
X105118Y201969D02*
D03*
Y209055D02*
D03*
X82677Y216535D02*
D03*
Y209449D02*
D03*
X146063Y216437D02*
D03*
Y223524D02*
D03*
X251575Y275197D02*
D03*
Y268110D02*
D03*
X228740Y130315D02*
D03*
Y137402D02*
D03*
X179272Y396969D02*
D03*
Y389882D02*
D03*
D23*
X92126Y210236D02*
D03*
X99213D02*
D03*
X128347Y209449D02*
D03*
X135433D02*
D03*
X170079Y334252D02*
D03*
X177165D02*
D03*
X119291Y209449D02*
D03*
X112205D02*
D03*
X216929Y344882D02*
D03*
X209842D02*
D03*
D24*
X111811Y201083D02*
D03*
Y194980D02*
D03*
X108268Y186909D02*
D03*
Y180807D02*
D03*
X140945Y199902D02*
D03*
Y193799D02*
D03*
X136221Y199902D02*
D03*
Y193799D02*
D03*
X190157Y395571D02*
D03*
Y389469D02*
D03*
X185433Y395571D02*
D03*
Y389469D02*
D03*
D25*
X124016Y198031D02*
D03*
D26*
D03*
D27*
X129134Y201870D02*
D03*
Y199311D02*
D03*
Y196752D02*
D03*
Y194193D02*
D03*
X118898D02*
D03*
Y196752D02*
D03*
Y199311D02*
D03*
Y201870D02*
D03*
D28*
X123327Y180905D02*
D03*
Y182874D02*
D03*
Y184843D02*
D03*
Y186811D02*
D03*
X116043D02*
D03*
Y184843D02*
D03*
Y182874D02*
D03*
Y180905D02*
D03*
D29*
X120669Y187500D02*
D03*
X118701D02*
D03*
Y180217D02*
D03*
X120669D02*
D03*
D30*
X119685Y183858D02*
D03*
D31*
X133661Y184055D02*
D03*
X127756D02*
D03*
D32*
X90945Y181102D02*
D03*
X100394Y184843D02*
D03*
Y177362D02*
D03*
D33*
X101673Y195079D02*
D03*
Y192520D02*
D03*
Y189961D02*
D03*
X92815D02*
D03*
Y192520D02*
D03*
Y195079D02*
D03*
D34*
X192067Y374528D02*
D03*
D35*
X182421Y381417D02*
D03*
Y379449D02*
D03*
Y377480D02*
D03*
Y375512D02*
D03*
Y373543D02*
D03*
Y371575D02*
D03*
Y369606D02*
D03*
Y367638D02*
D03*
X201713D02*
D03*
Y369606D02*
D03*
Y371575D02*
D03*
Y373543D02*
D03*
Y375512D02*
D03*
Y377480D02*
D03*
Y379449D02*
D03*
Y381417D02*
D03*
D36*
X185177Y364882D02*
D03*
X187146D02*
D03*
X189114D02*
D03*
X191083D02*
D03*
X193051D02*
D03*
X195020D02*
D03*
X196988D02*
D03*
X198957D02*
D03*
Y384173D02*
D03*
X196988D02*
D03*
X195020D02*
D03*
X193051D02*
D03*
X191083D02*
D03*
X189114D02*
D03*
X187146D02*
D03*
X185177D02*
D03*
D37*
X187598Y350000D02*
D03*
X205315D02*
D03*
D38*
X188583Y354921D02*
D03*
X191732D02*
D03*
X194882D02*
D03*
X198031D02*
D03*
X201181D02*
D03*
X204331D02*
D03*
Y345079D02*
D03*
X201181D02*
D03*
X198031D02*
D03*
X194882D02*
D03*
X191732D02*
D03*
X188583D02*
D03*
D39*
X85401Y402330D02*
D03*
X81921Y398851D02*
D03*
X91205D02*
D03*
X94685Y402330D02*
D03*
X103972D02*
D03*
X100492Y398851D02*
D03*
X109776D02*
D03*
X113256Y402330D02*
D03*
X122539D02*
D03*
X119059Y398851D02*
D03*
X128343D02*
D03*
X131823Y402330D02*
D03*
X141110D02*
D03*
X137630Y398851D02*
D03*
X146914D02*
D03*
X150393Y402330D02*
D03*
X146914Y251213D02*
D03*
X150393Y254693D02*
D03*
X141110D02*
D03*
X137630Y251213D02*
D03*
X128343D02*
D03*
X131823Y254693D02*
D03*
X122539D02*
D03*
X119059Y251213D02*
D03*
X109776D02*
D03*
X113256Y254693D02*
D03*
X103972D02*
D03*
X100492Y251213D02*
D03*
X91205D02*
D03*
X94685Y254693D02*
D03*
X85401D02*
D03*
X81921Y251213D02*
D03*
X168047Y319653D02*
D03*
X164567Y316174D02*
D03*
X173851D02*
D03*
X177331Y319653D02*
D03*
X186618D02*
D03*
X183138Y316174D02*
D03*
X192421D02*
D03*
X195901Y319653D02*
D03*
X205185D02*
D03*
X201705Y316174D02*
D03*
X210988D02*
D03*
X214468Y319653D02*
D03*
X223756D02*
D03*
X220276Y316174D02*
D03*
X229559D02*
D03*
X233039Y319653D02*
D03*
X85401Y393051D02*
D03*
X81921Y389571D02*
D03*
X91205D02*
D03*
X94685Y393051D02*
D03*
X103972D02*
D03*
X100492Y389571D02*
D03*
X109776D02*
D03*
X113256Y393051D02*
D03*
X122539D02*
D03*
X119059Y389571D02*
D03*
X128343D02*
D03*
X131823Y393051D02*
D03*
X141110D02*
D03*
X137630Y389571D02*
D03*
X146914D02*
D03*
X150393Y393051D02*
D03*
X146914Y260492D02*
D03*
X150393Y263972D02*
D03*
X141110D02*
D03*
X137630Y260492D02*
D03*
X128343D02*
D03*
X131823Y263972D02*
D03*
X122539D02*
D03*
X119059Y260492D02*
D03*
X109776D02*
D03*
X113256Y263972D02*
D03*
X103972D02*
D03*
X100492Y260492D02*
D03*
X91205D02*
D03*
X94685Y263972D02*
D03*
X85401D02*
D03*
X81921Y260492D02*
D03*
X168047Y310374D02*
D03*
X164567Y306894D02*
D03*
X173851D02*
D03*
X177331Y310374D02*
D03*
X186618D02*
D03*
X183138Y306894D02*
D03*
X192421D02*
D03*
X195901Y310374D02*
D03*
X205185D02*
D03*
X201705Y306894D02*
D03*
X210988D02*
D03*
X214468Y310374D02*
D03*
X223756D02*
D03*
X220276Y306894D02*
D03*
X229559D02*
D03*
X233039Y310374D02*
D03*
X85401Y383771D02*
D03*
X81921Y380292D02*
D03*
X91205D02*
D03*
X94685Y383771D02*
D03*
X103972D02*
D03*
X100492Y380292D02*
D03*
X109776D02*
D03*
X113256Y383771D02*
D03*
X122539D02*
D03*
X119059Y380292D02*
D03*
X128343D02*
D03*
X131823Y383771D02*
D03*
X141110D02*
D03*
X137630Y380292D02*
D03*
X146914D02*
D03*
X150393Y383771D02*
D03*
X146914Y269772D02*
D03*
X150393Y273252D02*
D03*
X141110D02*
D03*
X137630Y269772D02*
D03*
X128343D02*
D03*
X131823Y273252D02*
D03*
X122539D02*
D03*
X119059Y269772D02*
D03*
X109776D02*
D03*
X113256Y273252D02*
D03*
X103972D02*
D03*
X100492Y269772D02*
D03*
X91205D02*
D03*
X94685Y273252D02*
D03*
X85401D02*
D03*
X81921Y269772D02*
D03*
X168047Y301094D02*
D03*
X164567Y297614D02*
D03*
X173851D02*
D03*
X177331Y301094D02*
D03*
X186618D02*
D03*
X183138Y297614D02*
D03*
X192421D02*
D03*
X195901Y301094D02*
D03*
X205185D02*
D03*
X201705Y297614D02*
D03*
X210988D02*
D03*
X214468Y301094D02*
D03*
X223756D02*
D03*
X220276Y297614D02*
D03*
X229559D02*
D03*
X233039Y301094D02*
D03*
X85401Y374492D02*
D03*
X81921Y371012D02*
D03*
X91205D02*
D03*
X94685Y374492D02*
D03*
X103972D02*
D03*
X100492Y371012D02*
D03*
X109776D02*
D03*
X113256Y374492D02*
D03*
X122539D02*
D03*
X119059Y371012D02*
D03*
X128343D02*
D03*
X131823Y374492D02*
D03*
X141110D02*
D03*
X137630Y371012D02*
D03*
X146914D02*
D03*
X150393Y374492D02*
D03*
X146914Y279051D02*
D03*
X150393Y282531D02*
D03*
X141110D02*
D03*
X137630Y279051D02*
D03*
X128343D02*
D03*
X131823Y282531D02*
D03*
X122539D02*
D03*
X119059Y279051D02*
D03*
X109776D02*
D03*
X113256Y282531D02*
D03*
X103972D02*
D03*
X100492Y279051D02*
D03*
X91205D02*
D03*
X94685Y282531D02*
D03*
X85401D02*
D03*
X81921Y279051D02*
D03*
X168047Y291815D02*
D03*
X164567Y288335D02*
D03*
X173851D02*
D03*
X177331Y291815D02*
D03*
X186618D02*
D03*
X183138Y288335D02*
D03*
X192421D02*
D03*
X195901Y291815D02*
D03*
X205185D02*
D03*
X201705Y288335D02*
D03*
X210988D02*
D03*
X214468Y291815D02*
D03*
X223756D02*
D03*
X220276Y288335D02*
D03*
X229559D02*
D03*
X233039Y291815D02*
D03*
X85401Y365208D02*
D03*
X81921Y361729D02*
D03*
X91205D02*
D03*
X94685Y365208D02*
D03*
X103972D02*
D03*
X100492Y361729D02*
D03*
X109776D02*
D03*
X113256Y365208D02*
D03*
X122539D02*
D03*
X119059Y361729D02*
D03*
X128343D02*
D03*
X131823Y365208D02*
D03*
X141110D02*
D03*
X137630Y361729D02*
D03*
X146914D02*
D03*
X150393Y365208D02*
D03*
X146914Y288335D02*
D03*
X150393Y291815D02*
D03*
X141110D02*
D03*
X137630Y288335D02*
D03*
X128343D02*
D03*
X131823Y291815D02*
D03*
X122539D02*
D03*
X119059Y288335D02*
D03*
X109776D02*
D03*
X113256Y291815D02*
D03*
X103972D02*
D03*
X100492Y288335D02*
D03*
X91205D02*
D03*
X94685Y291815D02*
D03*
X85401D02*
D03*
X81921Y288335D02*
D03*
X168047Y282531D02*
D03*
X164567Y279051D02*
D03*
X173851D02*
D03*
X177331Y282531D02*
D03*
X186618D02*
D03*
X183138Y279051D02*
D03*
X192421D02*
D03*
X195901Y282531D02*
D03*
X205185D02*
D03*
X201705Y279051D02*
D03*
X210988D02*
D03*
X214468Y282531D02*
D03*
X223756D02*
D03*
X220276Y279051D02*
D03*
X229559D02*
D03*
X233039Y282531D02*
D03*
X85401Y355929D02*
D03*
X81921Y352449D02*
D03*
X91205D02*
D03*
X94685Y355929D02*
D03*
X103972D02*
D03*
X100492Y352449D02*
D03*
X109776D02*
D03*
X113256Y355929D02*
D03*
X122539D02*
D03*
X119059Y352449D02*
D03*
X128343D02*
D03*
X131823Y355929D02*
D03*
X141110D02*
D03*
X137630Y352449D02*
D03*
X146914D02*
D03*
X150393Y355929D02*
D03*
X146914Y297614D02*
D03*
X150393Y301094D02*
D03*
X141110D02*
D03*
X137630Y297614D02*
D03*
X128343D02*
D03*
X131823Y301094D02*
D03*
X122539D02*
D03*
X119059Y297614D02*
D03*
X109776D02*
D03*
X113256Y301094D02*
D03*
X103972D02*
D03*
X100492Y297614D02*
D03*
X91205D02*
D03*
X94685Y301094D02*
D03*
X85401D02*
D03*
X81921Y297614D02*
D03*
X168047Y273252D02*
D03*
X164567Y269772D02*
D03*
X173851D02*
D03*
X177331Y273252D02*
D03*
X186618D02*
D03*
X183138Y269772D02*
D03*
X192421D02*
D03*
X195901Y273252D02*
D03*
X205185D02*
D03*
X201705Y269772D02*
D03*
X210988D02*
D03*
X214468Y273252D02*
D03*
X223756D02*
D03*
X220276Y269772D02*
D03*
X229559D02*
D03*
X233039Y273252D02*
D03*
X85401Y346649D02*
D03*
X81921Y343169D02*
D03*
X91205D02*
D03*
X94685Y346649D02*
D03*
X103972D02*
D03*
X100492Y343169D02*
D03*
X109776D02*
D03*
X113256Y346649D02*
D03*
X122539D02*
D03*
X119059Y343169D02*
D03*
X128343D02*
D03*
X131823Y346649D02*
D03*
X141110D02*
D03*
X137630Y343169D02*
D03*
X146914D02*
D03*
X150393Y346649D02*
D03*
X146914Y306894D02*
D03*
X150393Y310374D02*
D03*
X141110D02*
D03*
X137630Y306894D02*
D03*
X128343D02*
D03*
X131823Y310374D02*
D03*
X122539D02*
D03*
X119059Y306894D02*
D03*
X109776D02*
D03*
X113256Y310374D02*
D03*
X103972D02*
D03*
X100492Y306894D02*
D03*
X91205D02*
D03*
X94685Y310374D02*
D03*
X85401D02*
D03*
X81921Y306894D02*
D03*
X168047Y263972D02*
D03*
X164567Y260492D02*
D03*
X173851D02*
D03*
X177331Y263972D02*
D03*
X186618D02*
D03*
X183138Y260492D02*
D03*
X192421D02*
D03*
X195901Y263972D02*
D03*
X205185D02*
D03*
X201705Y260492D02*
D03*
X210988D02*
D03*
X214468Y263972D02*
D03*
X223756D02*
D03*
X220276Y260492D02*
D03*
X229559D02*
D03*
X233039Y263972D02*
D03*
X85401Y337370D02*
D03*
X81921Y333890D02*
D03*
X91130D02*
D03*
X94610Y337370D02*
D03*
X103909D02*
D03*
X100429Y333890D02*
D03*
X109725D02*
D03*
X113205Y337370D02*
D03*
X122500D02*
D03*
X119020Y333890D02*
D03*
X128319D02*
D03*
X131799Y337370D02*
D03*
X141094D02*
D03*
X137614Y333890D02*
D03*
X146914D02*
D03*
X150393Y337370D02*
D03*
X146914Y316174D02*
D03*
X150393Y319653D02*
D03*
X141185D02*
D03*
X137705Y316174D02*
D03*
X128406D02*
D03*
X131886Y319653D02*
D03*
X122590D02*
D03*
X119110Y316174D02*
D03*
X109815D02*
D03*
X113295Y319653D02*
D03*
X103996D02*
D03*
X100516Y316174D02*
D03*
X91221D02*
D03*
X94700Y319653D02*
D03*
X85401D02*
D03*
X81921Y316174D02*
D03*
X168047Y254693D02*
D03*
X164567Y251213D02*
D03*
X173776D02*
D03*
X177256Y254693D02*
D03*
X186555D02*
D03*
X183075Y251213D02*
D03*
X192370D02*
D03*
X195850Y254693D02*
D03*
X205145D02*
D03*
X201666Y251213D02*
D03*
X210965D02*
D03*
X214445Y254693D02*
D03*
X223740D02*
D03*
X220260Y251213D02*
D03*
X229559D02*
D03*
X233039Y254693D02*
D03*
X250724Y236976D02*
D03*
X247244Y233496D02*
D03*
X256528D02*
D03*
X260008Y236976D02*
D03*
X269295D02*
D03*
X265815Y233496D02*
D03*
X275099D02*
D03*
X278578Y236976D02*
D03*
X287862D02*
D03*
X284382Y233496D02*
D03*
X293666D02*
D03*
X297145Y236976D02*
D03*
X306433D02*
D03*
X302953Y233496D02*
D03*
X312236D02*
D03*
X315716Y236976D02*
D03*
X229591Y168536D02*
D03*
X233071Y172016D02*
D03*
X223787D02*
D03*
X220307Y168536D02*
D03*
X211020D02*
D03*
X214500Y172016D02*
D03*
X205216D02*
D03*
X201736Y168536D02*
D03*
X192453D02*
D03*
X195933Y172016D02*
D03*
X186649D02*
D03*
X183169Y168536D02*
D03*
X173882D02*
D03*
X177362Y172016D02*
D03*
X168078D02*
D03*
X164599Y168536D02*
D03*
X312268Y85859D02*
D03*
X315748Y89338D02*
D03*
X306464D02*
D03*
X302984Y85859D02*
D03*
X293697D02*
D03*
X297177Y89338D02*
D03*
X287894D02*
D03*
X284414Y85859D02*
D03*
X275130D02*
D03*
X278610Y89338D02*
D03*
X269326D02*
D03*
X265847Y85859D02*
D03*
X256559D02*
D03*
X260039Y89338D02*
D03*
X250756D02*
D03*
X247276Y85859D02*
D03*
X250724Y227697D02*
D03*
X247244Y224217D02*
D03*
X256528D02*
D03*
X260008Y227697D02*
D03*
X269295D02*
D03*
X265815Y224217D02*
D03*
X275099D02*
D03*
X278578Y227697D02*
D03*
X287862D02*
D03*
X284382Y224217D02*
D03*
X293666D02*
D03*
X297145Y227697D02*
D03*
X306433D02*
D03*
X302953Y224217D02*
D03*
X312236D02*
D03*
X315716Y227697D02*
D03*
X229591Y177815D02*
D03*
X233071Y181295D02*
D03*
X223787D02*
D03*
X220307Y177815D02*
D03*
X211020D02*
D03*
X214500Y181295D02*
D03*
X205216D02*
D03*
X201736Y177815D02*
D03*
X192453D02*
D03*
X195933Y181295D02*
D03*
X186649D02*
D03*
X183169Y177815D02*
D03*
X173882D02*
D03*
X177362Y181295D02*
D03*
X168078D02*
D03*
X164599Y177815D02*
D03*
X312268Y95138D02*
D03*
X315748Y98618D02*
D03*
X306464D02*
D03*
X302984Y95138D02*
D03*
X293697D02*
D03*
X297177Y98618D02*
D03*
X287894D02*
D03*
X284414Y95138D02*
D03*
X275130D02*
D03*
X278610Y98618D02*
D03*
X269326D02*
D03*
X265847Y95138D02*
D03*
X256559D02*
D03*
X260039Y98618D02*
D03*
X250756D02*
D03*
X247276Y95138D02*
D03*
X250724Y218417D02*
D03*
X247244Y214937D02*
D03*
X256528D02*
D03*
X260008Y218417D02*
D03*
X269295D02*
D03*
X265815Y214937D02*
D03*
X275099D02*
D03*
X278578Y218417D02*
D03*
X287862D02*
D03*
X284382Y214937D02*
D03*
X293666D02*
D03*
X297145Y218417D02*
D03*
X306433D02*
D03*
X302953Y214937D02*
D03*
X312236D02*
D03*
X315716Y218417D02*
D03*
X229591Y187095D02*
D03*
X233071Y190575D02*
D03*
X223787D02*
D03*
X220307Y187095D02*
D03*
X211020D02*
D03*
X214500Y190575D02*
D03*
X205216D02*
D03*
X201736Y187095D02*
D03*
X192453D02*
D03*
X195933Y190575D02*
D03*
X186649D02*
D03*
X183169Y187095D02*
D03*
X173882D02*
D03*
X177362Y190575D02*
D03*
X168078D02*
D03*
X164599Y187095D02*
D03*
X312268Y104418D02*
D03*
X315748Y107897D02*
D03*
X306464D02*
D03*
X302984Y104418D02*
D03*
X293697D02*
D03*
X297177Y107897D02*
D03*
X287894D02*
D03*
X284414Y104418D02*
D03*
X275130D02*
D03*
X278610Y107897D02*
D03*
X269326D02*
D03*
X265847Y104418D02*
D03*
X256559D02*
D03*
X260039Y107897D02*
D03*
X250756D02*
D03*
X247276Y104418D02*
D03*
X250724Y209138D02*
D03*
X247244Y205658D02*
D03*
X256528D02*
D03*
X260008Y209138D02*
D03*
X269295D02*
D03*
X265815Y205658D02*
D03*
X275099D02*
D03*
X278578Y209138D02*
D03*
X287862D02*
D03*
X284382Y205658D02*
D03*
X293666D02*
D03*
X297145Y209138D02*
D03*
X306433D02*
D03*
X302953Y205658D02*
D03*
X312236D02*
D03*
X315716Y209138D02*
D03*
X229591Y196374D02*
D03*
X233071Y199854D02*
D03*
X223787D02*
D03*
X220307Y196374D02*
D03*
X211020D02*
D03*
X214500Y199854D02*
D03*
X205216D02*
D03*
X201736Y196374D02*
D03*
X192453D02*
D03*
X195933Y199854D02*
D03*
X186649D02*
D03*
X183169Y196374D02*
D03*
X173882D02*
D03*
X177362Y199854D02*
D03*
X168078D02*
D03*
X164599Y196374D02*
D03*
X312268Y113697D02*
D03*
X315748Y117177D02*
D03*
X306464D02*
D03*
X302984Y113697D02*
D03*
X293697D02*
D03*
X297177Y117177D02*
D03*
X287894D02*
D03*
X284414Y113697D02*
D03*
X275130D02*
D03*
X278610Y117177D02*
D03*
X269326D02*
D03*
X265847Y113697D02*
D03*
X256559D02*
D03*
X260039Y117177D02*
D03*
X250756D02*
D03*
X247276Y113697D02*
D03*
X250724Y199854D02*
D03*
X247244Y196374D02*
D03*
X256528D02*
D03*
X260008Y199854D02*
D03*
X269295D02*
D03*
X265815Y196374D02*
D03*
X275099D02*
D03*
X278578Y199854D02*
D03*
X287862D02*
D03*
X284382Y196374D02*
D03*
X293666D02*
D03*
X297145Y199854D02*
D03*
X306433D02*
D03*
X302953Y196374D02*
D03*
X312236D02*
D03*
X315716Y199854D02*
D03*
X229591Y205658D02*
D03*
X233071Y209138D02*
D03*
X223787D02*
D03*
X220307Y205658D02*
D03*
X211020D02*
D03*
X214500Y209138D02*
D03*
X205216D02*
D03*
X201736Y205658D02*
D03*
X192453D02*
D03*
X195933Y209138D02*
D03*
X186649D02*
D03*
X183169Y205658D02*
D03*
X173882D02*
D03*
X177362Y209138D02*
D03*
X168078D02*
D03*
X164599Y205658D02*
D03*
X312268Y122980D02*
D03*
X315748Y126460D02*
D03*
X306464D02*
D03*
X302984Y122980D02*
D03*
X293697D02*
D03*
X297177Y126460D02*
D03*
X287894D02*
D03*
X284414Y122980D02*
D03*
X275130D02*
D03*
X278610Y126460D02*
D03*
X269326D02*
D03*
X265847Y122980D02*
D03*
X256559D02*
D03*
X260039Y126460D02*
D03*
X250756D02*
D03*
X247276Y122980D02*
D03*
X250724Y190575D02*
D03*
X247244Y187095D02*
D03*
X256528D02*
D03*
X260008Y190575D02*
D03*
X269295D02*
D03*
X265815Y187095D02*
D03*
X275099D02*
D03*
X278578Y190575D02*
D03*
X287862D02*
D03*
X284382Y187095D02*
D03*
X293666D02*
D03*
X297145Y190575D02*
D03*
X306433D02*
D03*
X302953Y187095D02*
D03*
X312236D02*
D03*
X315716Y190575D02*
D03*
X229591Y214937D02*
D03*
X233071Y218417D02*
D03*
X223787D02*
D03*
X220307Y214937D02*
D03*
X211020D02*
D03*
X214500Y218417D02*
D03*
X205216D02*
D03*
X201736Y214937D02*
D03*
X192453D02*
D03*
X195933Y218417D02*
D03*
X186649D02*
D03*
X183169Y214937D02*
D03*
X173882D02*
D03*
X177362Y218417D02*
D03*
X168078D02*
D03*
X164599Y214937D02*
D03*
X312268Y132260D02*
D03*
X315748Y135740D02*
D03*
X306464D02*
D03*
X302984Y132260D02*
D03*
X293697D02*
D03*
X297177Y135740D02*
D03*
X287894D02*
D03*
X284414Y132260D02*
D03*
X275130D02*
D03*
X278610Y135740D02*
D03*
X269326D02*
D03*
X265847Y132260D02*
D03*
X256559D02*
D03*
X260039Y135740D02*
D03*
X250756D02*
D03*
X247276Y132260D02*
D03*
X250724Y181295D02*
D03*
X247244Y177815D02*
D03*
X256528D02*
D03*
X260008Y181295D02*
D03*
X269295D02*
D03*
X265815Y177815D02*
D03*
X275099D02*
D03*
X278578Y181295D02*
D03*
X287862D02*
D03*
X284382Y177815D02*
D03*
X293666D02*
D03*
X297145Y181295D02*
D03*
X306433D02*
D03*
X302953Y177815D02*
D03*
X312236D02*
D03*
X315716Y181295D02*
D03*
X229591Y224217D02*
D03*
X233071Y227697D02*
D03*
X223787D02*
D03*
X220307Y224217D02*
D03*
X211020D02*
D03*
X214500Y227697D02*
D03*
X205216D02*
D03*
X201736Y224217D02*
D03*
X192453D02*
D03*
X195933Y227697D02*
D03*
X186649D02*
D03*
X183169Y224217D02*
D03*
X173882D02*
D03*
X177362Y227697D02*
D03*
X168078D02*
D03*
X164599Y224217D02*
D03*
X312268Y141540D02*
D03*
X315748Y145019D02*
D03*
X306464D02*
D03*
X302984Y141540D02*
D03*
X293697D02*
D03*
X297177Y145019D02*
D03*
X287894D02*
D03*
X284414Y141540D02*
D03*
X275130D02*
D03*
X278610Y145019D02*
D03*
X269326D02*
D03*
X265847Y141540D02*
D03*
X256559D02*
D03*
X260039Y145019D02*
D03*
X250756D02*
D03*
X247276Y141540D02*
D03*
X250724Y172016D02*
D03*
X247244Y168536D02*
D03*
X256453D02*
D03*
X259933Y172016D02*
D03*
X269232D02*
D03*
X265752Y168536D02*
D03*
X275047D02*
D03*
X278527Y172016D02*
D03*
X287823D02*
D03*
X284343Y168536D02*
D03*
X293642D02*
D03*
X297122Y172016D02*
D03*
X306417D02*
D03*
X302937Y168536D02*
D03*
X312236D02*
D03*
X315716Y172016D02*
D03*
X229591Y233496D02*
D03*
X233071Y236976D02*
D03*
X223862D02*
D03*
X220382Y233496D02*
D03*
X211083D02*
D03*
X214563Y236976D02*
D03*
X205268D02*
D03*
X201788Y233496D02*
D03*
X192492D02*
D03*
X195972Y236976D02*
D03*
X186673D02*
D03*
X183193Y233496D02*
D03*
X173898D02*
D03*
X177378Y236976D02*
D03*
X168078D02*
D03*
X164599Y233496D02*
D03*
X312268Y150819D02*
D03*
X315748Y154299D02*
D03*
X306539D02*
D03*
X303059Y150819D02*
D03*
X293760D02*
D03*
X297240Y154299D02*
D03*
X287945D02*
D03*
X284465Y150819D02*
D03*
X275169D02*
D03*
X278649Y154299D02*
D03*
X269350D02*
D03*
X265870Y150819D02*
D03*
X256575D02*
D03*
X260055Y154299D02*
D03*
X250756D02*
D03*
X247276Y150819D02*
D03*
D40*
X209055Y388189D02*
D03*
Y395276D02*
D03*
X216142Y388189D02*
D03*
Y395276D02*
D03*
D41*
X217520Y371772D02*
D03*
X211890D02*
D03*
D42*
X228228Y358937D02*
D03*
X228228Y353937D02*
D03*
X223228Y358937D02*
D03*
Y353937D02*
D03*
X218228Y358937D02*
D03*
X218228Y353937D02*
D03*
D43*
X227500Y366063D02*
D03*
Y377480D02*
D03*
D44*
X233405Y371772D02*
D03*
X221595D02*
D03*
D50*
X125000Y174213D02*
D03*
X107283D02*
D03*
X83661Y229134D02*
D03*
X302756Y276772D02*
D03*
X166142Y374803D02*
D03*
Y362598D02*
D03*
X148622Y174213D02*
D03*
X83661Y174213D02*
D03*
X148622Y186024D02*
D03*
X83661Y186024D02*
D03*
X166142Y350394D02*
D03*
X148622Y198031D02*
D03*
X198819Y331496D02*
D03*
X83661Y201969D02*
D03*
Y239173D02*
D03*
X312598Y276772D02*
D03*
X177559Y128347D02*
D03*
X167717D02*
D03*
D51*
X107283Y174213D02*
D03*
X125000D02*
D03*
X83661Y229134D02*
D03*
X302756Y276772D02*
D03*
X166142Y374803D02*
D03*
Y362598D02*
D03*
X148622Y174213D02*
D03*
X83661Y174213D02*
D03*
X148622Y186024D02*
D03*
X83661Y186024D02*
D03*
X166142Y350394D02*
D03*
X148622Y198031D02*
D03*
X198819Y331496D02*
D03*
X83661Y201969D02*
D03*
Y239173D02*
D03*
X312598Y276772D02*
D03*
X177559Y128347D02*
D03*
X167717D02*
D03*
D52*
X122835Y171850D02*
D03*
X105118D02*
D03*
D53*
X196791Y379252D02*
D03*
Y374528D02*
D03*
Y369803D02*
D03*
X192067D02*
D03*
X187343D02*
D03*
Y374528D02*
D03*
Y379252D02*
D03*
X192067D02*
D03*
Y374528D02*
D03*
D62*
X149606Y157480D02*
D03*
X311024Y334646D02*
D03*
X90551Y90551D02*
D03*
X251969Y393701D02*
D03*
D63*
X374016Y66929D02*
D03*
X374016Y421260D02*
D03*
X19685D02*
D03*
X19685Y66929D02*
D03*
M02*
