G04*
G04 #@! TF.GenerationSoftware,Altium Limited,Altium Designer,20.1.11 (218)*
G04*
G04 Layer_Color=128*
%FSLAX25Y25*%
%MOIN*%
G70*
G04*
G04 #@! TF.SameCoordinates,46BD3A0D-DB86-42CC-8E7D-09D2F19248DD*
G04*
G04*
G04 #@! TF.FilePolarity,Positive*
G04*
G01*
G75*
%ADD11C,0.01968*%
D11*
X444776Y84895D02*
Y65216D01*
X454615D01*
X457895Y68496D01*
Y71776D01*
X454615Y75056D01*
X444776D01*
X454615D01*
X457895Y78336D01*
Y81615D01*
X454615Y84895D01*
X444776D01*
X467734Y65216D02*
X474294D01*
X477573Y68496D01*
Y75056D01*
X474294Y78336D01*
X467734D01*
X464454Y75056D01*
Y68496D01*
X467734Y65216D01*
X487413Y81615D02*
Y78336D01*
X484133D01*
X490693D01*
X487413D01*
Y68496D01*
X490693Y65216D01*
X503812Y81615D02*
Y78336D01*
X500532D01*
X507091D01*
X503812D01*
Y68496D01*
X507091Y65216D01*
X520211D02*
X526770D01*
X530050Y68496D01*
Y75056D01*
X526770Y78336D01*
X520211D01*
X516931Y75056D01*
Y68496D01*
X520211Y65216D01*
X536609D02*
Y78336D01*
X539889D01*
X543169Y75056D01*
Y65216D01*
Y75056D01*
X546449Y78336D01*
X549728Y75056D01*
Y65216D01*
X575967D02*
Y84895D01*
X585806D01*
X589086Y81615D01*
Y75056D01*
X585806Y71776D01*
X575967D01*
X598925Y78336D02*
X605485D01*
X608765Y75056D01*
Y65216D01*
X598925D01*
X595646Y68496D01*
X598925Y71776D01*
X608765D01*
X615324Y65216D02*
X625164D01*
X628443Y68496D01*
X625164Y71776D01*
X618604D01*
X615324Y75056D01*
X618604Y78336D01*
X628443D01*
X638283Y81615D02*
Y78336D01*
X635003D01*
X641562D01*
X638283D01*
Y68496D01*
X641562Y65216D01*
X661241D02*
X654681D01*
X651402Y68496D01*
Y75056D01*
X654681Y78336D01*
X661241D01*
X664521Y75056D01*
Y71776D01*
X651402D01*
X697319Y65216D02*
X690759Y71776D01*
Y78336D01*
X697319Y84895D01*
X716997Y65216D02*
X710438D01*
X707158Y68496D01*
Y75056D01*
X710438Y78336D01*
X716997D01*
X720277Y75056D01*
Y71776D01*
X707158D01*
X726837Y65216D02*
Y78336D01*
X730116D01*
X733396Y75056D01*
Y65216D01*
Y75056D01*
X736676Y78336D01*
X739956Y75056D01*
Y65216D01*
X746515Y58657D02*
Y78336D01*
X756355D01*
X759634Y75056D01*
Y68496D01*
X756355Y65216D01*
X746515D01*
X769474Y81615D02*
Y78336D01*
X766194D01*
X772754D01*
X769474D01*
Y68496D01*
X772754Y65216D01*
X782593Y78336D02*
Y68496D01*
X785873Y65216D01*
X795712D01*
Y61937D01*
X792432Y58657D01*
X789152D01*
X795712Y65216D02*
Y78336D01*
X802272Y65216D02*
X808831Y71776D01*
Y78336D01*
X802272Y84895D01*
M02*
