G04*
G04 #@! TF.GenerationSoftware,Altium Limited,Altium Designer,20.1.11 (218)*
G04*
G04 Layer_Color=16711935*
%FSLAX25Y25*%
%MOIN*%
G70*
G04*
G04 #@! TF.SameCoordinates,46BD3A0D-DB86-42CC-8E7D-09D2F19248DD*
G04*
G04*
G04 #@! TF.FilePolarity,Negative*
G04*
G01*
G75*
%ADD11C,0.01968*%
%ADD63C,0.07874*%
D11*
X444776Y153137D02*
Y133458D01*
X454615D01*
X457895Y136738D01*
Y140018D01*
X454615Y143297D01*
X444776D01*
X454615D01*
X457895Y146577D01*
Y149857D01*
X454615Y153137D01*
X444776D01*
X467734Y133458D02*
X474294D01*
X477573Y136738D01*
Y143297D01*
X474294Y146577D01*
X467734D01*
X464454Y143297D01*
Y136738D01*
X467734Y133458D01*
X487413Y149857D02*
Y146577D01*
X484133D01*
X490693D01*
X487413D01*
Y136738D01*
X490693Y133458D01*
X503812Y149857D02*
Y146577D01*
X500532D01*
X507091D01*
X503812D01*
Y136738D01*
X507091Y133458D01*
X520211D02*
X526770D01*
X530050Y136738D01*
Y143297D01*
X526770Y146577D01*
X520211D01*
X516931Y143297D01*
Y136738D01*
X520211Y133458D01*
X536609D02*
Y146577D01*
X539889D01*
X543169Y143297D01*
Y133458D01*
Y143297D01*
X546449Y146577D01*
X549728Y143297D01*
Y133458D01*
X589086Y149857D02*
X585806Y153137D01*
X579247D01*
X575967Y149857D01*
Y146577D01*
X579247Y143297D01*
X585806D01*
X589086Y140018D01*
Y136738D01*
X585806Y133458D01*
X579247D01*
X575967Y136738D01*
X598925Y133458D02*
X605485D01*
X608765Y136738D01*
Y143297D01*
X605485Y146577D01*
X598925D01*
X595646Y143297D01*
Y136738D01*
X598925Y133458D01*
X615324D02*
X621884D01*
X618604D01*
Y153137D01*
X615324D01*
X644842D02*
Y133458D01*
X635003D01*
X631723Y136738D01*
Y143297D01*
X635003Y146577D01*
X644842D01*
X661241Y133458D02*
X654681D01*
X651402Y136738D01*
Y143297D01*
X654681Y146577D01*
X661241D01*
X664521Y143297D01*
Y140018D01*
X651402D01*
X671080Y146577D02*
Y133458D01*
Y140018D01*
X674360Y143297D01*
X677640Y146577D01*
X680920D01*
X716997Y133458D02*
X710438Y140018D01*
Y146577D01*
X716997Y153137D01*
X736676Y133458D02*
X730116D01*
X726837Y136738D01*
Y143297D01*
X730116Y146577D01*
X736676D01*
X739956Y143297D01*
Y140018D01*
X726837D01*
X746515Y133458D02*
Y146577D01*
X749795D01*
X753075Y143297D01*
Y133458D01*
Y143297D01*
X756355Y146577D01*
X759634Y143297D01*
Y133458D01*
X766194Y126898D02*
Y146577D01*
X776033D01*
X779313Y143297D01*
Y136738D01*
X776033Y133458D01*
X766194D01*
X789152Y149857D02*
Y146577D01*
X785873D01*
X792432D01*
X789152D01*
Y136738D01*
X792432Y133458D01*
X802272Y146577D02*
Y136738D01*
X805551Y133458D01*
X815391D01*
Y130178D01*
X812111Y126898D01*
X808831D01*
X815391Y133458D02*
Y146577D01*
X821950Y133458D02*
X828510Y140018D01*
Y146577D01*
X821950Y153137D01*
D63*
X374016Y66929D02*
D03*
X374016Y421260D02*
D03*
X19685D02*
D03*
X19685Y66929D02*
D03*
M02*
