G04*
G04 #@! TF.GenerationSoftware,Altium Limited,Altium Designer,20.1.12 (249)*
G04*
G04 Layer_Color=32896*
%FSLAX25Y25*%
%MOIN*%
G70*
G04*
G04 #@! TF.SameCoordinates,10A71D64-1B4C-4714-A74F-2103D96C3F9B*
G04*
G04*
G04 #@! TF.FilePolarity,Positive*
G04*
G01*
G75*
%ADD11C,0.01968*%
D11*
X457895Y115736D02*
X454615Y119016D01*
X448055D01*
X444776Y115736D01*
Y112456D01*
X448055Y109177D01*
X454615D01*
X457895Y105897D01*
Y102617D01*
X454615Y99337D01*
X448055D01*
X444776Y102617D01*
X464454Y99337D02*
X471014D01*
X467734D01*
Y112456D01*
X464454D01*
X480853Y99337D02*
X487413D01*
X484133D01*
Y119016D01*
X480853D01*
X497252Y99337D02*
Y119016D01*
Y105897D02*
X507091Y112456D01*
X497252Y105897D02*
X507091Y99337D01*
X516931D02*
X526770D01*
X530050Y102617D01*
X526770Y105897D01*
X520211D01*
X516931Y109177D01*
X520211Y112456D01*
X530050D01*
X549728D02*
X539889D01*
X536609Y109177D01*
Y102617D01*
X539889Y99337D01*
X549728D01*
X556288Y112456D02*
Y99337D01*
Y105897D01*
X559568Y109177D01*
X562848Y112456D01*
X566127D01*
X585806Y99337D02*
X579247D01*
X575967Y102617D01*
Y109177D01*
X579247Y112456D01*
X585806D01*
X589086Y109177D01*
Y105897D01*
X575967D01*
X605485Y99337D02*
X598925D01*
X595646Y102617D01*
Y109177D01*
X598925Y112456D01*
X605485D01*
X608765Y109177D01*
Y105897D01*
X595646D01*
X615324Y99337D02*
Y112456D01*
X625164D01*
X628443Y109177D01*
Y99337D01*
X654681Y119016D02*
Y99337D01*
X664521D01*
X667801Y102617D01*
Y105897D01*
X664521Y109177D01*
X654681D01*
X664521D01*
X667801Y112456D01*
Y115736D01*
X664521Y119016D01*
X654681D01*
X677640Y99337D02*
X684199D01*
X687479Y102617D01*
Y109177D01*
X684199Y112456D01*
X677640D01*
X674360Y109177D01*
Y102617D01*
X677640Y99337D01*
X697319Y115736D02*
Y112456D01*
X694039D01*
X700598D01*
X697319D01*
Y102617D01*
X700598Y99337D01*
X713718Y115736D02*
Y112456D01*
X710438D01*
X716997D01*
X713718D01*
Y102617D01*
X716997Y99337D01*
X730116D02*
X736676D01*
X739956Y102617D01*
Y109177D01*
X736676Y112456D01*
X730116D01*
X726837Y109177D01*
Y102617D01*
X730116Y99337D01*
X746515D02*
Y112456D01*
X749795D01*
X753075Y109177D01*
Y99337D01*
Y109177D01*
X756355Y112456D01*
X759634Y109177D01*
Y99337D01*
X792432D02*
X785873Y105897D01*
Y112456D01*
X792432Y119016D01*
X812111Y99337D02*
X805551D01*
X802272Y102617D01*
Y109177D01*
X805551Y112456D01*
X812111D01*
X815391Y109177D01*
Y105897D01*
X802272D01*
X821950Y99337D02*
Y112456D01*
X825230D01*
X828510Y109177D01*
Y99337D01*
Y109177D01*
X831790Y112456D01*
X835069Y109177D01*
Y99337D01*
X841629Y92778D02*
Y112456D01*
X851468D01*
X854748Y109177D01*
Y102617D01*
X851468Y99337D01*
X841629D01*
X864587Y115736D02*
Y112456D01*
X861308D01*
X867867D01*
X864587D01*
Y102617D01*
X867867Y99337D01*
X877707Y112456D02*
Y102617D01*
X880986Y99337D01*
X890826D01*
Y96057D01*
X887546Y92778D01*
X884266D01*
X890826Y99337D02*
Y112456D01*
X897385Y99337D02*
X903945Y105897D01*
Y112456D01*
X897385Y119016D01*
M02*
