G04*
G04 #@! TF.GenerationSoftware,Altium Limited,Altium Designer,20.1.11 (218)*
G04*
G04 Layer_Color=16711935*
%FSLAX25Y25*%
%MOIN*%
G70*
G04*
G04 #@! TF.SameCoordinates,BC695F09-BB28-4D9F-8763-E19565E056B6*
G04*
G04*
G04 #@! TF.FilePolarity,Negative*
G04*
G01*
G75*
%ADD11C,0.01968*%
%ADD52R,0.05906X0.05906*%
%ADD60C,0.07874*%
D11*
X413279Y117704D02*
Y98025D01*
X423119D01*
X426399Y101305D01*
Y104585D01*
X423119Y107864D01*
X413279D01*
X423119D01*
X426399Y111144D01*
Y114424D01*
X423119Y117704D01*
X413279D01*
X436238Y98025D02*
X442798D01*
X446077Y101305D01*
Y107864D01*
X442798Y111144D01*
X436238D01*
X432958Y107864D01*
Y101305D01*
X436238Y98025D01*
X455917Y114424D02*
Y111144D01*
X452637D01*
X459196D01*
X455917D01*
Y101305D01*
X459196Y98025D01*
X472316Y114424D02*
Y111144D01*
X469036D01*
X475595D01*
X472316D01*
Y101305D01*
X475595Y98025D01*
X488715D02*
X495274D01*
X498554Y101305D01*
Y107864D01*
X495274Y111144D01*
X488715D01*
X485435Y107864D01*
Y101305D01*
X488715Y98025D01*
X505113D02*
Y111144D01*
X508393D01*
X511673Y107864D01*
Y98025D01*
Y107864D01*
X514953Y111144D01*
X518232Y107864D01*
Y98025D01*
X557590Y114424D02*
X554310Y117704D01*
X547751D01*
X544471Y114424D01*
Y111144D01*
X547751Y107864D01*
X554310D01*
X557590Y104585D01*
Y101305D01*
X554310Y98025D01*
X547751D01*
X544471Y101305D01*
X567429Y98025D02*
X573989D01*
X577269Y101305D01*
Y107864D01*
X573989Y111144D01*
X567429D01*
X564149Y107864D01*
Y101305D01*
X567429Y98025D01*
X583828D02*
X590388D01*
X587108D01*
Y117704D01*
X583828D01*
X613346D02*
Y98025D01*
X603507D01*
X600227Y101305D01*
Y107864D01*
X603507Y111144D01*
X613346D01*
X629745Y98025D02*
X623185D01*
X619906Y101305D01*
Y107864D01*
X623185Y111144D01*
X629745D01*
X633025Y107864D01*
Y104585D01*
X619906D01*
X639584Y111144D02*
Y98025D01*
Y104585D01*
X642864Y107864D01*
X646144Y111144D01*
X649424D01*
D52*
X97047Y150591D02*
D03*
D60*
X374016Y19685D02*
D03*
X374016Y374016D02*
D03*
X19685D02*
D03*
X19685Y19685D02*
D03*
M02*
