G04*
G04 #@! TF.GenerationSoftware,Altium Limited,Altium Designer,20.1.11 (218)*
G04*
G04 Layer_Color=32768*
%FSLAX25Y25*%
%MOIN*%
G70*
G04*
G04 #@! TF.SameCoordinates,46BD3A0D-DB86-42CC-8E7D-09D2F19248DD*
G04*
G04*
G04 #@! TF.FilePolarity,Positive*
G04*
G01*
G75*
%ADD11C,0.01968*%
%ADD64C,0.03937*%
%ADD65C,0.03937*%
D11*
X444776Y375669D02*
X451335D01*
X448055D01*
Y395348D01*
X444776Y392068D01*
X461174Y375669D02*
Y388788D01*
X464454D01*
X467734Y385509D01*
Y375669D01*
Y385509D01*
X471014Y388788D01*
X474294Y385509D01*
Y375669D01*
X480853D02*
Y388788D01*
X484133D01*
X487413Y385509D01*
Y375669D01*
Y385509D01*
X490693Y388788D01*
X493972Y385509D01*
Y375669D01*
X520211Y388788D02*
Y375669D01*
Y382229D01*
X523490Y385509D01*
X526770Y388788D01*
X530050D01*
X543169Y375669D02*
X549728D01*
X553008Y378949D01*
Y385509D01*
X549728Y388788D01*
X543169D01*
X539889Y385509D01*
Y378949D01*
X543169Y375669D01*
X559568Y388788D02*
Y378949D01*
X562848Y375669D01*
X572687D01*
Y388788D01*
X582526Y392068D02*
Y388788D01*
X579247D01*
X585806D01*
X582526D01*
Y378949D01*
X585806Y375669D01*
X605485D02*
X598925D01*
X595646Y378949D01*
Y385509D01*
X598925Y388788D01*
X605485D01*
X608765Y385509D01*
Y382229D01*
X595646D01*
X615324Y388788D02*
Y375669D01*
Y382229D01*
X618604Y385509D01*
X621884Y388788D01*
X625164D01*
X654681Y395348D02*
X667801D01*
X661241D01*
Y375669D01*
X677640D02*
X684199D01*
X687479Y378949D01*
Y385509D01*
X684199Y388788D01*
X677640D01*
X674360Y385509D01*
Y378949D01*
X677640Y375669D01*
X697319D02*
X703878D01*
X707158Y378949D01*
Y385509D01*
X703878Y388788D01*
X697319D01*
X694039Y385509D01*
Y378949D01*
X697319Y375669D01*
X713718D02*
X720277D01*
X716997D01*
Y395348D01*
X713718D01*
X730116Y369110D02*
Y388788D01*
X739956D01*
X743236Y385509D01*
Y378949D01*
X739956Y375669D01*
X730116D01*
X753075Y388788D02*
X759634D01*
X762914Y385509D01*
Y375669D01*
X753075D01*
X749795Y378949D01*
X753075Y382229D01*
X762914D01*
X772754Y392068D02*
Y388788D01*
X769474D01*
X776033D01*
X772754D01*
Y378949D01*
X776033Y375669D01*
X785873Y395348D02*
Y375669D01*
Y385509D01*
X789152Y388788D01*
X795712D01*
X798992Y385509D01*
Y375669D01*
D64*
X320866Y318898D02*
G03*
X318898Y320866I-1969J0D01*
G01*
X320866Y318898D02*
G03*
X318898Y320866I-1969J0D01*
G01*
X318917Y242126D02*
G03*
X320866Y244094I-19J1969D01*
G01*
X244094Y320866D02*
G03*
X242126Y318898I0J-1969D01*
G01*
X244094Y320866D02*
G03*
X242126Y318898I0J-1969D01*
G01*
Y244094D02*
G03*
X244075Y242126I1969J0D01*
G01*
X242126Y244094D02*
G03*
X244075Y242126I1969J0D01*
G01*
X318917D02*
G03*
X320866Y244094I-19J1969D01*
G01*
Y240158D02*
G03*
X318917Y242126I-1969J0D01*
G01*
X320866Y240158D02*
G03*
X318917Y242126I-1969J0D01*
G01*
X244075D02*
G03*
X242126Y240158I19J-1969D01*
G01*
X244075Y242126D02*
G03*
X242126Y240158I19J-1969D01*
G01*
X238189Y401575D02*
G03*
X236221Y403543I-1969J0D01*
G01*
X238189Y401575D02*
G03*
X236221Y403543I-1969J0D01*
G01*
X236240Y324803D02*
G03*
X238189Y326772I-19J1969D01*
G01*
X236240Y324803D02*
G03*
X238189Y326772I-19J1969D01*
G01*
X238189Y322835D02*
G03*
X236240Y324803I-1969J0D01*
G01*
X238189Y322835D02*
G03*
X236240Y324803I-1969J0D01*
G01*
X236221Y246063D02*
G03*
X238189Y248031I0J1969D01*
G01*
X236221Y246063D02*
G03*
X238189Y248031I0J1969D01*
G01*
Y240158D02*
G03*
X236221Y242126I-1969J0D01*
G01*
X238189Y240158D02*
G03*
X236221Y242126I-1969J0D01*
G01*
X318898Y163386D02*
G03*
X320866Y165354I0J1969D01*
G01*
X318898Y163386D02*
G03*
X320866Y165354I0J1969D01*
G01*
X242126D02*
G03*
X244094Y163386I1969J0D01*
G01*
X320866Y157480D02*
G03*
X318898Y159449I-1969J0D01*
G01*
X320866Y157480D02*
G03*
X318898Y159449I-1969J0D01*
G01*
Y80709D02*
G03*
X320866Y82677I0J1969D01*
G01*
X318898Y80709D02*
G03*
X320866Y82677I0J1969D01*
G01*
X244094Y159449D02*
G03*
X242126Y157480I0J-1969D01*
G01*
Y82677D02*
G03*
X244094Y80709I1969J0D01*
G01*
X242126Y165354D02*
G03*
X244094Y163386I1969J0D01*
G01*
X238189Y165354D02*
G03*
X238189Y165361I-1969J0D01*
G01*
X237613Y163962D02*
G03*
X238189Y165354I-1392J1392D01*
G01*
X236240Y163386D02*
G03*
X237613Y163962I-19J1969D01*
G01*
X238189Y165354D02*
G03*
X238189Y165361I-1969J0D01*
G01*
X236240Y163386D02*
G03*
X237613Y163962I-20J1969D01*
G01*
X237613Y163962D02*
G03*
X238189Y165354I-1392J1392D01*
G01*
X244094Y159449D02*
G03*
X242126Y157480I0J-1969D01*
G01*
X238189Y161417D02*
G03*
X236240Y163386I-1969J0D01*
G01*
X236221Y84646D02*
G03*
X238189Y86614I0J1969D01*
G01*
X242126Y82677D02*
G03*
X244094Y80709I1969J0D01*
G01*
X238189Y161417D02*
G03*
X236240Y163386I-1969J0D01*
G01*
X237613Y163962D02*
G03*
X238189Y165354I-1392J1392D01*
G01*
X236240Y163386D02*
G03*
X237613Y163962I-20J1969D01*
G01*
X236221Y84646D02*
G03*
X238189Y86614I0J1969D01*
G01*
X161417Y403543D02*
G03*
X159449Y401575I0J-1969D01*
G01*
X155512Y405512D02*
G03*
X153543Y407480I-1969J0D01*
G01*
X161417Y403543D02*
G03*
X159449Y401575I0J-1969D01*
G01*
X155512Y405512D02*
G03*
X153543Y407480I-1969J0D01*
G01*
X159449Y326772D02*
G03*
X161398Y324803I1969J0D01*
G01*
X159449Y326772D02*
G03*
X161398Y324803I1969J0D01*
G01*
D02*
G03*
X159449Y322835I19J-1969D01*
G01*
X153543Y328740D02*
G03*
X155512Y330709I0J1969D01*
G01*
X153543Y328740D02*
G03*
X155512Y330709I0J1969D01*
G01*
X161398Y324803D02*
G03*
X159449Y322835I19J-1969D01*
G01*
X155512D02*
G03*
X153543Y324803I-1969J0D01*
G01*
X78740Y407480D02*
G03*
X76772Y405512I0J-1969D01*
G01*
X78740Y407480D02*
G03*
X76772Y405512I0J-1969D01*
G01*
Y330709D02*
G03*
X78740Y328740I1969J0D01*
G01*
X76772Y330709D02*
G03*
X78740Y328740I1969J0D01*
G01*
X155512Y322835D02*
G03*
X153543Y324803I-1969J0D01*
G01*
X78740D02*
G03*
X76772Y322835I0J-1969D01*
G01*
X78740Y324803D02*
G03*
X76772Y322835I0J-1969D01*
G01*
X159449Y248031D02*
G03*
X161417Y246063I1969J0D01*
G01*
Y242126D02*
G03*
X159449Y240158I0J-1969D01*
G01*
Y248031D02*
G03*
X161417Y246063I1969J0D01*
G01*
X155512Y244094D02*
G03*
X153562Y246063I-1969J0D01*
G01*
X159449Y165354D02*
G03*
X161398Y163386I1969J0D01*
G01*
X161417Y242126D02*
G03*
X159449Y240158I0J-1969D01*
G01*
X161398Y163386D02*
G03*
X159449Y161417I20J-1969D01*
G01*
X159449Y165354D02*
G03*
X161398Y163386I1969J0D01*
G01*
X159449Y165354D02*
G03*
X161398Y163386I1969J0D01*
G01*
D02*
G03*
X159449Y161417I20J-1969D01*
G01*
Y86614D02*
G03*
X161417Y84646I1969J0D01*
G01*
X159449Y86614D02*
G03*
X161417Y84646I1969J0D01*
G01*
X153562Y246063D02*
G03*
X155512Y248031I-19J1969D01*
G01*
X153562Y246063D02*
G03*
X155512Y248031I-19J1969D01*
G01*
Y244094D02*
G03*
X153562Y246063I-1969J0D01*
G01*
X76772Y248031D02*
G03*
X78721Y246063I1969J0D01*
G01*
X76772Y248031D02*
G03*
X78721Y246063I1969J0D01*
G01*
X153543Y167323D02*
G03*
X155512Y169291I0J1969D01*
G01*
X153543Y167323D02*
G03*
X155512Y169291I0J1969D01*
G01*
X78721Y246063D02*
G03*
X76772Y244094I19J-1969D01*
G01*
X78721Y246063D02*
G03*
X76772Y244094I19J-1969D01*
G01*
Y169291D02*
G03*
X78740Y167323I1969J0D01*
G01*
X76772Y169291D02*
G03*
X78740Y167323I1969J0D01*
G01*
X151575Y246063D02*
X153562Y246063D01*
X78721D02*
X80709Y246063D01*
X234252Y324803D02*
X236240D01*
X161398Y324803D02*
X163386Y324803D01*
X161398Y163386D02*
X163386D01*
X234252D02*
X236240Y163386D01*
X244075Y242126D02*
X246063Y242126D01*
X316929D02*
X318917D01*
X244094Y320866D02*
X318898D01*
X238189Y326772D02*
Y401575D01*
X238189Y248031D02*
Y322835D01*
X242126Y244094D02*
Y318898D01*
X234252Y242126D02*
Y246063D01*
X238189Y238189D02*
X242126D01*
X238189D02*
Y240158D01*
X234252Y246063D02*
X236221D01*
X234252Y242126D02*
X236221D01*
X316929Y159449D02*
Y163386D01*
X318898D01*
X244094D02*
X246063D01*
X316929Y159449D02*
X318898D01*
X244094D02*
X246063D01*
X238189Y167323D02*
X242126D01*
Y238189D02*
Y240158D01*
Y165354D02*
Y167323D01*
X238189Y165361D02*
Y167323D01*
Y165354D02*
Y165361D01*
X246063Y159449D02*
Y163386D01*
X237613Y163962D02*
X237613Y163962D01*
X242126Y82677D02*
Y157480D01*
X238189Y86614D02*
Y161417D01*
X161417Y403543D02*
X236221D01*
X159449Y326772D02*
Y401575D01*
X155512Y330709D02*
Y405512D01*
Y320866D02*
X159449D01*
Y322835D01*
X155512Y250000D02*
X159449D01*
X151575Y324803D02*
Y328740D01*
X78740D02*
X80709D01*
Y324803D02*
Y328740D01*
X155512Y320866D02*
Y322835D01*
X151575Y328740D02*
X153543D01*
X151575Y324803D02*
X153543D01*
X78740D02*
X80709D01*
X163386Y242126D02*
Y246063D01*
X161417Y242126D02*
X163386D01*
X161417Y246063D02*
X163386D01*
X159449Y248031D02*
Y250000D01*
Y165354D02*
Y240158D01*
X161417Y84646D02*
X236221D01*
X159449Y86614D02*
Y161417D01*
X155512Y248031D02*
Y250000D01*
Y169291D02*
Y244094D01*
X78740Y167323D02*
X153543D01*
D65*
X236240Y163386D02*
D03*
D03*
X161398Y163386D02*
D03*
D03*
M02*
