G04*
G04 #@! TF.GenerationSoftware,Altium Limited,Altium Designer,20.1.11 (218)*
G04*
G04 Layer_Physical_Order=2*
G04 Layer_Color=36540*
%FSLAX25Y25*%
%MOIN*%
G70*
G04*
G04 #@! TF.SameCoordinates,46BD3A0D-DB86-42CC-8E7D-09D2F19248DD*
G04*
G04*
G04 #@! TF.FilePolarity,Positive*
G04*
G01*
G75*
%ADD11C,0.01968*%
%ADD12C,0.00600*%
%ADD45C,0.00800*%
%ADD46C,0.01500*%
%ADD47C,0.01000*%
%ADD51R,0.07874X0.07874*%
%ADD52C,0.02559*%
%ADD53C,0.02400*%
%ADD54R,0.05906X0.05906*%
G36*
X235558Y362587D02*
X235058Y362437D01*
X234590Y362795D01*
X233933Y363068D01*
X233228Y363160D01*
X232523Y363068D01*
X231867Y362795D01*
X231303Y362363D01*
X230928Y361874D01*
X216878D01*
X215360Y363391D01*
X214996Y363635D01*
X214567Y363720D01*
X214567Y363720D01*
X211747D01*
X211591Y363953D01*
X210970Y364369D01*
X210236Y364515D01*
X209503Y364369D01*
X208881Y363953D01*
X208466Y363332D01*
X208320Y362598D01*
X208466Y361865D01*
X208881Y361243D01*
X209503Y360828D01*
X210236Y360682D01*
X210970Y360828D01*
X211591Y361243D01*
X211747Y361477D01*
X212410D01*
X212579Y361224D01*
Y359075D01*
X212524Y359068D01*
X211867Y358795D01*
X211303Y358363D01*
X210870Y357799D01*
X210598Y357142D01*
X210505Y356437D01*
X210598Y355732D01*
X210870Y355075D01*
X211303Y354511D01*
X211867Y354079D01*
X212524Y353806D01*
X212579Y353799D01*
Y351776D01*
X212769Y351316D01*
X213228Y351126D01*
X230849D01*
X230870Y351075D01*
X231303Y350511D01*
X231867Y350079D01*
X232523Y349806D01*
X233228Y349714D01*
X233933Y349806D01*
X234590Y350079D01*
X235058Y350437D01*
X235558Y350287D01*
Y327434D01*
X232283D01*
X232030Y327384D01*
X231815Y327240D01*
X231671Y327025D01*
X231621Y326772D01*
X203778D01*
X203356Y326959D01*
X203356Y327272D01*
Y336033D01*
X194282D01*
Y327272D01*
X194282Y326959D01*
X193860Y326772D01*
X166017D01*
X165967Y327025D01*
X165823Y327240D01*
X165608Y327384D01*
X165354Y327434D01*
X162080D01*
Y345857D01*
X170679D01*
Y354931D01*
X162080D01*
Y358061D01*
X170679D01*
Y367135D01*
X162080D01*
Y370266D01*
X170679D01*
Y379340D01*
X162080D01*
Y400912D01*
X235558D01*
Y362587D01*
D02*
G37*
G36*
X90713Y321579D02*
X90272Y321343D01*
X90103Y321456D01*
X89370Y321601D01*
X88637Y321456D01*
X88015Y321040D01*
X87859Y320807D01*
X86221D01*
X86221Y320807D01*
X85791Y320721D01*
X85427Y320478D01*
X83065Y318116D01*
X82822Y317752D01*
X82737Y317323D01*
X82737Y317323D01*
Y309618D01*
X82737Y309617D01*
X82822Y309188D01*
X83065Y308824D01*
X85934Y305956D01*
X85879Y305680D01*
X86025Y304947D01*
X86440Y304326D01*
X86674Y304170D01*
Y297912D01*
X86440Y297756D01*
X86025Y297134D01*
X85879Y296400D01*
X86025Y295667D01*
X86440Y295045D01*
X86674Y294889D01*
Y288631D01*
X86440Y288475D01*
X86025Y287854D01*
X85879Y287120D01*
X86025Y286387D01*
X86440Y285765D01*
X86674Y285609D01*
Y279351D01*
X86440Y279195D01*
X86025Y278574D01*
X85879Y277840D01*
X86025Y277107D01*
X86440Y276485D01*
X86674Y276329D01*
Y270071D01*
X86440Y269915D01*
X86025Y269293D01*
X85879Y268560D01*
X86025Y267827D01*
X86440Y267205D01*
X86674Y267049D01*
Y260791D01*
X86440Y260635D01*
X86025Y260014D01*
X85879Y259280D01*
X86025Y258547D01*
X86440Y257925D01*
X86674Y257769D01*
Y251511D01*
X86440Y251355D01*
X86025Y250733D01*
X85879Y250000D01*
X86025Y249267D01*
X86168Y249052D01*
X85780Y248733D01*
X82122Y252391D01*
Y318279D01*
X86548Y322704D01*
X86635Y322835D01*
X90713D01*
Y321579D01*
D02*
G37*
G36*
X104395Y322373D02*
X101248Y319225D01*
X101026Y318894D01*
X100949Y318504D01*
Y305251D01*
X101026Y304861D01*
X101248Y304530D01*
X102187Y303591D01*
Y302846D01*
X101725Y302655D01*
X98974Y305405D01*
X99029Y305680D01*
X98883Y306414D01*
X98468Y307036D01*
X98234Y307192D01*
Y313450D01*
X98468Y313606D01*
X98883Y314227D01*
X99029Y314961D01*
X98883Y315694D01*
X98468Y316316D01*
X97846Y316731D01*
X97113Y316877D01*
X96380Y316731D01*
X95758Y316316D01*
X95614Y316101D01*
X95114Y316252D01*
Y319656D01*
X98292Y322835D01*
X104204D01*
X104395Y322373D01*
D02*
G37*
G36*
X113844D02*
X110696Y319225D01*
X110475Y318894D01*
X110398Y318504D01*
Y294882D01*
X110436Y294688D01*
X109976Y294441D01*
X108292Y296125D01*
X108347Y296400D01*
X108201Y297134D01*
X107785Y297756D01*
X107552Y297912D01*
Y304170D01*
X107785Y304326D01*
X108201Y304947D01*
X108347Y305680D01*
X108201Y306414D01*
X107785Y307036D01*
X107552Y307192D01*
Y313450D01*
X107785Y313606D01*
X108201Y314227D01*
X108347Y314961D01*
X108201Y315694D01*
X107785Y316316D01*
X107164Y316731D01*
X106430Y316877D01*
X105697Y316731D01*
X105075Y316316D01*
X104660Y315694D01*
X104514Y314961D01*
X104660Y314227D01*
X105075Y313606D01*
X105309Y313450D01*
Y307192D01*
X105075Y307036D01*
X104660Y306414D01*
X104514Y305680D01*
X104660Y304947D01*
X105075Y304326D01*
X105309Y304170D01*
Y297912D01*
X105075Y297756D01*
X104726Y297232D01*
X104226Y297318D01*
Y304013D01*
X104148Y304404D01*
X103927Y304734D01*
X102988Y305673D01*
Y318082D01*
X107741Y322835D01*
X113653D01*
X113844Y322373D01*
D02*
G37*
G36*
X123687D02*
X119752Y318438D01*
X119530Y318107D01*
X119453Y317717D01*
Y285827D01*
X119482Y285679D01*
X119021Y285433D01*
X117610Y286845D01*
X117664Y287120D01*
X117518Y287854D01*
X117103Y288475D01*
X116870Y288631D01*
Y294889D01*
X117103Y295045D01*
X117518Y295667D01*
X117664Y296400D01*
X117518Y297134D01*
X117103Y297756D01*
X116870Y297912D01*
Y304170D01*
X117103Y304326D01*
X117518Y304947D01*
X117664Y305680D01*
X117518Y306414D01*
X117103Y307036D01*
X116870Y307192D01*
Y313450D01*
X117103Y313606D01*
X117518Y314227D01*
X117664Y314961D01*
X117518Y315694D01*
X117103Y316316D01*
X116481Y316731D01*
X115748Y316877D01*
X115015Y316731D01*
X114393Y316316D01*
X113978Y315694D01*
X113832Y314961D01*
X113978Y314227D01*
X114393Y313606D01*
X114626Y313450D01*
Y307192D01*
X114393Y307036D01*
X113978Y306414D01*
X113832Y305680D01*
X113978Y304947D01*
X114393Y304326D01*
X114626Y304170D01*
Y297912D01*
X114393Y297756D01*
X113978Y297134D01*
X113832Y296400D01*
X113978Y295667D01*
X114393Y295045D01*
X114626Y294889D01*
Y289143D01*
X114587Y289119D01*
X114087Y289396D01*
Y293231D01*
X114010Y293621D01*
X113789Y293952D01*
X112437Y295304D01*
Y318082D01*
X117190Y322835D01*
X123495D01*
X123687Y322373D01*
D02*
G37*
G36*
X132348D02*
X129200Y319225D01*
X128979Y318894D01*
X128902Y318504D01*
Y276772D01*
X128979Y276381D01*
X129200Y276051D01*
X130711Y274540D01*
X130701Y274498D01*
X130147Y274345D01*
X126927Y277565D01*
X126982Y277840D01*
X126836Y278574D01*
X126421Y279195D01*
X126187Y279351D01*
Y285609D01*
X126421Y285765D01*
X126836Y286387D01*
X126982Y287120D01*
X126836Y287854D01*
X126421Y288475D01*
X126187Y288631D01*
Y294889D01*
X126421Y295045D01*
X126836Y295667D01*
X126982Y296400D01*
X126836Y297134D01*
X126421Y297756D01*
X126187Y297912D01*
Y304170D01*
X126421Y304326D01*
X126836Y304947D01*
X126982Y305680D01*
X126836Y306414D01*
X126421Y307036D01*
X126187Y307192D01*
Y313450D01*
X126421Y313606D01*
X126836Y314227D01*
X126982Y314961D01*
X126836Y315694D01*
X126421Y316316D01*
X125799Y316731D01*
X125066Y316877D01*
X124332Y316731D01*
X123711Y316316D01*
X123295Y315694D01*
X123149Y314961D01*
X123295Y314227D01*
X123711Y313606D01*
X123944Y313450D01*
Y307192D01*
X123711Y307036D01*
X123295Y306414D01*
X123149Y305680D01*
X123295Y304947D01*
X123711Y304326D01*
X123944Y304170D01*
Y297912D01*
X123711Y297756D01*
X123295Y297134D01*
X123149Y296400D01*
X123295Y295667D01*
X123711Y295045D01*
X123944Y294889D01*
Y288631D01*
X123711Y288475D01*
X123295Y287854D01*
X123149Y287120D01*
X123295Y286387D01*
X123711Y285765D01*
X123944Y285609D01*
Y279878D01*
X123915Y279860D01*
X123415Y280140D01*
Y283904D01*
X123338Y284294D01*
X123117Y284625D01*
X121492Y286249D01*
Y317294D01*
X127032Y322835D01*
X132157D01*
X132348Y322373D01*
D02*
G37*
G36*
X171422Y322335D02*
X171186Y322177D01*
X170770Y321555D01*
X170624Y320822D01*
X170770Y320088D01*
X171186Y319467D01*
X171419Y319311D01*
Y317814D01*
X171419Y317814D01*
X171504Y317385D01*
X171748Y317021D01*
X173189Y315579D01*
Y314665D01*
X173189Y314665D01*
X173275Y314236D01*
X173518Y313872D01*
X174863Y312528D01*
Y306899D01*
X174863Y306899D01*
X174948Y306470D01*
X175191Y306106D01*
X178716Y302581D01*
X178661Y302306D01*
X178807Y301573D01*
X179222Y300951D01*
X179456Y300795D01*
Y294537D01*
X179222Y294381D01*
X178807Y293759D01*
X178661Y293026D01*
X178807Y292292D01*
X179222Y291671D01*
X179456Y291515D01*
Y285257D01*
X179222Y285101D01*
X178807Y284479D01*
X178661Y283746D01*
X178807Y283012D01*
X179222Y282391D01*
X179456Y282235D01*
Y275977D01*
X179222Y275821D01*
X178807Y275199D01*
X178661Y274466D01*
X178807Y273732D01*
X179222Y273111D01*
X179844Y272695D01*
X180328Y272599D01*
Y269846D01*
X179828Y269579D01*
X179670Y269684D01*
X178937Y269830D01*
X178204Y269684D01*
X177582Y269268D01*
X177166Y268647D01*
X177021Y267913D01*
X177091Y267558D01*
X177041Y267483D01*
X176956Y267054D01*
X176956Y267054D01*
Y259373D01*
X176773Y259100D01*
X176627Y258366D01*
X176682Y258091D01*
X176471Y257880D01*
X176228Y257516D01*
X176142Y257087D01*
X176142Y257087D01*
Y250330D01*
X175909Y250174D01*
X175493Y249552D01*
X175347Y248819D01*
X175405Y248532D01*
X174994Y248031D01*
X172381D01*
Y254394D01*
X172615Y254551D01*
X173030Y255172D01*
X173176Y255906D01*
X173030Y256639D01*
X172615Y257261D01*
X172381Y257417D01*
Y263674D01*
X172615Y263830D01*
X173030Y264452D01*
X173176Y265186D01*
X173030Y265919D01*
X172615Y266541D01*
X172381Y266697D01*
Y272955D01*
X172615Y273111D01*
X173030Y273732D01*
X173176Y274466D01*
X173030Y275199D01*
X172615Y275821D01*
X172381Y275977D01*
Y282235D01*
X172615Y282391D01*
X173030Y283012D01*
X173176Y283746D01*
X173030Y284479D01*
X172615Y285101D01*
X172381Y285257D01*
Y291515D01*
X172615Y291671D01*
X173030Y292292D01*
X173176Y293026D01*
X173030Y293759D01*
X172615Y294381D01*
X172381Y294537D01*
Y300795D01*
X172615Y300951D01*
X173030Y301573D01*
X173176Y302306D01*
X173030Y303039D01*
X172615Y303661D01*
X172381Y303817D01*
Y310075D01*
X172615Y310231D01*
X173030Y310853D01*
X173176Y311586D01*
X173030Y312319D01*
X172615Y312941D01*
X171993Y313356D01*
X171260Y313502D01*
X170527Y313356D01*
X169905Y312941D01*
X169489Y312319D01*
X169343Y311586D01*
X169489Y310853D01*
X169905Y310231D01*
X170138Y310075D01*
Y303817D01*
X169905Y303661D01*
X169489Y303039D01*
X169343Y302306D01*
X169489Y301573D01*
X169905Y300951D01*
X170138Y300795D01*
Y294537D01*
X169905Y294381D01*
X169489Y293759D01*
X169343Y293026D01*
X169489Y292292D01*
X169905Y291671D01*
X170138Y291515D01*
Y285257D01*
X169905Y285101D01*
X169489Y284479D01*
X169343Y283746D01*
X169489Y283012D01*
X169905Y282391D01*
X170138Y282235D01*
Y275977D01*
X169905Y275821D01*
X169489Y275199D01*
X169343Y274466D01*
X169489Y273732D01*
X169905Y273111D01*
X170138Y272955D01*
Y266697D01*
X169905Y266541D01*
X169489Y265919D01*
X169343Y265186D01*
X169489Y264452D01*
X169905Y263830D01*
X170138Y263674D01*
Y257417D01*
X169905Y257261D01*
X169489Y256639D01*
X169343Y255906D01*
X169489Y255172D01*
X169905Y254551D01*
X170138Y254394D01*
Y248031D01*
X166017D01*
X165967Y248285D01*
X165823Y248500D01*
X165608Y248644D01*
X165354Y248694D01*
X162080D01*
Y251968D01*
X162080Y251969D01*
X162030Y252222D01*
X161886Y252437D01*
X161671Y252581D01*
X161417Y252631D01*
Y318235D01*
X161671Y318285D01*
X161886Y318429D01*
X162030Y318644D01*
X162080Y318898D01*
X162080Y318898D01*
Y322172D01*
X165354D01*
X165608Y322222D01*
X165823Y322366D01*
X165967Y322581D01*
X166017Y322835D01*
X171270D01*
X171422Y322335D01*
D02*
G37*
G36*
X141009Y322373D02*
X138649Y320012D01*
X138428Y319682D01*
X138350Y319291D01*
Y267717D01*
X138428Y267326D01*
X138649Y266996D01*
X139872Y265773D01*
X139824Y265349D01*
X139362Y265168D01*
X136245Y268285D01*
X136300Y268560D01*
X136154Y269293D01*
X135738Y269915D01*
X135505Y270071D01*
Y276329D01*
X135738Y276485D01*
X136154Y277107D01*
X136300Y277840D01*
X136154Y278574D01*
X135738Y279195D01*
X135505Y279351D01*
Y285609D01*
X135738Y285765D01*
X136154Y286387D01*
X136300Y287120D01*
X136154Y287854D01*
X135738Y288475D01*
X135505Y288631D01*
Y294889D01*
X135738Y295045D01*
X136154Y295667D01*
X136300Y296400D01*
X136154Y297134D01*
X135738Y297756D01*
X135505Y297912D01*
Y304170D01*
X135738Y304326D01*
X136154Y304947D01*
X136300Y305680D01*
X136154Y306414D01*
X135738Y307036D01*
X135505Y307192D01*
Y313450D01*
X135738Y313606D01*
X136154Y314227D01*
X136300Y314961D01*
X136154Y315694D01*
X135738Y316316D01*
X135117Y316731D01*
X134383Y316877D01*
X133650Y316731D01*
X133028Y316316D01*
X132613Y315694D01*
X132467Y314961D01*
X132613Y314227D01*
X133028Y313606D01*
X133262Y313450D01*
Y307192D01*
X133028Y307036D01*
X132613Y306414D01*
X132467Y305680D01*
X132613Y304947D01*
X133028Y304326D01*
X133262Y304170D01*
Y297912D01*
X133028Y297756D01*
X132613Y297134D01*
X132467Y296400D01*
X132613Y295667D01*
X133028Y295045D01*
X133262Y294889D01*
Y288631D01*
X133028Y288475D01*
X132613Y287854D01*
X132467Y287120D01*
X132613Y286387D01*
X133028Y285765D01*
X133262Y285609D01*
Y279351D01*
X133028Y279195D01*
X132613Y278574D01*
X132467Y277840D01*
X132613Y277107D01*
X133028Y276485D01*
X133262Y276329D01*
Y275518D01*
X132762Y275367D01*
X132749Y275386D01*
X130941Y277194D01*
Y318082D01*
X135694Y322835D01*
X140818D01*
X141009Y322373D01*
D02*
G37*
G36*
X147406Y259477D02*
X142464Y254536D01*
X141964Y254743D01*
Y257664D01*
X142464Y257846D01*
X142967Y257510D01*
X143701Y257364D01*
X144434Y257510D01*
X145056Y257925D01*
X145471Y258547D01*
X145617Y259280D01*
X145471Y260014D01*
X145056Y260635D01*
X144822Y260791D01*
Y267049D01*
X145056Y267205D01*
X145471Y267827D01*
X145617Y268560D01*
X145471Y269293D01*
X145056Y269915D01*
X144822Y270071D01*
Y276329D01*
X145056Y276485D01*
X145471Y277107D01*
X145617Y277840D01*
X145471Y278574D01*
X145056Y279195D01*
X144822Y279351D01*
Y285609D01*
X145056Y285765D01*
X145471Y286387D01*
X145617Y287120D01*
X145471Y287854D01*
X145056Y288475D01*
X144822Y288631D01*
Y294889D01*
X145056Y295045D01*
X145471Y295667D01*
X145617Y296400D01*
X145471Y297134D01*
X145056Y297756D01*
X144822Y297912D01*
Y304170D01*
X145056Y304326D01*
X145471Y304947D01*
X145617Y305680D01*
X145471Y306414D01*
X145056Y307036D01*
X144822Y307192D01*
Y313450D01*
X145056Y313606D01*
X145471Y314227D01*
X145617Y314961D01*
X145471Y315694D01*
X145056Y316316D01*
X144434Y316731D01*
X143701Y316877D01*
X142967Y316731D01*
X142346Y316316D01*
X141930Y315694D01*
X141784Y314961D01*
X141930Y314227D01*
X142346Y313606D01*
X142579Y313450D01*
Y307192D01*
X142346Y307036D01*
X141930Y306414D01*
X141784Y305680D01*
X141930Y304947D01*
X142346Y304326D01*
X142579Y304170D01*
Y297912D01*
X142346Y297756D01*
X141930Y297134D01*
X141784Y296400D01*
X141930Y295667D01*
X142346Y295045D01*
X142579Y294889D01*
Y288631D01*
X142346Y288475D01*
X141930Y287854D01*
X141784Y287120D01*
X141930Y286387D01*
X142346Y285765D01*
X142579Y285609D01*
Y279351D01*
X142346Y279195D01*
X141930Y278574D01*
X141784Y277840D01*
X141930Y277107D01*
X142346Y276485D01*
X142579Y276329D01*
Y270071D01*
X142346Y269915D01*
X141930Y269293D01*
X141784Y268560D01*
X141930Y267827D01*
X142346Y267205D01*
X142579Y267049D01*
Y261205D01*
X142464Y261124D01*
X141964Y261385D01*
Y266142D01*
X141887Y266532D01*
X141666Y266863D01*
X140390Y268139D01*
Y318869D01*
X143634Y322114D01*
X143855Y322445D01*
X143933Y322835D01*
X147406D01*
Y259477D01*
D02*
G37*
G36*
X225980Y322335D02*
X225810Y322221D01*
X225395Y321600D01*
X225249Y320866D01*
X225395Y320133D01*
X225810Y319511D01*
X226044Y319355D01*
Y313097D01*
X225810Y312941D01*
X225395Y312319D01*
X225249Y311586D01*
X225395Y310853D01*
X225810Y310231D01*
X226044Y310075D01*
Y303817D01*
X225810Y303661D01*
X225395Y303039D01*
X225249Y302306D01*
X225395Y301573D01*
X225810Y300951D01*
X226044Y300795D01*
Y294537D01*
X225810Y294381D01*
X225395Y293759D01*
X225249Y293026D01*
X225395Y292292D01*
X225810Y291671D01*
X226044Y291515D01*
Y285257D01*
X225810Y285101D01*
X225395Y284479D01*
X225249Y283746D01*
X225395Y283012D01*
X225810Y282391D01*
X226044Y282235D01*
Y275977D01*
X225810Y275821D01*
X225395Y275199D01*
X225249Y274466D01*
X225395Y273732D01*
X225810Y273111D01*
X226044Y272955D01*
Y266697D01*
X225810Y266541D01*
X225395Y265919D01*
X225249Y265186D01*
X225395Y264452D01*
X225810Y263830D01*
X226432Y263415D01*
X227165Y263269D01*
X227441Y263324D01*
X228782Y261982D01*
Y257282D01*
X228782Y257282D01*
X228800Y257195D01*
Y254008D01*
X227294Y252502D01*
X226946Y252536D01*
X226324Y252952D01*
X225590Y253097D01*
X224857Y252952D01*
X224236Y252536D01*
X223820Y251915D01*
X223674Y251181D01*
X223820Y250448D01*
X223882Y250355D01*
Y248031D01*
X222673D01*
Y256271D01*
X223944Y257541D01*
X224516Y256968D01*
X224462Y256693D01*
X224607Y255960D01*
X225023Y255338D01*
X225645Y254922D01*
X226378Y254777D01*
X227111Y254922D01*
X227733Y255338D01*
X228148Y255960D01*
X228294Y256693D01*
X228148Y257426D01*
X227733Y258048D01*
X227111Y258463D01*
X226378Y258609D01*
X226102Y258555D01*
X224809Y259848D01*
X224809Y259848D01*
X223694Y260963D01*
Y266592D01*
X223608Y267021D01*
X223365Y267385D01*
X223365Y267385D01*
X218969Y271781D01*
Y272955D01*
X219203Y273111D01*
X219618Y273732D01*
X219764Y274466D01*
X219618Y275199D01*
X219203Y275821D01*
X218969Y275977D01*
Y282235D01*
X219203Y282391D01*
X219618Y283012D01*
X219764Y283746D01*
X219618Y284479D01*
X219203Y285101D01*
X218969Y285257D01*
Y291515D01*
X219203Y291671D01*
X219618Y292292D01*
X219764Y293026D01*
X219618Y293759D01*
X219203Y294381D01*
X218969Y294537D01*
Y300795D01*
X219203Y300951D01*
X219618Y301573D01*
X219764Y302306D01*
X219618Y303039D01*
X219203Y303661D01*
X218969Y303817D01*
Y310075D01*
X219203Y310231D01*
X219618Y310853D01*
X219764Y311586D01*
X219618Y312319D01*
X219203Y312941D01*
X218969Y313097D01*
Y319355D01*
X219203Y319511D01*
X219618Y320133D01*
X219764Y320866D01*
X219618Y321600D01*
X219203Y322221D01*
X219033Y322335D01*
X219185Y322835D01*
X225828D01*
X225980Y322335D01*
D02*
G37*
G36*
X207345D02*
X207175Y322221D01*
X206760Y321600D01*
X206614Y320866D01*
X206760Y320133D01*
X207175Y319511D01*
X207409Y319355D01*
Y313097D01*
X207175Y312941D01*
X206760Y312319D01*
X206614Y311586D01*
X206760Y310853D01*
X207175Y310231D01*
X207409Y310075D01*
Y303817D01*
X207175Y303661D01*
X206760Y303039D01*
X206614Y302306D01*
X206760Y301573D01*
X207175Y300951D01*
X207409Y300795D01*
Y294537D01*
X207175Y294381D01*
X206760Y293759D01*
X206614Y293026D01*
X206760Y292292D01*
X207175Y291671D01*
X207409Y291515D01*
Y285257D01*
X207175Y285101D01*
X206760Y284479D01*
X206614Y283746D01*
X206760Y283012D01*
X207175Y282391D01*
X207409Y282235D01*
Y280596D01*
X207409Y280596D01*
X207494Y280167D01*
X207737Y279803D01*
X212133Y275407D01*
Y269779D01*
X212133Y269779D01*
X212218Y269350D01*
X212461Y268986D01*
X215986Y265461D01*
X215931Y265186D01*
X216077Y264452D01*
X216493Y263830D01*
X216726Y263674D01*
Y257417D01*
X216493Y257261D01*
X216077Y256639D01*
X215931Y255906D01*
X216077Y255172D01*
X216493Y254551D01*
X216828Y254326D01*
Y251581D01*
X216535Y251129D01*
X215802Y250983D01*
X215180Y250568D01*
X215024Y250334D01*
X214600D01*
X214218Y250589D01*
X213484Y250735D01*
X212751Y250589D01*
X212129Y250174D01*
X211714Y249552D01*
X211568Y248819D01*
X211625Y248532D01*
X211215Y248031D01*
X209550D01*
Y254326D01*
X209885Y254551D01*
X210301Y255172D01*
X210447Y255906D01*
X210301Y256639D01*
X209885Y257261D01*
X209652Y257417D01*
Y263674D01*
X209885Y263830D01*
X210301Y264452D01*
X210447Y265186D01*
X210301Y265919D01*
X209885Y266541D01*
X209652Y266697D01*
Y272955D01*
X209885Y273111D01*
X210301Y273732D01*
X210447Y274466D01*
X210301Y275199D01*
X209885Y275821D01*
X209263Y276236D01*
X208530Y276382D01*
X208255Y276327D01*
X205059Y279523D01*
Y285152D01*
X204973Y285581D01*
X204730Y285945D01*
X204730Y285945D01*
X200334Y290341D01*
Y291515D01*
X200568Y291671D01*
X200983Y292292D01*
X201129Y293026D01*
X200983Y293759D01*
X200568Y294381D01*
X200334Y294537D01*
Y300795D01*
X200568Y300951D01*
X200983Y301573D01*
X201129Y302306D01*
X200983Y303039D01*
X200568Y303661D01*
X200334Y303817D01*
Y310075D01*
X200568Y310231D01*
X200983Y310853D01*
X201129Y311586D01*
X200983Y312319D01*
X200568Y312941D01*
X200334Y313097D01*
Y319355D01*
X200568Y319511D01*
X200983Y320133D01*
X201129Y320866D01*
X200983Y321600D01*
X200568Y322221D01*
X200398Y322335D01*
X200550Y322835D01*
X207193D01*
X207345Y322335D01*
D02*
G37*
G36*
X82632Y321672D02*
X80381Y319422D01*
X80160Y319091D01*
X80083Y318701D01*
Y251969D01*
X80160Y251578D01*
X80381Y251248D01*
X82435Y249194D01*
X82228Y248694D01*
X79403D01*
Y322172D01*
X82424D01*
X82632Y321672D01*
D02*
G37*
G36*
X133262Y261965D02*
Y260791D01*
X133028Y260635D01*
X132613Y260014D01*
X132467Y259280D01*
X132613Y258547D01*
X133028Y257925D01*
X133262Y257769D01*
Y251511D01*
X133028Y251355D01*
X132613Y250733D01*
X132467Y250000D01*
X132613Y249267D01*
X132670Y249181D01*
X132434Y248740D01*
X131354D01*
X131028Y248675D01*
X130914Y248709D01*
X130863Y248740D01*
X130547Y248985D01*
Y262992D01*
X130470Y263382D01*
X130248Y263713D01*
X128691Y265271D01*
Y265829D01*
X129191Y266036D01*
X133262Y261965D01*
D02*
G37*
G36*
X231671Y322581D02*
X231815Y322366D01*
X232030Y322222D01*
X232283Y322172D01*
X235558D01*
Y248694D01*
X232283D01*
X232030Y248644D01*
X231815Y248500D01*
X231671Y248285D01*
X231621Y248031D01*
X228972D01*
Y249031D01*
X232611Y252670D01*
X232832Y253000D01*
X232909Y253391D01*
Y256476D01*
X233017Y256497D01*
X233639Y256913D01*
X234054Y257534D01*
X234200Y258268D01*
X234054Y259001D01*
X233639Y259623D01*
X233017Y260038D01*
X232283Y260184D01*
X231550Y260038D01*
X231466Y259982D01*
X231026Y260218D01*
Y262447D01*
X231026Y262447D01*
X230940Y262876D01*
X230697Y263240D01*
X230697Y263240D01*
X229027Y264910D01*
X229082Y265186D01*
X228936Y265919D01*
X228520Y266541D01*
X228287Y266697D01*
Y272955D01*
X228520Y273111D01*
X228936Y273732D01*
X229082Y274466D01*
X228936Y275199D01*
X228520Y275821D01*
X228287Y275977D01*
Y282235D01*
X228520Y282391D01*
X228936Y283012D01*
X229082Y283746D01*
X228936Y284479D01*
X228520Y285101D01*
X228287Y285257D01*
Y291515D01*
X228520Y291671D01*
X228936Y292292D01*
X229082Y293026D01*
X228936Y293759D01*
X228520Y294381D01*
X228287Y294537D01*
Y300795D01*
X228520Y300951D01*
X228936Y301573D01*
X229082Y302306D01*
X228936Y303039D01*
X228520Y303661D01*
X228287Y303817D01*
Y310075D01*
X228520Y310231D01*
X228936Y310853D01*
X229082Y311586D01*
X228936Y312319D01*
X228520Y312941D01*
X228287Y313097D01*
Y319355D01*
X228520Y319511D01*
X228936Y320133D01*
X229082Y320866D01*
X228936Y321600D01*
X228520Y322221D01*
X228351Y322335D01*
X228502Y322835D01*
X231621D01*
X231671Y322581D01*
D02*
G37*
G36*
X216663Y322335D02*
X216493Y322221D01*
X216077Y321600D01*
X215931Y320866D01*
X216077Y320133D01*
X216493Y319511D01*
X216726Y319355D01*
Y313097D01*
X216493Y312941D01*
X216077Y312319D01*
X215931Y311586D01*
X216077Y310853D01*
X216493Y310231D01*
X216726Y310075D01*
Y303817D01*
X216493Y303661D01*
X216077Y303039D01*
X215931Y302306D01*
X216077Y301573D01*
X216493Y300951D01*
X216726Y300795D01*
Y294537D01*
X216493Y294381D01*
X216077Y293759D01*
X215931Y293026D01*
X216077Y292292D01*
X216493Y291671D01*
X216726Y291515D01*
Y285257D01*
X216493Y285101D01*
X216077Y284479D01*
X215931Y283746D01*
X216077Y283012D01*
X216493Y282391D01*
X216726Y282235D01*
Y275977D01*
X216493Y275821D01*
X216077Y275199D01*
X215931Y274466D01*
X216077Y273732D01*
X216493Y273111D01*
X216726Y272955D01*
Y271316D01*
X216726Y271316D01*
X216812Y270887D01*
X217055Y270523D01*
X221451Y266127D01*
Y260499D01*
X221451Y260499D01*
X221536Y260069D01*
X221779Y259706D01*
X222502Y258983D01*
X220933Y257414D01*
X220712Y257083D01*
X220634Y256693D01*
Y248031D01*
X220029D01*
X219834Y248268D01*
Y250157D01*
X219757Y250547D01*
X219536Y250878D01*
X218867Y251546D01*
Y254326D01*
X219203Y254551D01*
X219618Y255172D01*
X219764Y255906D01*
X219618Y256639D01*
X219203Y257261D01*
X218969Y257417D01*
Y263674D01*
X219203Y263830D01*
X219618Y264452D01*
X219764Y265186D01*
X219618Y265919D01*
X219203Y266541D01*
X218581Y266956D01*
X217848Y267102D01*
X217572Y267047D01*
X214376Y270243D01*
Y275872D01*
X214291Y276301D01*
X214048Y276665D01*
X214048Y276665D01*
X209652Y281061D01*
Y282235D01*
X209885Y282391D01*
X210301Y283012D01*
X210447Y283746D01*
X210301Y284479D01*
X209885Y285101D01*
X209652Y285257D01*
Y291515D01*
X209885Y291671D01*
X210301Y292292D01*
X210447Y293026D01*
X210301Y293759D01*
X209885Y294381D01*
X209652Y294537D01*
Y300795D01*
X209885Y300951D01*
X210301Y301573D01*
X210447Y302306D01*
X210301Y303039D01*
X209885Y303661D01*
X209652Y303817D01*
Y310075D01*
X209885Y310231D01*
X210301Y310853D01*
X210447Y311586D01*
X210301Y312319D01*
X209885Y312941D01*
X209652Y313097D01*
Y319355D01*
X209885Y319511D01*
X210301Y320133D01*
X210447Y320866D01*
X210301Y321600D01*
X209885Y322221D01*
X209716Y322335D01*
X209867Y322835D01*
X216511D01*
X216663Y322335D01*
D02*
G37*
G36*
X198027D02*
X197857Y322221D01*
X197442Y321600D01*
X197296Y320866D01*
X197442Y320133D01*
X197857Y319511D01*
X198091Y319355D01*
Y313097D01*
X197857Y312941D01*
X197442Y312319D01*
X197296Y311586D01*
X197442Y310853D01*
X197857Y310231D01*
X198091Y310075D01*
Y303817D01*
X197857Y303661D01*
X197442Y303039D01*
X197296Y302306D01*
X197442Y301573D01*
X197857Y300951D01*
X198091Y300795D01*
Y294537D01*
X197857Y294381D01*
X197442Y293759D01*
X197296Y293026D01*
X197442Y292292D01*
X197857Y291671D01*
X198091Y291515D01*
Y289876D01*
X198091Y289876D01*
X198176Y289447D01*
X198419Y289083D01*
X202815Y284687D01*
Y279059D01*
X202815Y279059D01*
X202901Y278630D01*
X203144Y278266D01*
X206669Y274741D01*
X206614Y274466D01*
X206760Y273732D01*
X207175Y273111D01*
X207409Y272955D01*
Y266697D01*
X207175Y266541D01*
X206760Y265919D01*
X206614Y265186D01*
X206760Y264452D01*
X207175Y263830D01*
X207409Y263674D01*
Y257417D01*
X207175Y257261D01*
X206760Y256639D01*
X206614Y255906D01*
X206760Y255172D01*
X207175Y254551D01*
X207511Y254326D01*
Y248224D01*
X207318Y248031D01*
X200232D01*
Y254326D01*
X200568Y254551D01*
X200983Y255172D01*
X201129Y255906D01*
X200983Y256639D01*
X200568Y257261D01*
X200334Y257417D01*
Y263674D01*
X200568Y263830D01*
X200983Y264452D01*
X201129Y265186D01*
X200983Y265919D01*
X200568Y266541D01*
X200334Y266697D01*
Y272955D01*
X200568Y273111D01*
X200983Y273732D01*
X201129Y274466D01*
X200983Y275199D01*
X200568Y275821D01*
X200334Y275977D01*
Y282235D01*
X200568Y282391D01*
X200983Y283012D01*
X201129Y283746D01*
X200983Y284479D01*
X200568Y285101D01*
X199946Y285516D01*
X199213Y285662D01*
X198937Y285607D01*
X195741Y288804D01*
Y294432D01*
X195656Y294861D01*
X195413Y295225D01*
X195412Y295225D01*
X191017Y299621D01*
Y300795D01*
X191250Y300951D01*
X191665Y301573D01*
X191811Y302306D01*
X191665Y303039D01*
X191250Y303661D01*
X191017Y303817D01*
Y310075D01*
X191250Y310231D01*
X191665Y310853D01*
X191811Y311586D01*
X191665Y312319D01*
X191250Y312941D01*
X191017Y313097D01*
Y319355D01*
X191250Y319511D01*
X191665Y320133D01*
X191811Y320866D01*
X191665Y321600D01*
X191250Y322221D01*
X191080Y322335D01*
X191232Y322835D01*
X197876D01*
X198027Y322335D01*
D02*
G37*
G36*
X188710D02*
X188540Y322221D01*
X188125Y321600D01*
X187979Y320866D01*
X188125Y320133D01*
X188540Y319511D01*
X188774Y319355D01*
Y313097D01*
X188540Y312941D01*
X188125Y312319D01*
X187979Y311586D01*
X188125Y310853D01*
X188540Y310231D01*
X188774Y310075D01*
Y303817D01*
X188540Y303661D01*
X188125Y303039D01*
X187979Y302306D01*
X188125Y301573D01*
X188540Y300951D01*
X188774Y300795D01*
Y299156D01*
X188774Y299156D01*
X188859Y298727D01*
X189102Y298363D01*
X193498Y293967D01*
Y288339D01*
X193498Y288339D01*
X193583Y287910D01*
X193826Y287546D01*
X197351Y284021D01*
X197296Y283746D01*
X197442Y283012D01*
X197857Y282391D01*
X198091Y282235D01*
Y275977D01*
X197857Y275821D01*
X197442Y275199D01*
X197296Y274466D01*
X197442Y273732D01*
X197857Y273111D01*
X198091Y272955D01*
Y266697D01*
X197857Y266541D01*
X197442Y265919D01*
X197296Y265186D01*
X197442Y264452D01*
X197857Y263830D01*
X198091Y263674D01*
Y257417D01*
X197857Y257261D01*
X197442Y256639D01*
X197296Y255906D01*
X197442Y255172D01*
X197857Y254551D01*
X198193Y254326D01*
Y248031D01*
X190915D01*
Y254326D01*
X191250Y254551D01*
X191665Y255172D01*
X191811Y255906D01*
X191665Y256639D01*
X191250Y257261D01*
X191017Y257417D01*
Y263674D01*
X191250Y263830D01*
X191665Y264452D01*
X191811Y265186D01*
X191665Y265919D01*
X191250Y266541D01*
X191017Y266697D01*
Y272955D01*
X191250Y273111D01*
X191665Y273732D01*
X191811Y274466D01*
X191665Y275199D01*
X191250Y275821D01*
X191017Y275977D01*
Y282235D01*
X191250Y282391D01*
X191665Y283012D01*
X191811Y283746D01*
X191665Y284479D01*
X191250Y285101D01*
X191017Y285257D01*
Y291515D01*
X191250Y291671D01*
X191665Y292292D01*
X191811Y293026D01*
X191665Y293759D01*
X191250Y294381D01*
X190628Y294796D01*
X189895Y294942D01*
X189620Y294887D01*
X186423Y298084D01*
Y303712D01*
X186338Y304141D01*
X186095Y304505D01*
X186095Y304505D01*
X181699Y308901D01*
Y310075D01*
X181932Y310231D01*
X182348Y310853D01*
X182494Y311586D01*
X182348Y312319D01*
X181932Y312941D01*
X181699Y313097D01*
Y319355D01*
X181932Y319511D01*
X182348Y320133D01*
X182494Y320866D01*
X182348Y321600D01*
X181932Y322221D01*
X181763Y322335D01*
X181914Y322835D01*
X188558D01*
X188710Y322335D01*
D02*
G37*
G36*
X179392D02*
X179222Y322221D01*
X178807Y321600D01*
X178661Y320866D01*
X178807Y320133D01*
X179222Y319511D01*
X179456Y319355D01*
Y313097D01*
X179222Y312941D01*
X178807Y312319D01*
X178661Y311586D01*
X178807Y310853D01*
X179222Y310231D01*
X179456Y310075D01*
Y308436D01*
X179456Y308436D01*
X179541Y308007D01*
X179784Y307643D01*
X184180Y303247D01*
Y297619D01*
X184180Y297619D01*
X184266Y297190D01*
X184509Y296826D01*
X188033Y293301D01*
X187979Y293026D01*
X188125Y292292D01*
X188540Y291671D01*
X188774Y291515D01*
Y285257D01*
X188540Y285101D01*
X188125Y284479D01*
X187979Y283746D01*
X188125Y283012D01*
X188540Y282391D01*
X188774Y282235D01*
Y275977D01*
X188540Y275821D01*
X188125Y275199D01*
X187979Y274466D01*
X188125Y273732D01*
X188540Y273111D01*
X188774Y272955D01*
Y266697D01*
X188540Y266541D01*
X188125Y265919D01*
X187979Y265186D01*
X188125Y264452D01*
X188540Y263830D01*
X188774Y263674D01*
Y257417D01*
X188540Y257261D01*
X188125Y256639D01*
X187979Y255906D01*
X188125Y255172D01*
X188540Y254551D01*
X188875Y254326D01*
Y248031D01*
X183303D01*
Y254200D01*
X183225Y254590D01*
X183004Y254920D01*
X182415Y255510D01*
X182494Y255906D01*
X182428Y256238D01*
X182532Y256395D01*
X182618Y256824D01*
Y264267D01*
X182532Y264696D01*
X182428Y264853D01*
X182494Y265186D01*
X182424Y265536D01*
X182486Y265628D01*
X182571Y266057D01*
X182571Y266058D01*
Y273594D01*
X182571Y273594D01*
X182486Y274023D01*
X182424Y274115D01*
X182494Y274466D01*
X182348Y275199D01*
X181932Y275821D01*
X181699Y275977D01*
Y282235D01*
X181932Y282391D01*
X182348Y283012D01*
X182494Y283746D01*
X182348Y284479D01*
X181932Y285101D01*
X181699Y285257D01*
Y291515D01*
X181932Y291671D01*
X182348Y292292D01*
X182494Y293026D01*
X182348Y293759D01*
X181932Y294381D01*
X181699Y294537D01*
Y300795D01*
X181932Y300951D01*
X182348Y301573D01*
X182494Y302306D01*
X182348Y303039D01*
X181932Y303661D01*
X181311Y304076D01*
X180577Y304222D01*
X180302Y304168D01*
X177106Y307364D01*
Y312992D01*
X177106Y312992D01*
X177020Y313421D01*
X176777Y313785D01*
X175433Y315130D01*
Y316043D01*
X175433Y316043D01*
X175347Y316473D01*
X175104Y316836D01*
X175104Y316836D01*
X173662Y318278D01*
Y319311D01*
X173896Y319467D01*
X174311Y320088D01*
X174457Y320822D01*
X174311Y321555D01*
X173896Y322177D01*
X173659Y322335D01*
X173811Y322835D01*
X179241D01*
X179392Y322335D01*
D02*
G37*
G36*
X152881Y318898D02*
X152931Y318644D01*
X153075Y318429D01*
X153290Y318285D01*
X153543Y318235D01*
Y252631D01*
X153290Y252581D01*
X153075Y252437D01*
X152931Y252222D01*
X152881Y251969D01*
Y248694D01*
X149606D01*
X149353Y248644D01*
X149138Y248500D01*
X148994Y248285D01*
X148944Y248031D01*
X143736D01*
Y252924D01*
X149146Y258334D01*
X149367Y258665D01*
X149445Y259055D01*
Y322039D01*
X149606Y322172D01*
X152881D01*
Y318898D01*
D02*
G37*
G36*
X126729Y264458D02*
X126950Y264127D01*
X128508Y262570D01*
Y249241D01*
X127298Y248031D01*
X126402D01*
X126251Y248532D01*
X126421Y248645D01*
X126836Y249267D01*
X126982Y250000D01*
X126836Y250733D01*
X126421Y251355D01*
X126187Y251511D01*
Y257769D01*
X126421Y257925D01*
X126836Y258547D01*
X126982Y259280D01*
X126836Y260014D01*
X126421Y260635D01*
X126187Y260791D01*
Y264621D01*
X126687Y264670D01*
X126729Y264458D01*
D02*
G37*
G36*
X123944Y271245D02*
Y270071D01*
X123711Y269915D01*
X123295Y269293D01*
X123149Y268560D01*
X123295Y267827D01*
X123711Y267205D01*
X123944Y267049D01*
Y260791D01*
X123711Y260635D01*
X123295Y260014D01*
X123149Y259280D01*
X123295Y258547D01*
X123711Y257925D01*
X123944Y257769D01*
Y251511D01*
X123711Y251355D01*
X123295Y250733D01*
X123149Y250000D01*
X123295Y249267D01*
X123711Y248645D01*
X123880Y248532D01*
X123729Y248031D01*
X121484D01*
X121286Y248532D01*
X121414Y248724D01*
X121492Y249114D01*
Y272835D01*
X121453Y273029D01*
X121914Y273275D01*
X123944Y271245D01*
D02*
G37*
G36*
X117386Y274589D02*
X117607Y274258D01*
X119453Y272412D01*
Y249536D01*
X117948Y248031D01*
X117085D01*
X116933Y248532D01*
X117103Y248645D01*
X117518Y249267D01*
X117664Y250000D01*
X117518Y250733D01*
X117103Y251355D01*
X116870Y251511D01*
Y257769D01*
X117103Y257925D01*
X117518Y258547D01*
X117664Y259280D01*
X117518Y260014D01*
X117103Y260635D01*
X116870Y260791D01*
Y267049D01*
X117103Y267205D01*
X117518Y267827D01*
X117664Y268560D01*
X117518Y269293D01*
X117103Y269915D01*
X116870Y270071D01*
Y274622D01*
X117370Y274671D01*
X117386Y274589D01*
D02*
G37*
G36*
X114626Y280525D02*
Y279351D01*
X114393Y279195D01*
X113978Y278574D01*
X113832Y277840D01*
X113978Y277107D01*
X114393Y276485D01*
X114626Y276329D01*
Y270071D01*
X114393Y269915D01*
X113978Y269293D01*
X113832Y268560D01*
X113978Y267827D01*
X114393Y267205D01*
X114626Y267049D01*
Y260791D01*
X114393Y260635D01*
X113978Y260014D01*
X113832Y259280D01*
X113978Y258547D01*
X114393Y257925D01*
X114626Y257769D01*
Y251511D01*
X114393Y251355D01*
X113978Y250733D01*
X113832Y250000D01*
X113978Y249267D01*
X114393Y248645D01*
X114563Y248532D01*
X114411Y248031D01*
X113548D01*
X112043Y249536D01*
Y282283D01*
X112014Y282431D01*
X112475Y282677D01*
X114626Y280525D01*
D02*
G37*
G36*
X108131Y284937D02*
Y284156D01*
X108209Y283766D01*
X108430Y283436D01*
X110004Y281861D01*
Y249114D01*
X110082Y248724D01*
X110210Y248532D01*
X110012Y248031D01*
X107767D01*
X107616Y248532D01*
X107785Y248645D01*
X108201Y249267D01*
X108347Y250000D01*
X108201Y250733D01*
X107785Y251355D01*
X107552Y251511D01*
Y257769D01*
X107785Y257925D01*
X108201Y258547D01*
X108347Y259280D01*
X108201Y260014D01*
X107785Y260635D01*
X107552Y260791D01*
Y267049D01*
X107785Y267205D01*
X108201Y267827D01*
X108347Y268560D01*
X108201Y269293D01*
X107785Y269915D01*
X107552Y270071D01*
Y276329D01*
X107785Y276485D01*
X108201Y277107D01*
X108347Y277840D01*
X108201Y278574D01*
X107785Y279195D01*
X107552Y279351D01*
Y285153D01*
X107631Y285205D01*
X108131Y284937D01*
D02*
G37*
G36*
X105309Y289805D02*
Y288631D01*
X105075Y288475D01*
X104660Y287854D01*
X104514Y287120D01*
X104660Y286387D01*
X105075Y285765D01*
X105309Y285609D01*
Y279351D01*
X105075Y279195D01*
X104660Y278574D01*
X104514Y277840D01*
X104660Y277107D01*
X105075Y276485D01*
X105309Y276329D01*
Y270071D01*
X105075Y269915D01*
X104660Y269293D01*
X104514Y268560D01*
X104660Y267827D01*
X105075Y267205D01*
X105309Y267049D01*
Y260791D01*
X105075Y260635D01*
X104660Y260014D01*
X104514Y259280D01*
X104660Y258547D01*
X105075Y257925D01*
X105309Y257769D01*
Y251511D01*
X105075Y251355D01*
X104660Y250733D01*
X104514Y250000D01*
X104660Y249267D01*
X105075Y248645D01*
X105245Y248532D01*
X105094Y248031D01*
X103902D01*
X102594Y249340D01*
Y291562D01*
X102532Y291875D01*
X102720Y292056D01*
X102945Y292170D01*
X105309Y289805D01*
D02*
G37*
G36*
X98885Y292810D02*
X100555Y291140D01*
Y248917D01*
X100633Y248527D01*
X100363Y248031D01*
X98450D01*
X98298Y248532D01*
X98468Y248645D01*
X98883Y249267D01*
X99029Y250000D01*
X98883Y250733D01*
X98468Y251355D01*
X98234Y251511D01*
Y257769D01*
X98468Y257925D01*
X98883Y258547D01*
X99029Y259280D01*
X98883Y260014D01*
X98468Y260635D01*
X98234Y260791D01*
Y267049D01*
X98468Y267205D01*
X98883Y267827D01*
X99029Y268560D01*
X98883Y269293D01*
X98468Y269915D01*
X98234Y270071D01*
Y276329D01*
X98468Y276485D01*
X98883Y277107D01*
X99029Y277840D01*
X98883Y278574D01*
X98468Y279195D01*
X98234Y279351D01*
Y285609D01*
X98468Y285765D01*
X98883Y286387D01*
X99029Y287120D01*
X98883Y287854D01*
X98468Y288475D01*
X98234Y288631D01*
Y292934D01*
X98734Y293036D01*
X98885Y292810D01*
D02*
G37*
G36*
X95991Y299085D02*
Y297912D01*
X95758Y297756D01*
X95342Y297134D01*
X95196Y296400D01*
X95342Y295667D01*
X95758Y295045D01*
X95991Y294889D01*
Y288631D01*
X95758Y288475D01*
X95342Y287854D01*
X95196Y287120D01*
X95342Y286387D01*
X95758Y285765D01*
X95991Y285609D01*
Y279351D01*
X95758Y279195D01*
X95342Y278574D01*
X95196Y277840D01*
X95342Y277107D01*
X95758Y276485D01*
X95991Y276329D01*
Y270071D01*
X95758Y269915D01*
X95342Y269293D01*
X95196Y268560D01*
X95342Y267827D01*
X95758Y267205D01*
X95991Y267049D01*
Y260791D01*
X95758Y260635D01*
X95342Y260014D01*
X95196Y259280D01*
X95342Y258547D01*
X95758Y257925D01*
X95991Y257769D01*
Y251511D01*
X95758Y251355D01*
X95342Y250733D01*
X95196Y250000D01*
X95342Y249267D01*
X95758Y248645D01*
X95928Y248532D01*
X95776Y248031D01*
X94159D01*
X92752Y249438D01*
Y301672D01*
X93214Y301863D01*
X95991Y299085D01*
D02*
G37*
G36*
X89356Y303764D02*
X89549Y303660D01*
X89770Y303330D01*
X90713Y302387D01*
Y249016D01*
X90790Y248626D01*
X90853Y248532D01*
X90586Y248031D01*
X89132D01*
X88981Y248532D01*
X89150Y248645D01*
X89566Y249267D01*
X89712Y250000D01*
X89566Y250733D01*
X89150Y251355D01*
X88917Y251511D01*
Y257769D01*
X89150Y257925D01*
X89566Y258547D01*
X89712Y259280D01*
X89566Y260014D01*
X89150Y260635D01*
X88917Y260791D01*
Y267049D01*
X89150Y267205D01*
X89566Y267827D01*
X89712Y268560D01*
X89566Y269293D01*
X89150Y269915D01*
X88917Y270071D01*
Y276329D01*
X89150Y276485D01*
X89566Y277107D01*
X89712Y277840D01*
X89566Y278574D01*
X89150Y279195D01*
X88917Y279351D01*
Y285609D01*
X89150Y285765D01*
X89566Y286387D01*
X89712Y287120D01*
X89566Y287854D01*
X89150Y288475D01*
X88917Y288631D01*
Y294889D01*
X89150Y295045D01*
X89566Y295667D01*
X89712Y296400D01*
X89566Y297134D01*
X89150Y297756D01*
X88917Y297912D01*
Y303699D01*
X89011Y303804D01*
X89356Y303764D01*
D02*
G37*
G36*
X318235Y244757D02*
X314961D01*
X314707Y244707D01*
X314492Y244563D01*
X314348Y244348D01*
X314298Y244094D01*
X312072D01*
X296295Y259871D01*
Y274996D01*
X296631Y275220D01*
X297046Y275841D01*
X297192Y276575D01*
X297046Y277308D01*
X296631Y277930D01*
X296009Y278345D01*
X295276Y278491D01*
X294542Y278345D01*
X293920Y277930D01*
X293505Y277308D01*
X293359Y276575D01*
X293505Y275841D01*
X293920Y275220D01*
X294256Y274996D01*
Y259449D01*
X294334Y259059D01*
X294555Y258728D01*
X308726Y244556D01*
X308535Y244094D01*
X306925D01*
X306848Y244485D01*
X306627Y244815D01*
X292358Y259084D01*
Y276964D01*
X292694Y277188D01*
X293109Y277810D01*
X293255Y278543D01*
X293109Y279277D01*
X292694Y279898D01*
X292072Y280314D01*
X291339Y280460D01*
X290605Y280314D01*
X289984Y279898D01*
X289568Y279277D01*
X289422Y278543D01*
X289568Y277810D01*
X289984Y277188D01*
X290319Y276964D01*
Y258662D01*
X290319Y258661D01*
X290397Y258271D01*
X290618Y257941D01*
X304002Y244556D01*
X303810Y244094D01*
X297083D01*
Y244882D01*
X297005Y245272D01*
X296784Y245603D01*
X288421Y253966D01*
Y274996D01*
X288757Y275220D01*
X289172Y275841D01*
X289318Y276575D01*
X289172Y277308D01*
X288757Y277930D01*
X288135Y278345D01*
X287402Y278491D01*
X286668Y278345D01*
X286047Y277930D01*
X285631Y277308D01*
X285485Y276575D01*
X285631Y275841D01*
X286047Y275220D01*
X286382Y274996D01*
Y253543D01*
X286460Y253153D01*
X286681Y252822D01*
X294908Y244595D01*
X294718Y244094D01*
X288028D01*
X287950Y244485D01*
X287729Y244815D01*
X285665Y246879D01*
Y272441D01*
X285588Y272831D01*
X285367Y273162D01*
X284484Y274044D01*
Y276964D01*
X284820Y277188D01*
X285235Y277810D01*
X285381Y278543D01*
X285235Y279277D01*
X284820Y279898D01*
X284198Y280314D01*
X283465Y280460D01*
X282731Y280314D01*
X282109Y279898D01*
X281694Y279277D01*
X281548Y278543D01*
X281694Y277810D01*
X282109Y277188D01*
X282445Y276964D01*
Y273622D01*
X282523Y273232D01*
X282744Y272901D01*
X283626Y272019D01*
Y246457D01*
X283704Y246066D01*
X283925Y245736D01*
X285104Y244556D01*
X284913Y244094D01*
X280442D01*
X280250Y244556D01*
X281823Y246129D01*
X282044Y246460D01*
X282122Y246850D01*
Y258661D01*
X282044Y259052D01*
X281823Y259382D01*
X278972Y262233D01*
Y263751D01*
X280248Y265027D01*
X280469Y265358D01*
X280547Y265748D01*
Y274996D01*
X280883Y275220D01*
X281298Y275841D01*
X281444Y276575D01*
X281298Y277308D01*
X280883Y277930D01*
X280261Y278345D01*
X279528Y278491D01*
X278794Y278345D01*
X278172Y277930D01*
X277757Y277308D01*
X277611Y276575D01*
X277757Y275841D01*
X278172Y275220D01*
X278508Y274996D01*
Y266170D01*
X277232Y264894D01*
X277011Y264563D01*
X276933Y264173D01*
Y261811D01*
X277011Y261421D01*
X277232Y261090D01*
X280083Y258239D01*
Y247273D01*
X277232Y244422D01*
X277013Y244094D01*
X272961D01*
X272770Y244556D01*
X275524Y247310D01*
X275745Y247641D01*
X275823Y248031D01*
Y272412D01*
X276311Y272901D01*
X276533Y273232D01*
X276610Y273622D01*
Y276964D01*
X276946Y277188D01*
X277361Y277810D01*
X277507Y278543D01*
X277361Y279277D01*
X276946Y279898D01*
X276324Y280314D01*
X275590Y280460D01*
X274857Y280314D01*
X274236Y279898D01*
X273820Y279277D01*
X273674Y278543D01*
X273820Y277810D01*
X274236Y277188D01*
X274571Y276964D01*
Y274044D01*
X274082Y273556D01*
X273861Y273225D01*
X273784Y272835D01*
Y248454D01*
X269424Y244094D01*
X267460D01*
Y244614D01*
X267933Y245087D01*
X268209Y245033D01*
X268942Y245178D01*
X269564Y245594D01*
X269979Y246216D01*
X270125Y246949D01*
X269979Y247682D01*
X269564Y248304D01*
X268942Y248719D01*
X268209Y248865D01*
X267475Y248719D01*
X266854Y248304D01*
X266438Y247682D01*
X266292Y246949D01*
X266347Y246673D01*
X265546Y245872D01*
X265302Y245508D01*
X265217Y245079D01*
X265217Y245079D01*
Y244094D01*
X262331D01*
X262140Y244556D01*
X272375Y254791D01*
X272596Y255122D01*
X272673Y255512D01*
Y274996D01*
X273009Y275220D01*
X273424Y275841D01*
X273570Y276575D01*
X273424Y277308D01*
X273009Y277930D01*
X272387Y278345D01*
X271654Y278491D01*
X270920Y278345D01*
X270299Y277930D01*
X269883Y277308D01*
X269737Y276575D01*
X269883Y275841D01*
X270299Y275220D01*
X270634Y274996D01*
Y255934D01*
X259909Y245209D01*
X259688Y244878D01*
X259610Y244488D01*
Y244094D01*
X258394D01*
X258203Y244556D01*
X268438Y254791D01*
X268658Y255122D01*
X268736Y255512D01*
Y276964D01*
X269072Y277188D01*
X269487Y277810D01*
X269633Y278543D01*
X269487Y279277D01*
X269072Y279898D01*
X268450Y280314D01*
X267717Y280460D01*
X266983Y280314D01*
X266361Y279898D01*
X265946Y279277D01*
X265800Y278543D01*
X265946Y277810D01*
X266361Y277188D01*
X266697Y276964D01*
Y255934D01*
X265261Y254498D01*
X264799Y254690D01*
Y274996D01*
X265135Y275220D01*
X265550Y275841D01*
X265696Y276575D01*
X265550Y277308D01*
X265135Y277930D01*
X264513Y278345D01*
X263779Y278491D01*
X263046Y278345D01*
X262424Y277930D01*
X262009Y277308D01*
X261863Y276575D01*
X262009Y275841D01*
X262424Y275220D01*
X262760Y274996D01*
Y253977D01*
X252877Y244094D01*
X248694D01*
X248644Y244348D01*
X248500Y244563D01*
X248285Y244707D01*
X248031Y244757D01*
X244757D01*
Y318235D01*
X318235D01*
Y244757D01*
D02*
G37*
G36*
X130763Y240848D02*
X131496Y240702D01*
X132229Y240848D01*
X132723Y241178D01*
X133260Y241043D01*
X133269Y240999D01*
X133684Y240377D01*
X134306Y239962D01*
X134839Y239856D01*
X135034Y239344D01*
X129988Y234298D01*
X129767Y233967D01*
X129689Y233577D01*
Y225197D01*
Y218016D01*
X129354Y217792D01*
X129101Y217414D01*
X128570Y217520D01*
X128542Y217663D01*
X128127Y218284D01*
X127791Y218508D01*
Y225295D01*
X127714Y225686D01*
X127493Y226016D01*
X127004Y226505D01*
Y237242D01*
X127504Y237509D01*
X127810Y237304D01*
X128543Y237158D01*
X129277Y237304D01*
X129898Y237720D01*
X130314Y238341D01*
X130460Y239075D01*
X130314Y239808D01*
X129898Y240430D01*
X129860Y240820D01*
X130238Y241198D01*
X130763Y240848D01*
D02*
G37*
G36*
X268862Y222445D02*
X268362Y222238D01*
X264376Y226224D01*
Y227398D01*
X264610Y227554D01*
X265025Y228175D01*
X265171Y228909D01*
X265025Y229642D01*
X264610Y230264D01*
X264376Y230420D01*
Y236678D01*
X264610Y236834D01*
X265025Y237456D01*
X265153Y237508D01*
X265605Y237206D01*
X266339Y237060D01*
X267072Y237206D01*
X267694Y237621D01*
X268109Y238243D01*
X268255Y238976D01*
X268120Y239657D01*
X268150Y239802D01*
X268340Y240158D01*
X268862D01*
Y222445D01*
D02*
G37*
G36*
X204242Y239696D02*
X200012Y235465D01*
X199768Y235102D01*
X199683Y234672D01*
X199683Y234672D01*
Y234234D01*
X199242Y233998D01*
X199159Y234054D01*
X198425Y234200D01*
X197692Y234054D01*
X197070Y233639D01*
X196655Y233017D01*
X196509Y232283D01*
X196655Y231550D01*
X196910Y231168D01*
Y224119D01*
X196655Y223737D01*
X196509Y223003D01*
X196655Y222270D01*
X196991Y221767D01*
Y214960D01*
X196655Y214457D01*
X196509Y213723D01*
X196655Y212990D01*
X197070Y212368D01*
X197304Y212212D01*
Y206373D01*
X197194Y206297D01*
X196694Y206558D01*
Y210840D01*
X196616Y211231D01*
X196395Y211561D01*
X194720Y213236D01*
Y232550D01*
X202328Y240158D01*
X204050D01*
X204242Y239696D01*
D02*
G37*
G36*
X182348D02*
X176444Y233792D01*
X176223Y233461D01*
X176146Y233071D01*
Y228903D01*
X175646Y228696D01*
X172334Y232008D01*
X172389Y232283D01*
X172243Y233017D01*
X172131Y233185D01*
X172366Y233626D01*
X174016D01*
X174406Y233704D01*
X174737Y233925D01*
X180970Y240158D01*
X182157D01*
X182348Y239696D01*
D02*
G37*
G36*
X190419D02*
X185500Y234776D01*
X185278Y234445D01*
X185201Y234055D01*
Y219886D01*
X184701Y219679D01*
X181652Y222728D01*
X181706Y223003D01*
X181561Y223737D01*
X181145Y224358D01*
X180912Y224515D01*
Y230772D01*
X181145Y230928D01*
X181561Y231550D01*
X181706Y232283D01*
X181561Y233017D01*
X181145Y233639D01*
X180523Y234054D01*
X180335Y234091D01*
X180170Y234634D01*
X185694Y240158D01*
X190228D01*
X190419Y239696D01*
D02*
G37*
G36*
X202425Y219181D02*
Y203062D01*
X202503Y202671D01*
X202528Y202633D01*
X202140Y202314D01*
X200287Y204168D01*
X200342Y204443D01*
X200196Y205176D01*
X199780Y205798D01*
X199547Y205954D01*
Y212212D01*
X199780Y212368D01*
X200196Y212990D01*
X200342Y213723D01*
X200196Y214457D01*
X199780Y215078D01*
X199234Y215443D01*
Y218621D01*
X199675Y218856D01*
X199759Y218800D01*
X200492Y218654D01*
X201225Y218800D01*
X201847Y219216D01*
X201925Y219333D01*
X202425Y219181D01*
D02*
G37*
G36*
X133626Y234399D02*
Y225197D01*
Y218508D01*
X133291Y218284D01*
X132875Y217663D01*
X132847Y217520D01*
X132316Y217414D01*
X132064Y217792D01*
X131728Y218016D01*
Y225197D01*
Y233154D01*
X133164Y234590D01*
X133626Y234399D01*
D02*
G37*
G36*
X124965Y242107D02*
Y226083D01*
X125042Y225693D01*
X125263Y225362D01*
X125752Y224873D01*
Y218508D01*
X125417Y218284D01*
X125001Y217663D01*
X124973Y217520D01*
X124442Y217414D01*
X124190Y217792D01*
X123854Y218016D01*
Y241704D01*
X124465Y242314D01*
X124965Y242107D01*
D02*
G37*
G36*
X115516Y232972D02*
X115594Y232582D01*
X115814Y232252D01*
X118665Y229400D01*
Y227883D01*
X118177Y227394D01*
X117956Y227063D01*
X117878Y226673D01*
Y218508D01*
X117543Y218284D01*
X117127Y217663D01*
X117099Y217520D01*
X116568Y217414D01*
X116316Y217792D01*
X115980Y218016D01*
Y225098D01*
X115903Y225489D01*
X115682Y225819D01*
X114012Y227489D01*
Y244094D01*
X115516D01*
Y232972D01*
D02*
G37*
G36*
X109217Y239834D02*
Y217717D01*
X109240Y217598D01*
X109225Y217520D01*
X108694Y217414D01*
X108442Y217792D01*
X108106Y218016D01*
Y233661D01*
X108029Y234052D01*
X107808Y234382D01*
X98557Y243633D01*
X98749Y244094D01*
X104956D01*
X109217Y239834D01*
D02*
G37*
G36*
X111972Y227067D02*
X112050Y226677D01*
X112271Y226346D01*
X113941Y224676D01*
Y218016D01*
X113606Y217792D01*
X113353Y217414D01*
X112822Y217520D01*
X112794Y217663D01*
X112379Y218284D01*
X111757Y218700D01*
X111256Y218799D01*
Y240256D01*
X111178Y240646D01*
X110957Y240977D01*
X108301Y243633D01*
X108493Y244094D01*
X111972D01*
Y227067D01*
D02*
G37*
G36*
X122899Y243633D02*
X122114Y242847D01*
X121893Y242516D01*
X121815Y242126D01*
Y218016D01*
X121480Y217792D01*
X121227Y217414D01*
X120696Y217520D01*
X120668Y217663D01*
X120253Y218284D01*
X119917Y218508D01*
Y226251D01*
X120406Y226740D01*
X120627Y227070D01*
X120705Y227461D01*
Y229823D01*
X120627Y230213D01*
X120406Y230544D01*
X117555Y233395D01*
Y244094D01*
X122708D01*
X122899Y243633D01*
D02*
G37*
G36*
X106067Y233239D02*
Y218016D01*
X105731Y217792D01*
X105479Y217414D01*
X104948Y217520D01*
X104920Y217663D01*
X104505Y218284D01*
X104169Y218508D01*
Y229922D01*
X104092Y230312D01*
X103871Y230642D01*
X90880Y243633D01*
X91072Y244094D01*
X95212D01*
X106067Y233239D01*
D02*
G37*
G36*
X148944Y244094D02*
X148994Y243841D01*
X149138Y243626D01*
X149353Y243482D01*
X149606Y243432D01*
X152881D01*
Y202569D01*
X144085D01*
Y197476D01*
X141663D01*
X133890Y205248D01*
X133560Y205469D01*
X133169Y205547D01*
X122492D01*
X122267Y205883D01*
X121646Y206298D01*
X120912Y206444D01*
X120179Y206298D01*
X119557Y205883D01*
X119142Y205261D01*
X118996Y204527D01*
X119142Y203794D01*
X119557Y203172D01*
X120179Y202757D01*
X120912Y202611D01*
X121646Y202757D01*
X122267Y203172D01*
X122492Y203508D01*
X132747D01*
X140519Y195736D01*
X140850Y195515D01*
X141240Y195437D01*
X144085D01*
Y193494D01*
X152881D01*
Y190961D01*
X149122D01*
Y186024D01*
Y181087D01*
X152881D01*
Y178750D01*
X144085D01*
Y169954D01*
X129937D01*
Y173713D01*
X120063D01*
Y169954D01*
X111820D01*
Y178044D01*
X112320Y178454D01*
X112598Y178399D01*
X113332Y178544D01*
X113953Y178960D01*
X114369Y179582D01*
X114515Y180315D01*
X114369Y181048D01*
X113953Y181670D01*
X113332Y182085D01*
X112598Y182231D01*
X111865Y182085D01*
X111275Y181691D01*
X100394D01*
X100394Y181691D01*
X99867Y181587D01*
X99420Y181288D01*
X99420Y181288D01*
X98008Y179876D01*
X97547Y180122D01*
X97586Y180315D01*
X97525Y180618D01*
X100176Y183269D01*
X110094D01*
X110684Y182875D01*
X111417Y182729D01*
X112151Y182875D01*
X112772Y183291D01*
X113188Y183912D01*
X113334Y184646D01*
X113188Y185379D01*
X112772Y186001D01*
X112151Y186416D01*
X111417Y186562D01*
X110684Y186416D01*
X110094Y186022D01*
X99606D01*
X99080Y185917D01*
X98633Y185619D01*
X95140Y182126D01*
X94936Y182085D01*
X94314Y181670D01*
X93899Y181048D01*
X93834Y180724D01*
X93279Y180493D01*
X93253Y180511D01*
X92520Y180657D01*
X91786Y180511D01*
X91165Y180095D01*
X90749Y179473D01*
X90603Y178740D01*
X90749Y178007D01*
X91165Y177385D01*
X91786Y176970D01*
X92482Y176831D01*
X92728Y176586D01*
X93174Y176287D01*
X93701Y176183D01*
X93701Y176183D01*
X97638D01*
X98164Y176287D01*
X98611Y176586D01*
X100964Y178938D01*
X102325D01*
X102746Y178750D01*
Y169954D01*
X88198D01*
Y178750D01*
X79403D01*
Y181087D01*
X83161D01*
Y186024D01*
Y190961D01*
X79403D01*
Y197432D01*
X88198D01*
Y200847D01*
X96457D01*
X96457Y200847D01*
X96886Y200932D01*
X97250Y201175D01*
X100577Y204503D01*
X101181Y204383D01*
X101914Y204529D01*
X102536Y204944D01*
X102952Y205566D01*
X103097Y206299D01*
X102952Y207033D01*
X102536Y207654D01*
X101914Y208070D01*
X101181Y208216D01*
X100448Y208070D01*
X99826Y207654D01*
X99411Y207033D01*
X99281Y206378D01*
X95992Y203090D01*
X88198D01*
Y206505D01*
X79403D01*
Y224597D01*
X88198D01*
Y232541D01*
X88660Y232732D01*
X97012Y224381D01*
Y220083D01*
X96676Y219859D01*
X96261Y219237D01*
X96115Y218504D01*
X96261Y217771D01*
X96676Y217149D01*
X97298Y216733D01*
X98032Y216588D01*
X98765Y216733D01*
X99387Y217149D01*
X99802Y217771D01*
X99948Y218504D01*
X99802Y219237D01*
X99387Y219859D01*
X99051Y220083D01*
Y224803D01*
X98974Y225193D01*
X98752Y225524D01*
X88198Y236078D01*
Y242777D01*
X88660Y242969D01*
X102130Y229499D01*
Y218508D01*
X101795Y218284D01*
X101379Y217663D01*
X101233Y216929D01*
X101379Y216196D01*
X101795Y215574D01*
X102416Y215159D01*
X103150Y215013D01*
X103883Y215159D01*
X104505Y215574D01*
X104757Y215952D01*
X105288Y215846D01*
X105316Y215704D01*
X105731Y215082D01*
X106353Y214667D01*
X107087Y214521D01*
X107820Y214667D01*
X108442Y215082D01*
X108857Y215704D01*
X108885Y215846D01*
X109416Y215952D01*
X109669Y215574D01*
X110290Y215159D01*
X111024Y215013D01*
X111757Y215159D01*
X112379Y215574D01*
X112631Y215952D01*
X113162Y215846D01*
X113190Y215704D01*
X113606Y215082D01*
X114227Y214667D01*
X114961Y214521D01*
X115694Y214667D01*
X116316Y215082D01*
X116731Y215704D01*
X116759Y215846D01*
X117290Y215952D01*
X117543Y215574D01*
X118164Y215159D01*
X118898Y215013D01*
X119631Y215159D01*
X120253Y215574D01*
X120505Y215952D01*
X121036Y215846D01*
X121064Y215704D01*
X121480Y215082D01*
X122101Y214667D01*
X122835Y214521D01*
X123568Y214667D01*
X124190Y215082D01*
X124605Y215704D01*
X124634Y215846D01*
X125164Y215952D01*
X125417Y215574D01*
X126038Y215159D01*
X126772Y215013D01*
X127505Y215159D01*
X128127Y215574D01*
X128379Y215952D01*
X128910Y215846D01*
X128938Y215704D01*
X129354Y215082D01*
X129975Y214667D01*
X130709Y214521D01*
X131442Y214667D01*
X132064Y215082D01*
X132479Y215704D01*
X132508Y215846D01*
X133038Y215952D01*
X133291Y215574D01*
X133912Y215159D01*
X134646Y215013D01*
X135379Y215159D01*
X136001Y215574D01*
X136416Y216196D01*
X136562Y216929D01*
X136416Y217663D01*
X136001Y218284D01*
X135665Y218508D01*
Y225197D01*
Y235109D01*
X143438Y242881D01*
X143658Y243212D01*
X143736Y243602D01*
Y244094D01*
X148473D01*
X148944Y244094D01*
D02*
G37*
G36*
X276933Y214744D02*
X277011Y214353D01*
X277050Y214294D01*
X276662Y213976D01*
X273694Y216944D01*
Y218118D01*
X273927Y218274D01*
X274343Y218895D01*
X274488Y219629D01*
X274343Y220362D01*
X273927Y220984D01*
X273694Y221140D01*
Y227398D01*
X273927Y227554D01*
X274343Y228175D01*
X274488Y228909D01*
X274343Y229642D01*
X273927Y230264D01*
X273694Y230420D01*
Y236678D01*
X273927Y236834D01*
X274343Y237456D01*
X274488Y238189D01*
X274343Y238922D01*
X273927Y239544D01*
X273758Y239657D01*
X273909Y240158D01*
X276933D01*
Y214744D01*
D02*
G37*
G36*
X280704Y239657D02*
X280535Y239544D01*
X280119Y238922D01*
X279973Y238189D01*
X280119Y237456D01*
X280535Y236834D01*
X280768Y236678D01*
Y230420D01*
X280535Y230264D01*
X280119Y229642D01*
X279973Y228909D01*
X280119Y228175D01*
X280535Y227554D01*
X280768Y227398D01*
Y221140D01*
X280535Y220984D01*
X280119Y220362D01*
X279973Y219629D01*
X280119Y218895D01*
X280535Y218274D01*
X280768Y218118D01*
Y213916D01*
X280306Y213760D01*
X280268Y213768D01*
X280062Y214076D01*
X278972Y215166D01*
Y240158D01*
X280553D01*
X280704Y239657D01*
D02*
G37*
G36*
X198982Y239696D02*
X192980Y233693D01*
X192759Y233363D01*
X192681Y232972D01*
Y212814D01*
X192759Y212423D01*
X192876Y212248D01*
X192488Y211929D01*
X190969Y213448D01*
X191024Y213723D01*
X190878Y214457D01*
X190463Y215078D01*
X190229Y215234D01*
Y221492D01*
X190463Y221648D01*
X190878Y222270D01*
X191024Y223003D01*
X190878Y223737D01*
X190463Y224358D01*
X190229Y224515D01*
Y230772D01*
X190463Y230928D01*
X190878Y231550D01*
X191024Y232283D01*
X190878Y233017D01*
X190463Y233639D01*
X189841Y234054D01*
X189108Y234200D01*
X188374Y234054D01*
X188356Y234042D01*
X188038Y234430D01*
X193765Y240158D01*
X198791D01*
X198982Y239696D01*
D02*
G37*
G36*
X285988Y205394D02*
X285813Y205264D01*
X285509Y205166D01*
X283011Y207664D01*
Y208838D01*
X283245Y208994D01*
X283660Y209615D01*
X283806Y210349D01*
X283660Y211082D01*
X283245Y211704D01*
X283011Y211860D01*
Y218118D01*
X283245Y218274D01*
X283660Y218895D01*
X283806Y219629D01*
X283660Y220362D01*
X283245Y220984D01*
X283011Y221140D01*
Y227398D01*
X283245Y227554D01*
X283660Y228175D01*
X283806Y228909D01*
X283660Y229642D01*
X283245Y230264D01*
X283011Y230420D01*
Y236678D01*
X283245Y236834D01*
X283660Y237456D01*
X283806Y238189D01*
X283660Y238922D01*
X283245Y239544D01*
X283075Y239657D01*
X283227Y240158D01*
X285988D01*
Y205394D01*
D02*
G37*
G36*
X290022Y239657D02*
X289852Y239544D01*
X289437Y238922D01*
X289291Y238189D01*
X289437Y237456D01*
X289852Y236834D01*
X290086Y236678D01*
Y230420D01*
X289852Y230264D01*
X289437Y229642D01*
X289291Y228909D01*
X289437Y228175D01*
X289852Y227554D01*
X290086Y227398D01*
Y221140D01*
X289852Y220984D01*
X289437Y220362D01*
X289291Y219629D01*
X289437Y218895D01*
X289852Y218274D01*
X290086Y218118D01*
Y211860D01*
X289852Y211704D01*
X289437Y211082D01*
X289291Y210349D01*
X289437Y209615D01*
X289852Y208994D01*
X290086Y208838D01*
Y203126D01*
X290070Y203117D01*
X289570Y203399D01*
Y203777D01*
X289493Y204168D01*
X289271Y204498D01*
X288028Y205742D01*
Y240158D01*
X289870D01*
X290022Y239657D01*
D02*
G37*
G36*
X295043Y196486D02*
X295071Y196349D01*
X294610Y196103D01*
X292329Y198384D01*
Y199557D01*
X292562Y199714D01*
X292978Y200335D01*
X293124Y201069D01*
X292978Y201802D01*
X292562Y202424D01*
X292329Y202580D01*
Y208838D01*
X292562Y208994D01*
X292978Y209615D01*
X293124Y210349D01*
X292978Y211082D01*
X292562Y211704D01*
X292329Y211860D01*
Y218118D01*
X292562Y218274D01*
X292978Y218895D01*
X293124Y219629D01*
X292978Y220362D01*
X292562Y220984D01*
X292329Y221140D01*
Y227398D01*
X292562Y227554D01*
X292978Y228175D01*
X293124Y228909D01*
X292978Y229642D01*
X292562Y230264D01*
X292329Y230420D01*
Y236678D01*
X292562Y236834D01*
X292978Y237456D01*
X293124Y238189D01*
X292978Y238922D01*
X292562Y239544D01*
X292393Y239657D01*
X292544Y240158D01*
X295043D01*
Y196486D01*
D02*
G37*
G36*
X299340Y239657D02*
X299170Y239544D01*
X298754Y238922D01*
X298609Y238189D01*
X298754Y237456D01*
X299170Y236834D01*
X299403Y236678D01*
Y230420D01*
X299170Y230264D01*
X298754Y229642D01*
X298609Y228909D01*
X298754Y228175D01*
X299170Y227554D01*
X299403Y227398D01*
Y221140D01*
X299170Y220984D01*
X298754Y220362D01*
X298609Y219629D01*
X298754Y218895D01*
X299170Y218274D01*
X299403Y218118D01*
Y211860D01*
X299170Y211704D01*
X298754Y211082D01*
X298609Y210349D01*
X298754Y209615D01*
X299170Y208994D01*
X299403Y208838D01*
Y202580D01*
X299170Y202424D01*
X298754Y201802D01*
X298609Y201069D01*
X298754Y200335D01*
X299170Y199714D01*
X299403Y199557D01*
Y194811D01*
X298903Y194761D01*
X298850Y195031D01*
X298629Y195362D01*
X297083Y196908D01*
Y240158D01*
X299188D01*
X299340Y239657D01*
D02*
G37*
G36*
X215813Y239696D02*
X211779Y235662D01*
X211558Y235331D01*
X211480Y234941D01*
Y193902D01*
X211526Y193673D01*
X211065Y193427D01*
X209604Y194888D01*
X209659Y195163D01*
X209513Y195896D01*
X209098Y196518D01*
X208864Y196674D01*
Y202932D01*
X209098Y203088D01*
X209513Y203710D01*
X209659Y204443D01*
X209513Y205176D01*
X209098Y205798D01*
X208864Y205954D01*
Y212212D01*
X209098Y212368D01*
X209513Y212990D01*
X209659Y213723D01*
X209513Y214457D01*
X209098Y215078D01*
X208864Y215234D01*
Y221492D01*
X209098Y221648D01*
X209513Y222270D01*
X209659Y223003D01*
X209513Y223737D01*
X209098Y224358D01*
X208864Y224515D01*
Y230772D01*
X209098Y230928D01*
X209513Y231550D01*
X209659Y232283D01*
X209513Y233017D01*
X209098Y233639D01*
X208476Y234054D01*
X207743Y234200D01*
X207009Y234054D01*
X206388Y233639D01*
X205972Y233017D01*
X205826Y232283D01*
X205972Y231550D01*
X206388Y230928D01*
X206621Y230772D01*
Y224515D01*
X206388Y224358D01*
X205972Y223737D01*
X205826Y223003D01*
X205972Y222270D01*
X206388Y221648D01*
X206621Y221492D01*
Y215234D01*
X206388Y215078D01*
X205972Y214457D01*
X205826Y213723D01*
X205972Y212990D01*
X206388Y212368D01*
X206621Y212212D01*
Y205954D01*
X206388Y205798D01*
X205972Y205176D01*
X205826Y204443D01*
X205972Y203710D01*
X206388Y203088D01*
X206621Y202932D01*
Y197128D01*
X206540Y197074D01*
X206040Y197342D01*
Y201486D01*
X205962Y201876D01*
X205742Y202207D01*
X204465Y203484D01*
Y233141D01*
X211481Y240158D01*
X215621D01*
X215813Y239696D01*
D02*
G37*
G36*
X304886Y186614D02*
X304897Y186560D01*
X304436Y186314D01*
X301646Y189103D01*
Y190277D01*
X301880Y190434D01*
X302295Y191055D01*
X302441Y191788D01*
X302295Y192522D01*
X301880Y193144D01*
X301646Y193300D01*
Y199557D01*
X301880Y199714D01*
X302295Y200335D01*
X302441Y201069D01*
X302295Y201802D01*
X301880Y202424D01*
X301646Y202580D01*
Y208838D01*
X301880Y208994D01*
X302295Y209615D01*
X302441Y210349D01*
X302295Y211082D01*
X301880Y211704D01*
X301646Y211860D01*
Y218118D01*
X301880Y218274D01*
X302295Y218895D01*
X302441Y219629D01*
X302295Y220362D01*
X301880Y220984D01*
X301646Y221140D01*
Y227398D01*
X301880Y227554D01*
X302295Y228175D01*
X302441Y228909D01*
X302295Y229642D01*
X301880Y230264D01*
X301646Y230420D01*
Y236678D01*
X301880Y236834D01*
X302295Y237456D01*
X302441Y238189D01*
X302295Y238922D01*
X301880Y239544D01*
X301710Y239657D01*
X301862Y240158D01*
X304886D01*
Y186614D01*
D02*
G37*
G36*
X308657Y239657D02*
X308487Y239544D01*
X308072Y238922D01*
X307926Y238189D01*
X308072Y237456D01*
X308487Y236834D01*
X308721Y236678D01*
Y230420D01*
X308487Y230264D01*
X308072Y229642D01*
X307926Y228909D01*
X308072Y228175D01*
X308487Y227554D01*
X308721Y227398D01*
Y221140D01*
X308487Y220984D01*
X308072Y220362D01*
X307926Y219629D01*
X308072Y218895D01*
X308487Y218274D01*
X308721Y218118D01*
Y211860D01*
X308487Y211704D01*
X308072Y211082D01*
X307926Y210349D01*
X308072Y209615D01*
X308487Y208994D01*
X308721Y208838D01*
Y202580D01*
X308487Y202424D01*
X308072Y201802D01*
X307926Y201069D01*
X308072Y200335D01*
X308487Y199714D01*
X308721Y199557D01*
Y193300D01*
X308487Y193144D01*
X308072Y192522D01*
X307926Y191788D01*
X308072Y191055D01*
X308487Y190434D01*
X308721Y190277D01*
Y184574D01*
X308711Y184568D01*
X308211Y184851D01*
Y185328D01*
X308133Y185719D01*
X307912Y186049D01*
X306925Y187037D01*
Y240158D01*
X308506D01*
X308657Y239657D01*
D02*
G37*
G36*
X223882Y238808D02*
X221031Y235957D01*
X220810Y235626D01*
X220732Y235236D01*
Y184547D01*
X220743Y184494D01*
X220282Y184247D01*
X218922Y185608D01*
X218977Y185883D01*
X218831Y186616D01*
X218415Y187238D01*
X218182Y187394D01*
Y193652D01*
X218415Y193808D01*
X218831Y194430D01*
X218977Y195163D01*
X218831Y195896D01*
X218415Y196518D01*
X218182Y196674D01*
Y202932D01*
X218415Y203088D01*
X218831Y203710D01*
X218977Y204443D01*
X218831Y205176D01*
X218415Y205798D01*
X218182Y205954D01*
Y212212D01*
X218415Y212368D01*
X218831Y212990D01*
X218977Y213723D01*
X218831Y214457D01*
X218415Y215078D01*
X218182Y215234D01*
Y221492D01*
X218415Y221648D01*
X218831Y222270D01*
X218977Y223003D01*
X218831Y223737D01*
X218415Y224358D01*
X218182Y224515D01*
Y230772D01*
X218415Y230928D01*
X218831Y231550D01*
X218977Y232283D01*
X218831Y233017D01*
X218415Y233639D01*
X217794Y234054D01*
X217060Y234200D01*
X216327Y234054D01*
X215705Y233639D01*
X215290Y233017D01*
X215144Y232283D01*
X215290Y231550D01*
X215705Y230928D01*
X215939Y230772D01*
Y224515D01*
X215705Y224358D01*
X215290Y223737D01*
X215144Y223003D01*
X215290Y222270D01*
X215705Y221648D01*
X215939Y221492D01*
Y215234D01*
X215705Y215078D01*
X215290Y214457D01*
X215144Y213723D01*
X215290Y212990D01*
X215705Y212368D01*
X215939Y212212D01*
Y205954D01*
X215705Y205798D01*
X215290Y205176D01*
X215144Y204443D01*
X215290Y203710D01*
X215705Y203088D01*
X215939Y202932D01*
Y196674D01*
X215705Y196518D01*
X215290Y195896D01*
X215144Y195163D01*
X215290Y194430D01*
X215705Y193808D01*
X215939Y193652D01*
Y187916D01*
X215907Y187896D01*
X215407Y188175D01*
Y192014D01*
X215329Y192404D01*
X215108Y192735D01*
X213520Y194324D01*
Y234519D01*
X219158Y240158D01*
X223882D01*
Y238808D01*
D02*
G37*
G36*
X312748Y238408D02*
X312732Y238384D01*
X312646Y237954D01*
X312732Y237525D01*
X312975Y237161D01*
X315414Y234722D01*
Y178164D01*
X314952Y177973D01*
X311427Y181497D01*
X311613Y181775D01*
X311759Y182508D01*
X311613Y183242D01*
X311198Y183863D01*
X310964Y184019D01*
Y190277D01*
X311198Y190434D01*
X311613Y191055D01*
X311759Y191788D01*
X311613Y192522D01*
X311198Y193144D01*
X310964Y193300D01*
Y199557D01*
X311198Y199714D01*
X311613Y200335D01*
X311759Y201069D01*
X311613Y201802D01*
X311198Y202424D01*
X310964Y202580D01*
Y208838D01*
X311198Y208994D01*
X311613Y209615D01*
X311759Y210349D01*
X311613Y211082D01*
X311198Y211704D01*
X310964Y211860D01*
Y218118D01*
X311198Y218274D01*
X311613Y218895D01*
X311759Y219629D01*
X311613Y220362D01*
X311198Y220984D01*
X310964Y221140D01*
Y227398D01*
X311198Y227554D01*
X311613Y228175D01*
X311759Y228909D01*
X311613Y229642D01*
X311198Y230264D01*
X310964Y230420D01*
Y236678D01*
X311198Y236834D01*
X311613Y237456D01*
X311759Y238189D01*
X311613Y238922D01*
X311198Y239544D01*
X311028Y239657D01*
X311179Y240158D01*
X312748D01*
Y238408D01*
D02*
G37*
G36*
X292868Y189513D02*
Y186185D01*
X292946Y185794D01*
X293167Y185464D01*
X294650Y183981D01*
Y174832D01*
X293486Y173668D01*
X293007Y173813D01*
X292978Y173962D01*
X292562Y174583D01*
X292329Y174739D01*
Y180997D01*
X292562Y181153D01*
X292978Y181775D01*
X293124Y182508D01*
X292978Y183242D01*
X292562Y183863D01*
X292329Y184019D01*
Y189766D01*
X292368Y189791D01*
X292868Y189513D01*
D02*
G37*
G36*
X283663Y199077D02*
Y194763D01*
X283741Y194373D01*
X283962Y194042D01*
X285595Y192410D01*
Y174832D01*
X284262Y173499D01*
X283719Y173664D01*
X283660Y173962D01*
X283245Y174583D01*
X283011Y174739D01*
Y180997D01*
X283245Y181153D01*
X283660Y181775D01*
X283806Y182508D01*
X283660Y183242D01*
X283245Y183863D01*
X283011Y184019D01*
Y190277D01*
X283245Y190434D01*
X283660Y191055D01*
X283806Y191788D01*
X283660Y192522D01*
X283245Y193144D01*
X283011Y193300D01*
Y199186D01*
X283163Y199312D01*
X283663Y199077D01*
D02*
G37*
G36*
X264956Y217448D02*
Y213484D01*
X265034Y213094D01*
X265255Y212763D01*
X267091Y210928D01*
Y174438D01*
X265631Y172978D01*
X265170Y173225D01*
X265171Y173228D01*
X265025Y173962D01*
X264610Y174583D01*
X264376Y174739D01*
Y180997D01*
X264610Y181153D01*
X265025Y181775D01*
X265171Y182508D01*
X265025Y183242D01*
X264610Y183863D01*
X264376Y184019D01*
Y190277D01*
X264610Y190434D01*
X265025Y191055D01*
X265171Y191788D01*
X265025Y192522D01*
X264610Y193144D01*
X264376Y193300D01*
Y199557D01*
X264610Y199714D01*
X265025Y200335D01*
X265171Y201069D01*
X265025Y201802D01*
X264610Y202424D01*
X264376Y202580D01*
Y208838D01*
X264610Y208994D01*
X265025Y209615D01*
X265171Y210349D01*
X265025Y211082D01*
X264610Y211704D01*
X264376Y211860D01*
Y217663D01*
X264456Y217716D01*
X264956Y217448D01*
D02*
G37*
G36*
X274225Y208054D02*
Y204310D01*
X274302Y203920D01*
X274523Y203589D01*
X276146Y201967D01*
Y174044D01*
X274916Y172815D01*
X274455Y173061D01*
X274488Y173228D01*
X274343Y173962D01*
X273927Y174583D01*
X273694Y174739D01*
Y180997D01*
X273927Y181153D01*
X274343Y181775D01*
X274488Y182508D01*
X274343Y183242D01*
X273927Y183863D01*
X273694Y184019D01*
Y190277D01*
X273927Y190434D01*
X274343Y191055D01*
X274488Y191788D01*
X274343Y192522D01*
X273927Y193144D01*
X273694Y193300D01*
Y199557D01*
X273927Y199714D01*
X274343Y200335D01*
X274488Y201069D01*
X274343Y201802D01*
X273927Y202424D01*
X273694Y202580D01*
Y208314D01*
X273725Y208333D01*
X274225Y208054D01*
D02*
G37*
G36*
X169137Y224553D02*
X169117Y224358D01*
X168702Y223737D01*
X168556Y223003D01*
X168702Y222270D01*
X169117Y221648D01*
X169351Y221492D01*
Y215234D01*
X169117Y215078D01*
X168702Y214457D01*
X168556Y213723D01*
X168702Y212990D01*
X169117Y212368D01*
X169351Y212212D01*
Y205954D01*
X169117Y205798D01*
X168702Y205176D01*
X168556Y204443D01*
X168702Y203710D01*
X169117Y203088D01*
X169351Y202932D01*
Y196674D01*
X169117Y196518D01*
X168702Y195896D01*
X168556Y195163D01*
X168702Y194430D01*
X169117Y193808D01*
X169351Y193652D01*
Y187394D01*
X169117Y187238D01*
X168702Y186616D01*
X168556Y185883D01*
X168702Y185150D01*
X169117Y184528D01*
X169351Y184372D01*
Y178114D01*
X169117Y177958D01*
X168702Y177336D01*
X168556Y176603D01*
X168702Y175870D01*
X169117Y175248D01*
X169351Y175092D01*
Y170328D01*
X169201Y170226D01*
X168851Y170137D01*
X166098Y172890D01*
Y226938D01*
X166560Y227129D01*
X169137Y224553D01*
D02*
G37*
G36*
X318235Y166017D02*
X315554D01*
X315347Y166517D01*
X317329Y168498D01*
X317329Y168498D01*
X317572Y168862D01*
X317657Y169291D01*
X317657Y169291D01*
Y170470D01*
X317682Y170597D01*
Y177041D01*
X317657Y177167D01*
Y235187D01*
X317572Y235616D01*
X317329Y235980D01*
X317329Y235980D01*
X314788Y238521D01*
Y239353D01*
X314961Y239495D01*
X318235D01*
Y166017D01*
D02*
G37*
G36*
X307981Y173504D02*
X307926Y173228D01*
X308072Y172495D01*
X308185Y172327D01*
X307949Y171886D01*
X306299D01*
X305909Y171808D01*
X305578Y171587D01*
X299345Y165354D01*
X298158D01*
X297967Y165816D01*
X303871Y171720D01*
X304092Y172051D01*
X304169Y172441D01*
Y176608D01*
X304669Y176816D01*
X307981Y173504D01*
D02*
G37*
G36*
X298663Y182784D02*
X298609Y182508D01*
X298754Y181775D01*
X299170Y181153D01*
X299403Y180997D01*
Y174739D01*
X299170Y174583D01*
X298754Y173962D01*
X298609Y173228D01*
X298754Y172495D01*
X299170Y171873D01*
X299792Y171458D01*
X299980Y171420D01*
X300145Y170878D01*
X294621Y165354D01*
X288709D01*
X288518Y165816D01*
X296390Y173688D01*
X296611Y174019D01*
X296689Y174409D01*
Y184051D01*
X297189Y184258D01*
X298663Y182784D01*
D02*
G37*
G36*
X289346Y192064D02*
X289291Y191788D01*
X289437Y191055D01*
X289852Y190434D01*
X290086Y190277D01*
Y184019D01*
X289852Y183863D01*
X289437Y183242D01*
X289291Y182508D01*
X289437Y181775D01*
X289852Y181153D01*
X290086Y180997D01*
Y174739D01*
X289852Y174583D01*
X289437Y173962D01*
X289291Y173228D01*
X289437Y172495D01*
X289852Y171873D01*
X290474Y171458D01*
X290623Y171428D01*
X290768Y170950D01*
X285172Y165354D01*
X279654D01*
X279463Y165816D01*
X287335Y173688D01*
X287556Y174019D01*
X287634Y174409D01*
Y192832D01*
X287575Y193128D01*
X287847Y193357D01*
X287987Y193422D01*
X289346Y192064D01*
D02*
G37*
G36*
X280028Y201344D02*
X279973Y201069D01*
X280119Y200335D01*
X280535Y199714D01*
X280768Y199557D01*
Y193300D01*
X280535Y193144D01*
X280119Y192522D01*
X279973Y191788D01*
X280119Y191055D01*
X280535Y190434D01*
X280768Y190277D01*
Y184019D01*
X280535Y183863D01*
X280119Y183242D01*
X279973Y182508D01*
X280119Y181775D01*
X280535Y181153D01*
X280768Y180997D01*
Y174739D01*
X280535Y174583D01*
X280119Y173962D01*
X279973Y173228D01*
X280119Y172495D01*
X280535Y171873D01*
X281156Y171458D01*
X281454Y171399D01*
X281619Y170856D01*
X276117Y165354D01*
X270993D01*
X270801Y165816D01*
X277886Y172901D01*
X278107Y173232D01*
X278185Y173622D01*
Y202389D01*
X278162Y202503D01*
X278623Y202749D01*
X280028Y201344D01*
D02*
G37*
G36*
X270711Y210624D02*
X270656Y210349D01*
X270802Y209615D01*
X271217Y208994D01*
X271451Y208838D01*
Y202580D01*
X271217Y202424D01*
X270802Y201802D01*
X270656Y201069D01*
X270802Y200335D01*
X271217Y199714D01*
X271451Y199557D01*
Y193300D01*
X271217Y193144D01*
X270802Y192522D01*
X270656Y191788D01*
X270802Y191055D01*
X271217Y190434D01*
X271451Y190277D01*
Y184019D01*
X271217Y183863D01*
X270802Y183242D01*
X270656Y182508D01*
X270802Y181775D01*
X271217Y181153D01*
X271451Y180997D01*
Y174739D01*
X271217Y174583D01*
X270802Y173962D01*
X270656Y173228D01*
X270802Y172495D01*
X271217Y171873D01*
X271839Y171458D01*
X272572Y171312D01*
X272740Y171345D01*
X272986Y170885D01*
X267456Y165354D01*
X261544D01*
X261353Y165816D01*
X268831Y173295D01*
X269052Y173626D01*
X269130Y174016D01*
Y211350D01*
X269093Y211535D01*
X269554Y211781D01*
X270711Y210624D01*
D02*
G37*
G36*
X261393Y219904D02*
X261338Y219629D01*
X261484Y218895D01*
X261899Y218274D01*
X262133Y218118D01*
Y211860D01*
X261899Y211704D01*
X261484Y211082D01*
X261338Y210349D01*
X261484Y209615D01*
X261899Y208994D01*
X262133Y208838D01*
Y202580D01*
X261899Y202424D01*
X261484Y201802D01*
X261338Y201069D01*
X261484Y200335D01*
X261899Y199714D01*
X262133Y199557D01*
Y193300D01*
X261899Y193144D01*
X261484Y192522D01*
X261338Y191788D01*
X261484Y191055D01*
X261899Y190434D01*
X262133Y190277D01*
Y184019D01*
X261899Y183863D01*
X261484Y183242D01*
X261338Y182508D01*
X261484Y181775D01*
X261899Y181153D01*
X262133Y180997D01*
Y174739D01*
X261899Y174583D01*
X261484Y173962D01*
X261338Y173228D01*
X261484Y172495D01*
X261899Y171873D01*
X262521Y171458D01*
X263255Y171312D01*
X263258Y171313D01*
X263505Y170852D01*
X258007Y165354D01*
X255744D01*
Y167294D01*
X259382Y170933D01*
X259603Y171263D01*
X259681Y171653D01*
Y219291D01*
X259603Y219682D01*
X259382Y220012D01*
X257607Y221788D01*
Y222983D01*
X258107Y223190D01*
X261393Y219904D01*
D02*
G37*
G36*
X253668Y231281D02*
X253503Y230739D01*
X253204Y230679D01*
X252582Y230264D01*
X252167Y229642D01*
X252021Y228909D01*
X252167Y228175D01*
X252582Y227554D01*
X252816Y227398D01*
Y221140D01*
X252582Y220984D01*
X252167Y220362D01*
X252021Y219629D01*
X252167Y218895D01*
X252582Y218274D01*
X252816Y218118D01*
Y211860D01*
X252582Y211704D01*
X252167Y211082D01*
X252021Y210349D01*
X252167Y209615D01*
X252582Y208994D01*
X252816Y208838D01*
Y202580D01*
X252582Y202424D01*
X252167Y201802D01*
X252021Y201069D01*
X252167Y200335D01*
X252582Y199714D01*
X252816Y199557D01*
Y193300D01*
X252582Y193144D01*
X252167Y192522D01*
X252021Y191788D01*
X252167Y191055D01*
X252582Y190434D01*
X252816Y190277D01*
Y184019D01*
X252582Y183863D01*
X252167Y183242D01*
X252021Y182508D01*
X252167Y181775D01*
X252582Y181153D01*
X252816Y180997D01*
Y174739D01*
X252582Y174583D01*
X252167Y173962D01*
X252021Y173228D01*
X252167Y172495D01*
X252582Y171873D01*
X253204Y171458D01*
X253937Y171312D01*
X254670Y171458D01*
X255292Y171873D01*
X255708Y172495D01*
X255853Y173228D01*
X255708Y173962D01*
X255292Y174583D01*
X255059Y174739D01*
Y180997D01*
X255292Y181153D01*
X255708Y181775D01*
X255853Y182508D01*
X255708Y183242D01*
X255292Y183863D01*
X255059Y184019D01*
Y190277D01*
X255292Y190434D01*
X255708Y191055D01*
X255853Y191788D01*
X255708Y192522D01*
X255292Y193144D01*
X255059Y193300D01*
Y199557D01*
X255292Y199714D01*
X255708Y200335D01*
X255853Y201069D01*
X255708Y201802D01*
X255292Y202424D01*
X255059Y202580D01*
Y208838D01*
X255292Y208994D01*
X255708Y209615D01*
X255853Y210349D01*
X255708Y211082D01*
X255292Y211704D01*
X255059Y211860D01*
Y218118D01*
X255292Y218274D01*
X255708Y218895D01*
X255853Y219629D01*
X255773Y220030D01*
X256234Y220277D01*
X257642Y218869D01*
Y172076D01*
X254004Y168438D01*
X253782Y168107D01*
X253705Y167717D01*
Y165354D01*
X251252D01*
Y229731D01*
X253207Y231687D01*
X253258Y231692D01*
X253668Y231281D01*
D02*
G37*
G36*
X251467Y232830D02*
X249511Y230874D01*
X249290Y230544D01*
X249213Y230153D01*
Y165354D01*
X248694D01*
Y165354D01*
X248644Y165608D01*
X248500Y165823D01*
X248285Y165967D01*
X248031Y166017D01*
X244757D01*
Y169291D01*
Y169291D01*
D01*
X244707Y169545D01*
X244563Y169760D01*
X244348Y169904D01*
X244094Y169954D01*
Y235558D01*
X244348Y235608D01*
X244563Y235752D01*
X244707Y235967D01*
X244757Y236221D01*
Y239495D01*
X248031D01*
X248285Y239545D01*
X248500Y239689D01*
X248644Y239904D01*
X248694Y240158D01*
X251467D01*
Y232830D01*
D02*
G37*
G36*
X231671Y239904D02*
X231815Y239689D01*
X232030Y239545D01*
X232283Y239495D01*
X235558D01*
Y236221D01*
X235608Y235967D01*
X235752Y235752D01*
X235967Y235608D01*
X236221Y235558D01*
Y169954D01*
X236220Y169954D01*
X235967Y169904D01*
X235752Y169760D01*
X235608Y169545D01*
X235558Y169291D01*
Y166017D01*
X232283D01*
X232030Y165967D01*
X231815Y165823D01*
X231671Y165608D01*
X231621Y165354D01*
X229366D01*
Y171659D01*
X230642Y172935D01*
X230863Y173266D01*
X230941Y173656D01*
Y234513D01*
X230863Y234903D01*
X230642Y235234D01*
X228972Y236904D01*
Y240158D01*
X231621D01*
X231671Y239904D01*
D02*
G37*
G36*
X226933Y236481D02*
X227011Y236091D01*
X227232Y235760D01*
X228902Y234090D01*
Y174079D01*
X227625Y172803D01*
X227404Y172472D01*
X227327Y172082D01*
Y165354D01*
X223854D01*
Y183465D01*
X223777Y183855D01*
X223556Y184186D01*
X222772Y184970D01*
Y234814D01*
X225623Y237665D01*
X225844Y237996D01*
X225921Y238386D01*
Y240158D01*
X226933D01*
Y236481D01*
D02*
G37*
G36*
X215939Y179288D02*
Y178114D01*
X215705Y177958D01*
X215290Y177336D01*
X215144Y176603D01*
X215290Y175870D01*
X215705Y175248D01*
X215939Y175092D01*
Y168834D01*
X215705Y168678D01*
X215290Y168056D01*
X215144Y167323D01*
X215290Y166589D01*
X215705Y165968D01*
X215875Y165854D01*
X215723Y165354D01*
X212831D01*
Y181069D01*
X212753Y181459D01*
X212532Y181790D01*
X211711Y182611D01*
X211744Y182776D01*
X212286Y182940D01*
X215939Y179288D01*
D02*
G37*
G36*
X209429Y183667D02*
Y182431D01*
X209507Y182041D01*
X209728Y181710D01*
X210791Y180646D01*
Y165354D01*
X209080D01*
X208928Y165854D01*
X209098Y165968D01*
X209513Y166589D01*
X209659Y167323D01*
X209513Y168056D01*
X209098Y168678D01*
X208864Y168834D01*
Y175092D01*
X209098Y175248D01*
X209513Y175870D01*
X209659Y176603D01*
X209513Y177336D01*
X209098Y177958D01*
X208864Y178114D01*
Y183897D01*
X208929Y183939D01*
X209429Y183667D01*
D02*
G37*
G36*
X206621Y188568D02*
Y187394D01*
X206388Y187238D01*
X205972Y186616D01*
X205826Y185883D01*
X205972Y185150D01*
X206388Y184528D01*
X206621Y184372D01*
Y178114D01*
X206388Y177958D01*
X205972Y177336D01*
X205826Y176603D01*
X205972Y175870D01*
X206388Y175248D01*
X206621Y175092D01*
Y168834D01*
X206388Y168678D01*
X205972Y168056D01*
X205826Y167323D01*
X205972Y166589D01*
X206388Y165968D01*
X206557Y165854D01*
X206406Y165354D01*
X203086D01*
Y191184D01*
X203034Y191448D01*
X203463Y191726D01*
X206621Y188568D01*
D02*
G37*
G36*
X200111Y192945D02*
Y192121D01*
X200188Y191731D01*
X200409Y191400D01*
X201047Y190762D01*
Y165354D01*
X199762D01*
X199610Y165854D01*
X199780Y165968D01*
X200196Y166589D01*
X200342Y167323D01*
X200196Y168056D01*
X199780Y168678D01*
X199547Y168834D01*
Y175092D01*
X199780Y175248D01*
X200196Y175870D01*
X200342Y176603D01*
X200196Y177336D01*
X199780Y177958D01*
X199547Y178114D01*
Y184372D01*
X199780Y184528D01*
X200196Y185150D01*
X200342Y185883D01*
X200196Y186616D01*
X199780Y187238D01*
X199547Y187394D01*
Y193175D01*
X199611Y193217D01*
X200111Y192945D01*
D02*
G37*
G36*
X197304Y197848D02*
Y196674D01*
X197070Y196518D01*
X196655Y195896D01*
X196509Y195163D01*
X196655Y194430D01*
X197070Y193808D01*
X197304Y193652D01*
Y187394D01*
X197070Y187238D01*
X196655Y186616D01*
X196509Y185883D01*
X196655Y185150D01*
X197070Y184528D01*
X197304Y184372D01*
Y178114D01*
X197070Y177958D01*
X196655Y177336D01*
X196509Y176603D01*
X196655Y175870D01*
X197070Y175248D01*
X197304Y175092D01*
Y168834D01*
X197070Y168678D01*
X196655Y168056D01*
X196509Y167323D01*
X196655Y166589D01*
X197070Y165968D01*
X197240Y165854D01*
X197088Y165354D01*
X194524D01*
Y198706D01*
X194446Y199096D01*
X194225Y199427D01*
X192728Y200924D01*
Y201717D01*
X193228Y201924D01*
X197304Y197848D01*
D02*
G37*
G36*
X190766Y200112D02*
X190987Y199781D01*
X192484Y198284D01*
Y165354D01*
X190445D01*
X190293Y165854D01*
X190463Y165968D01*
X190878Y166589D01*
X191024Y167323D01*
X190878Y168056D01*
X190463Y168678D01*
X190229Y168834D01*
Y175092D01*
X190463Y175248D01*
X190878Y175870D01*
X191024Y176603D01*
X190878Y177336D01*
X190463Y177958D01*
X190229Y178114D01*
Y184372D01*
X190463Y184528D01*
X190878Y185150D01*
X191024Y185883D01*
X190878Y186616D01*
X190463Y187238D01*
X190229Y187394D01*
Y193652D01*
X190463Y193808D01*
X190878Y194430D01*
X191024Y195163D01*
X190878Y195896D01*
X190463Y196518D01*
X190229Y196674D01*
Y200249D01*
X190729Y200298D01*
X190766Y200112D01*
D02*
G37*
G36*
X187986Y207128D02*
Y205954D01*
X187752Y205798D01*
X187337Y205176D01*
X187191Y204443D01*
X187337Y203710D01*
X187752Y203088D01*
X187986Y202932D01*
Y196674D01*
X187752Y196518D01*
X187337Y195896D01*
X187191Y195163D01*
X187337Y194430D01*
X187752Y193808D01*
X187986Y193652D01*
Y187394D01*
X187752Y187238D01*
X187337Y186616D01*
X187191Y185883D01*
X187337Y185150D01*
X187752Y184528D01*
X187986Y184372D01*
Y178114D01*
X187752Y177958D01*
X187337Y177336D01*
X187191Y176603D01*
X187337Y175870D01*
X187752Y175248D01*
X187986Y175092D01*
Y168834D01*
X187752Y168678D01*
X187337Y168056D01*
X187191Y167323D01*
X187337Y166589D01*
X187752Y165968D01*
X187922Y165854D01*
X187771Y165354D01*
X185173D01*
Y208984D01*
X185111Y209296D01*
X185299Y209477D01*
X185523Y209591D01*
X187986Y207128D01*
D02*
G37*
G36*
X181428Y211395D02*
Y210689D01*
X181506Y210299D01*
X181727Y209968D01*
X183134Y208561D01*
Y165354D01*
X181127D01*
X180975Y165854D01*
X181145Y165968D01*
X181561Y166589D01*
X181706Y167323D01*
X181561Y168056D01*
X181145Y168678D01*
X180912Y168834D01*
Y175092D01*
X181145Y175248D01*
X181561Y175870D01*
X181706Y176603D01*
X181561Y177336D01*
X181145Y177958D01*
X180912Y178114D01*
Y184372D01*
X181145Y184528D01*
X181561Y185150D01*
X181706Y185883D01*
X181561Y186616D01*
X181145Y187238D01*
X180912Y187394D01*
Y193652D01*
X181145Y193808D01*
X181561Y194430D01*
X181706Y195163D01*
X181561Y195896D01*
X181145Y196518D01*
X180912Y196674D01*
Y202932D01*
X181145Y203088D01*
X181561Y203710D01*
X181706Y204443D01*
X181561Y205176D01*
X181145Y205798D01*
X180912Y205954D01*
Y211667D01*
X180928Y211677D01*
X181428Y211395D01*
D02*
G37*
G36*
X178668Y216408D02*
Y215234D01*
X178435Y215078D01*
X178019Y214457D01*
X177874Y213723D01*
X178019Y212990D01*
X178435Y212368D01*
X178668Y212212D01*
Y205954D01*
X178435Y205798D01*
X178019Y205176D01*
X177874Y204443D01*
X178019Y203710D01*
X178435Y203088D01*
X178668Y202932D01*
Y196674D01*
X178435Y196518D01*
X178019Y195896D01*
X177874Y195163D01*
X178019Y194430D01*
X178435Y193808D01*
X178668Y193652D01*
Y187394D01*
X178435Y187238D01*
X178019Y186616D01*
X177874Y185883D01*
X178019Y185150D01*
X178435Y184528D01*
X178668Y184372D01*
Y178114D01*
X178435Y177958D01*
X178019Y177336D01*
X177874Y176603D01*
X178019Y175870D01*
X178435Y175248D01*
X178668Y175092D01*
Y168834D01*
X178435Y168678D01*
X178019Y168056D01*
X177874Y167323D01*
X178019Y166589D01*
X178435Y165968D01*
X178605Y165854D01*
X178453Y165354D01*
X176020D01*
Y217846D01*
X175942Y218236D01*
X175721Y218567D01*
X174555Y219734D01*
X174568Y219801D01*
X175111Y219966D01*
X178668Y216408D01*
D02*
G37*
G36*
X172190Y220859D02*
Y219636D01*
X172268Y219246D01*
X172489Y218915D01*
X173980Y217424D01*
Y165354D01*
X171809D01*
X171658Y165854D01*
X171827Y165968D01*
X172243Y166589D01*
X172389Y167323D01*
X172243Y168056D01*
X171827Y168678D01*
X171594Y168834D01*
Y175092D01*
X171827Y175248D01*
X172243Y175870D01*
X172389Y176603D01*
X172243Y177336D01*
X171827Y177958D01*
X171594Y178114D01*
Y184372D01*
X171827Y184528D01*
X172243Y185150D01*
X172389Y185883D01*
X172243Y186616D01*
X171827Y187238D01*
X171594Y187394D01*
Y193652D01*
X171827Y193808D01*
X172243Y194430D01*
X172389Y195163D01*
X172243Y195896D01*
X171827Y196518D01*
X171594Y196674D01*
Y202932D01*
X171827Y203088D01*
X172243Y203710D01*
X172389Y204443D01*
X172243Y205176D01*
X171827Y205798D01*
X171594Y205954D01*
Y212212D01*
X171827Y212368D01*
X172243Y212990D01*
X172389Y213723D01*
X172243Y214457D01*
X171827Y215078D01*
X171594Y215234D01*
Y221057D01*
X171690Y221123D01*
X172190Y220859D01*
D02*
G37*
G36*
X168542Y239696D02*
X164183Y235337D01*
X163940Y234973D01*
X163855Y234544D01*
X163855Y234543D01*
Y172425D01*
X163855Y172425D01*
X163940Y171996D01*
X164183Y171632D01*
X167128Y168687D01*
Y166343D01*
X167206Y165953D01*
X167271Y165854D01*
X167004Y165354D01*
X166017D01*
X165967Y165608D01*
X165823Y165823D01*
X165608Y165967D01*
X165354Y166017D01*
X162080D01*
Y239495D01*
X165354D01*
X165608Y239545D01*
X165823Y239689D01*
X165967Y239904D01*
X166017Y240158D01*
X168351D01*
X168542Y239696D01*
D02*
G37*
G36*
X231671Y161164D02*
X231815Y160949D01*
X232030Y160805D01*
X232283Y160755D01*
X235558D01*
Y87277D01*
X162080D01*
Y160755D01*
X165354D01*
X165608Y160805D01*
X165823Y160949D01*
X165967Y161164D01*
X166017Y161417D01*
X169099D01*
Y160984D01*
X169177Y160593D01*
X169398Y160263D01*
X184020Y145641D01*
Y130516D01*
X183684Y130292D01*
X183269Y129670D01*
X183123Y128937D01*
X183269Y128204D01*
X183684Y127582D01*
X184306Y127166D01*
X185039Y127021D01*
X185773Y127166D01*
X186394Y127582D01*
X186810Y128204D01*
X186956Y128937D01*
X186810Y129670D01*
X186394Y130292D01*
X186059Y130516D01*
Y146063D01*
X185981Y146453D01*
X185760Y146784D01*
X171627Y160917D01*
X171834Y161417D01*
X173980D01*
Y160827D01*
X174058Y160437D01*
X174279Y160106D01*
X187957Y146428D01*
Y128548D01*
X187621Y128324D01*
X187206Y127702D01*
X187060Y126969D01*
X187206Y126235D01*
X187621Y125613D01*
X188243Y125198D01*
X188976Y125052D01*
X189710Y125198D01*
X190331Y125613D01*
X190747Y126235D01*
X190893Y126969D01*
X190747Y127702D01*
X190331Y128324D01*
X189996Y128548D01*
Y146850D01*
X189918Y147241D01*
X189697Y147571D01*
X176351Y160917D01*
X176558Y161417D01*
X183134D01*
Y160728D01*
X183212Y160338D01*
X183433Y160007D01*
X191894Y151546D01*
Y130516D01*
X191558Y130292D01*
X191143Y129670D01*
X190997Y128937D01*
X191143Y128204D01*
X191558Y127582D01*
X192180Y127166D01*
X192913Y127021D01*
X193647Y127166D01*
X194268Y127582D01*
X194684Y128204D01*
X194830Y128937D01*
X194684Y129670D01*
X194268Y130292D01*
X193933Y130516D01*
Y151969D01*
X193855Y152359D01*
X193634Y152690D01*
X185406Y160917D01*
X185614Y161417D01*
X192484D01*
Y161221D01*
X192562Y160830D01*
X192783Y160500D01*
X194650Y158633D01*
Y133071D01*
X194727Y132681D01*
X194948Y132350D01*
X195831Y131467D01*
Y128548D01*
X195495Y128324D01*
X195080Y127702D01*
X194934Y126969D01*
X195080Y126235D01*
X195495Y125613D01*
X196117Y125198D01*
X196850Y125052D01*
X197584Y125198D01*
X198205Y125613D01*
X198621Y126235D01*
X198767Y126969D01*
X198621Y127702D01*
X198205Y128324D01*
X197870Y128548D01*
Y131890D01*
X197792Y132280D01*
X197571Y132611D01*
X196689Y133493D01*
Y159055D01*
X196611Y159445D01*
X196390Y159776D01*
X195211Y160955D01*
X195402Y161417D01*
X199086D01*
X199277Y160955D01*
X198492Y160170D01*
X198271Y159839D01*
X198193Y159449D01*
Y146850D01*
X198271Y146460D01*
X198492Y146129D01*
X201343Y143279D01*
Y141761D01*
X200066Y140485D01*
X199845Y140154D01*
X199768Y139764D01*
Y130516D01*
X199432Y130292D01*
X199017Y129670D01*
X198871Y128937D01*
X199017Y128204D01*
X199432Y127582D01*
X200054Y127166D01*
X200787Y127021D01*
X201521Y127166D01*
X202143Y127582D01*
X202558Y128204D01*
X202704Y128937D01*
X202558Y129670D01*
X202143Y130292D01*
X201807Y130516D01*
Y139341D01*
X203083Y140618D01*
X203304Y140948D01*
X203382Y141339D01*
Y143701D01*
X203304Y144091D01*
X203083Y144422D01*
X200232Y147273D01*
Y159027D01*
X202623Y161417D01*
X207354D01*
X207545Y160955D01*
X204791Y158201D01*
X204570Y157870D01*
X204492Y157480D01*
Y133099D01*
X204003Y132611D01*
X203782Y132280D01*
X203705Y131890D01*
Y128548D01*
X203369Y128324D01*
X202954Y127702D01*
X202808Y126969D01*
X202954Y126235D01*
X203369Y125613D01*
X203991Y125198D01*
X204724Y125052D01*
X205458Y125198D01*
X206080Y125613D01*
X206495Y126235D01*
X206641Y126969D01*
X206495Y127702D01*
X206080Y128324D01*
X205744Y128548D01*
Y131467D01*
X206233Y131956D01*
X206454Y132287D01*
X206531Y132677D01*
Y157058D01*
X210891Y161417D01*
X211684D01*
X211876Y160955D01*
X207941Y157020D01*
X207719Y156689D01*
X207642Y156299D01*
Y130516D01*
X207306Y130292D01*
X206891Y129670D01*
X206745Y128937D01*
X206891Y128204D01*
X207306Y127582D01*
X207928Y127166D01*
X208661Y127021D01*
X209395Y127166D01*
X210016Y127582D01*
X210432Y128204D01*
X210578Y128937D01*
X210432Y129670D01*
X210016Y130292D01*
X209681Y130516D01*
Y155877D01*
X213486Y159682D01*
X213947Y159436D01*
X213930Y159350D01*
X214009Y158955D01*
X212271Y157217D01*
X212050Y156886D01*
X211972Y156496D01*
Y155516D01*
X211637Y155292D01*
X211222Y154670D01*
X211076Y153937D01*
X211222Y153204D01*
X211637Y152582D01*
X212259Y152166D01*
X212992Y152021D01*
X213725Y152166D01*
X214347Y152582D01*
X214763Y153204D01*
X214909Y153937D01*
X214865Y154156D01*
X215336Y154351D01*
X215440Y154195D01*
X216062Y153779D01*
X216163Y153759D01*
X216308Y153281D01*
X211877Y148850D01*
X211656Y148519D01*
X211579Y148129D01*
Y128548D01*
X211243Y128324D01*
X210828Y127702D01*
X210682Y126969D01*
X210828Y126235D01*
X211243Y125613D01*
X211865Y125198D01*
X212598Y125052D01*
X213332Y125198D01*
X213953Y125613D01*
X214369Y126235D01*
X214515Y126969D01*
X214369Y127702D01*
X213953Y128324D01*
X213618Y128548D01*
Y147707D01*
X221981Y156069D01*
X222202Y156400D01*
X222279Y156790D01*
Y160842D01*
X222855Y161417D01*
X223892D01*
X224001Y161154D01*
X224056Y160917D01*
X223861Y160626D01*
X223784Y160236D01*
Y156820D01*
X215814Y148851D01*
X215593Y148520D01*
X215516Y148130D01*
Y130516D01*
X215180Y130292D01*
X214765Y129670D01*
X214619Y128937D01*
X214765Y128204D01*
X215180Y127582D01*
X215802Y127166D01*
X216535Y127021D01*
X217269Y127166D01*
X217891Y127582D01*
X218306Y128204D01*
X218452Y128937D01*
X218306Y129670D01*
X217891Y130292D01*
X217555Y130516D01*
Y147708D01*
X225524Y155677D01*
X225745Y156007D01*
X225823Y156398D01*
Y159814D01*
X227426Y161417D01*
X231621D01*
X231671Y161164D01*
D02*
G37*
%LPC*%
G36*
X174409Y395617D02*
X173676Y395471D01*
X173054Y395056D01*
X172639Y394434D01*
X172493Y393701D01*
X172639Y392967D01*
X173054Y392346D01*
Y392300D01*
X172639Y391678D01*
X172493Y390945D01*
X172639Y390212D01*
X173054Y389590D01*
X173676Y389174D01*
X174409Y389029D01*
X174685Y389083D01*
X178735Y385034D01*
X179098Y384791D01*
X179527Y384705D01*
X179528Y384705D01*
X199670D01*
X199826Y384472D01*
X200448Y384056D01*
X201181Y383910D01*
X201915Y384056D01*
X202536Y384472D01*
X202952Y385093D01*
X203097Y385827D01*
X202952Y386560D01*
X202536Y387182D01*
X201915Y387597D01*
X201181Y387743D01*
X200448Y387597D01*
X199826Y387182D01*
X199670Y386948D01*
X179992D01*
X176271Y390669D01*
X176326Y390945D01*
X176180Y391678D01*
X175765Y392300D01*
Y392346D01*
X176180Y392967D01*
X176326Y393701D01*
X176180Y394434D01*
X175765Y395056D01*
X175143Y395471D01*
X174409Y395617D01*
D02*
G37*
G36*
X175591Y381838D02*
X174857Y381692D01*
X174235Y381276D01*
X173820Y380655D01*
X173674Y379921D01*
X173820Y379188D01*
X174235Y378566D01*
X174469Y378410D01*
Y368898D01*
X174469Y368898D01*
X174554Y368468D01*
X174797Y368105D01*
X177666Y365236D01*
X177611Y364961D01*
X177757Y364227D01*
X178173Y363606D01*
X178794Y363190D01*
X179527Y363044D01*
X180261Y363190D01*
X180883Y363606D01*
X181298Y364227D01*
X181444Y364961D01*
X181298Y365694D01*
X180883Y366316D01*
X180261Y366731D01*
X179527Y366877D01*
X179252Y366822D01*
X176712Y369362D01*
Y378410D01*
X176946Y378566D01*
X177361Y379188D01*
X177507Y379921D01*
X177361Y380655D01*
X176946Y381276D01*
X176324Y381692D01*
X175591Y381838D01*
D02*
G37*
G36*
X317135Y281309D02*
X308061D01*
Y272235D01*
X317135D01*
Y281309D01*
D02*
G37*
G36*
X307293D02*
X298219D01*
Y272235D01*
X307293D01*
Y281309D01*
D02*
G37*
G36*
X94882Y216877D02*
X94148Y216731D01*
X93527Y216316D01*
X93111Y215694D01*
X92966Y214961D01*
X93111Y214227D01*
X93527Y213606D01*
X94148Y213190D01*
X94844Y213052D01*
X95716Y212180D01*
X96162Y211882D01*
X96689Y211777D01*
X100843D01*
X107934Y204687D01*
X108072Y203991D01*
X108487Y203369D01*
X108864Y203118D01*
X108712Y202618D01*
X107480D01*
X107021Y202428D01*
X106831Y201969D01*
Y196063D01*
X107021Y195604D01*
X107480Y195414D01*
X113386D01*
X113845Y195604D01*
X114035Y196063D01*
Y197541D01*
X114078Y197578D01*
X114535Y197762D01*
X115015Y197442D01*
X115748Y197296D01*
X116481Y197442D01*
X116726Y197606D01*
X117226Y197338D01*
Y195944D01*
X115317Y194035D01*
X114621Y193896D01*
X113999Y193481D01*
X113584Y192859D01*
X113438Y192126D01*
X113584Y191393D01*
X113999Y190771D01*
X114621Y190356D01*
X115354Y190210D01*
X116088Y190356D01*
X116709Y190771D01*
X117125Y191393D01*
X117263Y192088D01*
X119576Y194401D01*
X119576Y194401D01*
X119874Y194847D01*
X119979Y195374D01*
Y200689D01*
X119874Y201216D01*
X119576Y201662D01*
X118001Y203237D01*
X117554Y203535D01*
X117028Y203640D01*
X116121D01*
X114064Y205698D01*
X113617Y205996D01*
X113091Y206101D01*
X111166D01*
X110576Y206495D01*
X109880Y206633D01*
X102387Y214127D01*
X101940Y214425D01*
X101413Y214530D01*
X97259D01*
X96791Y214998D01*
X96652Y215694D01*
X96237Y216316D01*
X95615Y216731D01*
X94882Y216877D01*
D02*
G37*
G36*
X88598Y190961D02*
X84161D01*
Y186524D01*
X88598D01*
Y190961D01*
D02*
G37*
G36*
X148122Y190961D02*
X143685D01*
Y186524D01*
X148122D01*
Y190961D01*
D02*
G37*
G36*
X88598Y185524D02*
X84161D01*
Y181087D01*
X88598D01*
Y185524D01*
D02*
G37*
G36*
X148122Y185524D02*
X143685D01*
Y181087D01*
X148122D01*
Y185524D01*
D02*
G37*
G36*
X129937Y179150D02*
X125500D01*
Y174713D01*
X129937D01*
Y179150D01*
D02*
G37*
G36*
X124500D02*
X120063D01*
Y174713D01*
X124500D01*
Y179150D01*
D02*
G37*
G36*
X226378Y234200D02*
X225645Y234054D01*
X225023Y233639D01*
X224607Y233017D01*
X224462Y232283D01*
X224607Y231550D01*
X225023Y230928D01*
X225256Y230772D01*
Y224515D01*
X225023Y224358D01*
X224607Y223737D01*
X224462Y223003D01*
X224607Y222270D01*
X225023Y221648D01*
X225256Y221492D01*
Y215234D01*
X225023Y215078D01*
X224607Y214457D01*
X224462Y213723D01*
X224607Y212990D01*
X225023Y212368D01*
X225256Y212212D01*
Y205954D01*
X225023Y205798D01*
X224607Y205176D01*
X224462Y204443D01*
X224607Y203710D01*
X225023Y203088D01*
X225256Y202932D01*
Y196674D01*
X225023Y196518D01*
X224607Y195896D01*
X224462Y195163D01*
X224607Y194430D01*
X225023Y193808D01*
X225256Y193652D01*
Y187394D01*
X225023Y187238D01*
X224607Y186616D01*
X224462Y185883D01*
X224607Y185150D01*
X225023Y184528D01*
X225256Y184372D01*
Y178114D01*
X225023Y177958D01*
X224607Y177336D01*
X224462Y176603D01*
X224607Y175870D01*
X225023Y175248D01*
X225645Y174832D01*
X226378Y174687D01*
X227111Y174832D01*
X227733Y175248D01*
X228148Y175870D01*
X228294Y176603D01*
X228148Y177336D01*
X227733Y177958D01*
X227500Y178114D01*
Y184372D01*
X227733Y184528D01*
X228148Y185150D01*
X228294Y185883D01*
X228148Y186616D01*
X227733Y187238D01*
X227500Y187394D01*
Y193652D01*
X227733Y193808D01*
X228148Y194430D01*
X228294Y195163D01*
X228148Y195896D01*
X227733Y196518D01*
X227500Y196674D01*
Y202932D01*
X227733Y203088D01*
X228148Y203710D01*
X228294Y204443D01*
X228148Y205176D01*
X227733Y205798D01*
X227500Y205954D01*
Y212212D01*
X227733Y212368D01*
X228148Y212990D01*
X228294Y213723D01*
X228148Y214457D01*
X227733Y215078D01*
X227500Y215234D01*
Y221492D01*
X227733Y221648D01*
X228148Y222270D01*
X228294Y223003D01*
X228148Y223737D01*
X227733Y224358D01*
X227500Y224515D01*
Y230772D01*
X227733Y230928D01*
X228148Y231550D01*
X228294Y232283D01*
X228148Y233017D01*
X227733Y233639D01*
X227111Y234054D01*
X226378Y234200D01*
D02*
G37*
G36*
X182096Y132884D02*
X173022D01*
Y123809D01*
X182096D01*
Y132884D01*
D02*
G37*
G36*
X172254D02*
X163180D01*
Y123809D01*
X172254D01*
Y132884D01*
D02*
G37*
%LPD*%
D11*
X444776Y193817D02*
Y174138D01*
X454615D01*
X457895Y177418D01*
Y180698D01*
X454615Y183978D01*
X444776D01*
X454615D01*
X457895Y187257D01*
Y190537D01*
X454615Y193817D01*
X444776D01*
X467734Y174138D02*
X474294D01*
X477573Y177418D01*
Y183978D01*
X474294Y187257D01*
X467734D01*
X464454Y183978D01*
Y177418D01*
X467734Y174138D01*
X487413Y190537D02*
Y187257D01*
X484133D01*
X490693D01*
X487413D01*
Y177418D01*
X490693Y174138D01*
X503812Y190537D02*
Y187257D01*
X500532D01*
X507091D01*
X503812D01*
Y177418D01*
X507091Y174138D01*
X520211D02*
X526770D01*
X530050Y177418D01*
Y183978D01*
X526770Y187257D01*
X520211D01*
X516931Y183978D01*
Y177418D01*
X520211Y174138D01*
X536609D02*
Y187257D01*
X539889D01*
X543169Y183978D01*
Y174138D01*
Y183978D01*
X546449Y187257D01*
X549728Y183978D01*
Y174138D01*
X575967Y193817D02*
Y174138D01*
X589086D01*
X598925Y187257D02*
X605485D01*
X608765Y183978D01*
Y174138D01*
X598925D01*
X595646Y177418D01*
X598925Y180698D01*
X608765D01*
X615324Y187257D02*
Y177418D01*
X618604Y174138D01*
X628443D01*
Y170859D01*
X625164Y167579D01*
X621884D01*
X628443Y174138D02*
Y187257D01*
X644842Y174138D02*
X638283D01*
X635003Y177418D01*
Y183978D01*
X638283Y187257D01*
X644842D01*
X648122Y183978D01*
Y180698D01*
X635003D01*
X654681Y187257D02*
Y174138D01*
Y180698D01*
X657961Y183978D01*
X661241Y187257D01*
X664521D01*
D12*
X228101Y322835D02*
G03*
X226230Y322835I-936J-1969D01*
G01*
X218783D02*
G03*
X216912Y322835I-936J-1969D01*
G01*
X209466D02*
G03*
X207595Y322835I-936J-1969D01*
G01*
X200148D02*
G03*
X198277Y322835I-936J-1969D01*
G01*
X190831D02*
G03*
X188959Y322835I-936J-1969D01*
G01*
X181513D02*
G03*
X179642Y322835I-936J-1969D01*
G01*
X173376D02*
G03*
X171705Y322835I-836J-2013D01*
G01*
X135327Y246421D02*
G03*
X136247Y246801I0J1300D01*
G01*
X135327Y246421D02*
G03*
X136247Y246801I0J1300D01*
G01*
X124130Y248031D02*
G03*
X126001Y248031I936J1969D01*
G01*
X114812D02*
G03*
X116684Y248031I936J1969D01*
G01*
X115616Y246096D02*
G03*
X115235Y245177I919J-919D01*
G01*
X115616Y246096D02*
G03*
X115235Y245177I919J-919D01*
G01*
X133099Y244094D02*
G03*
X129893Y244094I-1603J-1476D01*
G01*
X114292Y247146D02*
G03*
X113944Y248031I-1300J0D01*
G01*
X114292Y247146D02*
G03*
X113944Y248031I-1300J0D01*
G01*
X105495D02*
G03*
X107366Y248031I936J1969D01*
G01*
X96177D02*
G03*
X98048Y248031I936J1969D01*
G01*
X86894Y248015D02*
G03*
X88731Y248031I901J1984D01*
G01*
X229266Y162860D02*
G03*
X229646Y163779I-919J919D01*
G01*
X216125Y165354D02*
G03*
X217996Y165354I936J1969D01*
G01*
X214862Y163800D02*
G03*
X213943Y163419I0J-1300D01*
G01*
X214862Y163800D02*
G03*
X213943Y163419I0J-1300D01*
G01*
X212730Y162860D02*
G03*
X213111Y163779I-919J919D01*
G01*
X206807Y165354D02*
G03*
X208678Y165354I936J1969D01*
G01*
X212730Y162860D02*
G03*
X213111Y163779I-919J919D01*
G01*
X229266Y162860D02*
G03*
X229646Y163779I-919J919D01*
G01*
X223754Y161920D02*
G03*
X224135Y162839I-919J919D01*
G01*
X223754Y161920D02*
G03*
X224135Y162839I-919J919D01*
G01*
X203018Y161417D02*
G03*
X203367Y162303I-951J886D01*
G01*
X203018Y161417D02*
G03*
X203367Y162303I-951J886D01*
G01*
X197490Y165354D02*
G03*
X199361Y165354I936J1969D01*
G01*
X178854D02*
G03*
X180726Y165354I936J1969D01*
G01*
X188172D02*
G03*
X190043Y165354I936J1969D01*
G01*
X171092Y165233D02*
G03*
X171408Y165354I-620J2090D01*
G01*
X171419Y164372D02*
G03*
X171092Y165233I-1300J0D01*
G01*
X171419Y164372D02*
G03*
X171092Y165233I-1300J0D01*
G01*
X310778Y240158D02*
G03*
X308907Y240158I-936J-1969D01*
G01*
X301461D02*
G03*
X299589Y240158I-936J-1969D01*
G01*
X292143D02*
G03*
X290272Y240158I-936J-1969D01*
G01*
X282825D02*
G03*
X280954Y240158I-936J-1969D01*
G01*
X276714Y244094D02*
G03*
X276653Y243701I1239J-394D01*
G01*
X276714Y244094D02*
G03*
X276653Y243701I1239J-394D01*
G01*
X268963Y244029D02*
G03*
X268582Y243110I919J-919D01*
G01*
X268963Y244029D02*
G03*
X268582Y243110I919J-919D01*
G01*
X251567Y243181D02*
G03*
X251186Y242262I919J-919D01*
G01*
X251567Y243181D02*
G03*
X251186Y242262I919J-919D01*
G01*
X273508Y240158D02*
G03*
X271637Y240158I-936J-1969D01*
G01*
X264939Y240647D02*
G03*
X264507Y240158I1400J-1670D01*
G01*
X268170D02*
G03*
X267739Y240647I-1832J-1181D01*
G01*
X257235Y240158D02*
G03*
X255364Y240158I-936J-1969D01*
G01*
X264190D02*
G03*
X262319Y240158I-936J-1969D01*
G01*
X219734Y247349D02*
G03*
X220093Y248031I-919J919D01*
G01*
X222573Y243175D02*
G03*
X222954Y244094I-919J919D01*
G01*
X211452Y248031D02*
G03*
X211708Y247556I2032J787D01*
G01*
X219734Y247349D02*
G03*
X220093Y248031I-919J919D01*
G01*
X209449Y246883D02*
G03*
X209830Y247802I-919J919D01*
G01*
X209449Y246883D02*
G03*
X209830Y247802I-919J919D01*
G01*
X217480Y245633D02*
G03*
X218399Y246014I0J1300D01*
G01*
X217480Y245633D02*
G03*
X218399Y246014I0J1300D01*
G01*
X200132Y246128D02*
G03*
X200513Y247047I-919J919D01*
G01*
X200132Y246128D02*
G03*
X200513Y247047I-919J919D01*
G01*
X222573Y243175D02*
G03*
X222954Y244094I-919J919D01*
G01*
X190814Y244881D02*
G03*
X191195Y245800I-919J919D01*
G01*
X190814Y244881D02*
G03*
X191195Y245800I-919J919D01*
G01*
X175231Y248031D02*
G03*
X178844Y247318I2032J787D01*
G01*
X178844D02*
G03*
X180983Y247309I1077J1895D01*
G01*
X183203Y241994D02*
G03*
X183583Y242913I-919J919D01*
G01*
X183203Y241994D02*
G03*
X183583Y242913I-919J919D01*
G01*
X172490Y240158D02*
G03*
X172660Y240827I-1230J669D01*
G01*
X172490Y240158D02*
G03*
X172660Y240827I-1230J669D01*
G01*
X227900Y326772D02*
X231333Y323339D01*
X229597Y326772D02*
X231333Y325036D01*
Y322835D02*
Y326772D01*
X226748Y323005D02*
X230514Y326772D01*
X203656D02*
X231333D01*
X222809D02*
X226608Y322973D01*
X223183Y322835D02*
X227120Y326772D01*
X228274Y322835D02*
X231333Y325894D01*
X228101Y322835D02*
X231333D01*
X229971D02*
X231333Y324197D01*
X224506Y326772D02*
X228443Y322835D01*
X218783D02*
X226230D01*
X219789D02*
X223726Y326772D01*
X219415D02*
X223352Y322835D01*
X221486D02*
X225423Y326772D01*
X221112D02*
X225049Y322835D01*
X218263Y323006D02*
X222029Y326772D01*
X217718D02*
X221655Y322835D01*
X216395D02*
X220332Y326772D01*
X216021D02*
X219958Y322835D01*
X214324Y326772D02*
X218060Y323035D01*
X208072Y322997D02*
X211846Y326772D01*
X199600Y323011D02*
X203249Y326659D01*
X204142Y326772D02*
X207947Y322966D01*
X214698Y322835D02*
X218635Y326772D01*
X213001Y322835D02*
X216938Y326772D01*
X226203D02*
X230140Y322835D01*
X224880D02*
X228817Y326772D01*
X211303Y322835D02*
X215241Y326772D01*
X207536D02*
X211473Y322835D01*
X212627Y326772D02*
X216564Y322835D01*
X209466D02*
X216912D01*
X209607D02*
X213544Y326772D01*
X210930D02*
X214867Y322835D01*
X206212D02*
X210149Y326772D01*
X205839D02*
X209776Y322835D01*
X209233Y326772D02*
X213170Y322835D01*
X202818D02*
X206755Y326772D01*
X202557Y326659D02*
X206382Y322835D01*
X204515D02*
X208452Y326772D01*
X197466Y326659D02*
X201290Y322835D01*
X196030D02*
X199854Y326659D01*
X201121Y322835D02*
X205058Y326772D01*
X200148Y322835D02*
X207595D01*
X200860Y326659D02*
X204685Y322835D01*
X197727D02*
X201552Y326659D01*
X199163D02*
X202988Y322835D01*
X190565Y326772D02*
X194502Y322835D01*
X189395Y322987D02*
X193179Y326772D01*
X194333Y322835D02*
X198157Y326659D01*
X192262Y326772D02*
X196199Y322835D01*
X166304Y326772D02*
X193982D01*
X185474D02*
X189287Y322959D01*
X185848Y322835D02*
X189785Y326772D01*
X193982Y326659D02*
X203656D01*
X195769D02*
X199390Y323039D01*
X194072Y326659D02*
X197896Y322835D01*
X190831D02*
X198277D01*
X190939D02*
X194763Y326659D01*
X176989Y326772D02*
X180719Y323041D01*
X172435Y322999D02*
X176208Y326772D01*
X168503D02*
X172288Y322987D01*
X166304Y323656D02*
X169420Y326772D01*
X166304Y325353D02*
X167723Y326772D01*
X166304Y323656D02*
X169420Y326772D01*
X183777D02*
X187714Y322835D01*
X182454D02*
X186390Y326772D01*
X184151Y322835D02*
X188088Y326772D01*
X181513Y322835D02*
X188959D01*
X180938Y323016D02*
X184694Y326772D01*
X182080D02*
X186017Y322835D01*
X187171Y326772D02*
X191108Y322835D01*
X180383Y326772D02*
X184320Y322835D01*
X188868Y326772D02*
X192805Y322835D01*
X187545D02*
X191482Y326772D01*
X178686D02*
X182623Y322835D01*
X175665D02*
X179602Y326772D01*
X179059Y322835D02*
X182996Y326772D01*
X177362Y322835D02*
X181299Y326772D01*
X192636Y322835D02*
X196460Y326659D01*
X173376Y322835D02*
X179642D01*
X173968D02*
X177905Y326772D01*
X175292D02*
X179229Y322835D01*
X171898Y326772D02*
X175835Y322835D01*
X170574D02*
X174511Y326772D01*
X173595D02*
X177532Y322835D01*
X168877D02*
X172814Y326772D01*
X166806D02*
X170743Y322835D01*
X170201Y326772D02*
X174137Y322835D01*
X167180D02*
X171117Y326772D01*
X166304Y322835D02*
Y326772D01*
Y322835D02*
X171705D01*
X166304Y323880D02*
X167349Y322835D01*
X166304Y325577D02*
X169046Y322835D01*
X241337Y235271D02*
X244094Y232513D01*
X243034Y235271D02*
X244094Y234210D01*
X239640Y235271D02*
X244094Y230816D01*
X236246Y235271D02*
X244094Y227422D01*
X237943Y235271D02*
X244094Y229119D01*
X236221Y227261D02*
X244094Y235135D01*
X236221Y215381D02*
X244094Y223255D01*
X236221Y223867D02*
X244094Y231741D01*
X236221Y221720D02*
X244094Y213845D01*
X236221Y225564D02*
X244094Y233438D01*
X236221Y233599D02*
X244094Y225725D01*
X236221Y231902D02*
X244094Y224028D01*
X236221Y230205D02*
X244094Y222331D01*
X236221Y232352D02*
X239139Y235271D01*
X236221Y218776D02*
X244094Y226649D01*
X236221Y230655D02*
X240836Y235271D01*
X236221Y234049D02*
X237442Y235271D01*
X236221Y228958D02*
X242533Y235271D01*
X236221Y213684D02*
X244094Y221558D01*
X236221Y223416D02*
X244094Y215543D01*
X236221Y220022D02*
X244094Y212148D01*
X236221Y225114D02*
X244094Y217240D01*
X236221Y217078D02*
X244094Y224952D01*
X236901Y170241D02*
X244094Y177435D01*
X236221Y201805D02*
X244094Y209679D01*
Y170241D02*
Y235271D01*
X236221Y200108D02*
X244094Y207982D01*
X236221Y208143D02*
X244094Y200269D01*
X236221Y206446D02*
X244094Y198572D01*
X241992Y170241D02*
X244094Y172344D01*
X240295Y170241D02*
X244094Y174041D01*
X243689Y170241D02*
X244094Y170647D01*
X236901Y170241D02*
X244094Y177435D01*
X236225Y170241D02*
X244094D01*
X238598D02*
X244094Y175738D01*
X236221Y208593D02*
X244094Y216467D01*
X236221Y216628D02*
X244094Y208754D01*
X236221Y214931D02*
X244094Y207057D01*
X236221Y218325D02*
X244094Y210451D01*
X236221Y211987D02*
X244094Y219861D01*
X236221Y210290D02*
X244094Y218164D01*
X236221Y203502D02*
X244094Y211376D01*
X236221Y205199D02*
X244094Y213073D01*
X236221Y209840D02*
X244094Y201966D01*
X236221Y206896D02*
X244094Y214770D01*
X236221Y213234D02*
X244094Y205360D01*
X236221Y197961D02*
X244094Y190087D01*
X236221Y191622D02*
X244094Y199496D01*
X236221Y189926D02*
X244094Y197800D01*
X236221Y193320D02*
X244094Y201194D01*
X236221Y201355D02*
X244094Y193481D01*
X236221Y199658D02*
X244094Y191784D01*
X236221Y192869D02*
X244094Y184995D01*
X236221Y186531D02*
X244094Y194405D01*
X236221Y184834D02*
X244094Y192708D01*
X236221Y188228D02*
X244094Y196102D01*
X236221Y196264D02*
X244094Y188390D01*
X236221Y194567D02*
X244094Y186693D01*
X236221Y226811D02*
X244094Y218937D01*
X236221Y220473D02*
X244094Y228347D01*
X236221Y211537D02*
X244094Y203663D01*
X236221Y222170D02*
X244094Y230044D01*
X236221Y235271D02*
X244094D01*
X236221Y228508D02*
X244094Y220634D01*
X236221Y203052D02*
X244094Y195178D01*
X236221Y196714D02*
X244094Y204588D01*
X236221Y195017D02*
X244094Y202891D01*
X236221Y198411D02*
X244094Y206285D01*
X236221Y204749D02*
X244094Y196875D01*
X236221Y187778D02*
X244094Y179904D01*
X236221Y181440D02*
X244094Y189314D01*
X236221Y179743D02*
X244094Y187617D01*
X236221Y183137D02*
X244094Y191011D01*
X236221Y191172D02*
X244094Y183298D01*
X236221Y189475D02*
X244094Y181601D01*
X236221Y176349D02*
X244094Y184223D01*
X236221Y184384D02*
X244094Y176510D01*
X236221Y182687D02*
X244094Y174813D01*
X236221Y186081D02*
X244094Y178207D01*
X236221Y178046D02*
X244094Y185920D01*
X236221Y179293D02*
X244094Y171419D01*
X236221Y172955D02*
X244094Y180829D01*
X236221Y171258D02*
X244094Y179132D01*
X236221Y180990D02*
X244094Y173116D01*
X236221Y174652D02*
X244094Y182526D01*
X236221Y170241D02*
Y235271D01*
Y174202D02*
X240181Y170241D01*
X236221Y172505D02*
X238484Y170241D01*
X236221Y170808D02*
X236787Y170241D01*
X236221Y177596D02*
X243575Y170241D01*
X236221Y175899D02*
X241878Y170241D01*
X147117Y248031D02*
X148656Y246493D01*
X144017Y247062D02*
X144986Y248031D01*
X145420D02*
X148656Y244795D01*
X144017Y245365D02*
X146683Y248031D01*
X144017D02*
X148656D01*
X137206Y247761D02*
X137576Y247390D01*
Y246249D02*
Y248031D01*
X136247Y246801D02*
X137477Y248031D01*
X136357Y246912D02*
X137298Y245971D01*
X135152Y246421D02*
X136450Y245123D01*
X131893Y246421D02*
X135327D01*
X131568Y244796D02*
X133192Y246421D01*
X132819Y244350D02*
X134889Y246421D01*
X130977Y245504D02*
X131693Y244789D01*
X126001Y248031D02*
X126902D01*
X123359D02*
X125130Y246260D01*
X121661Y248031D02*
X124282Y245411D01*
X121228Y248031D02*
X124130D01*
X116684D02*
X117551D01*
X117835Y244639D02*
X121228Y248031D01*
X125258Y247829D02*
X125979Y247109D01*
X116605Y247996D02*
X117061Y247541D01*
X120596Y247400D02*
X123433Y244563D01*
X115616Y246096D02*
X117551Y248031D01*
X114921Y247983D02*
X116212Y246692D01*
X114292Y246916D02*
X115399Y245809D01*
X144443Y244094D02*
X148380Y248031D01*
X144017Y244094D02*
Y248031D01*
X148656Y244094D02*
Y248031D01*
X146140Y244094D02*
X148656Y246611D01*
X144017Y247738D02*
X147660Y244094D01*
X133455Y246421D02*
X135601Y244274D01*
X134260Y244094D02*
X137576Y247410D01*
X131825Y246353D02*
X134084Y244094D01*
X144017D02*
X148656D01*
X144017Y246041D02*
X145963Y244094D01*
X147837D02*
X148656Y244914D01*
X144017Y244344D02*
X144266Y244094D01*
X135422D02*
X137576Y246249D01*
X133099Y244094D02*
X135422D01*
X139388D02*
X139645Y244351D01*
X139382Y244094D02*
X139645Y244358D01*
X122381Y244094D02*
X126318Y248031D01*
X120684Y244094D02*
X124488Y247898D01*
X129567Y244094D02*
X131893Y246421D01*
X122965Y244094D02*
X126902Y248031D01*
X118899Y245703D02*
X120507Y244094D01*
X114292D02*
Y247146D01*
X118987Y244094D02*
X122924Y248031D01*
X119748Y246551D02*
X122204Y244094D01*
X118051Y244854D02*
X118810Y244094D01*
X117835D02*
Y244639D01*
X129567Y244094D02*
X129893D01*
X115235D02*
Y245177D01*
X114292Y244094D02*
X115235D01*
X117835D02*
X122965D01*
X113944Y248031D02*
X114812D01*
X114148Y247741D02*
X114439Y248031D01*
X110268D02*
X111692Y246607D01*
X105975Y246356D02*
X107650Y248031D01*
X108085D02*
X111692Y244424D01*
X109782Y248031D02*
X111692Y246122D01*
X114292Y246188D02*
X115933Y247828D01*
X107366Y248031D02*
X110268D01*
X114292Y244491D02*
X115268Y245467D01*
X107672Y244659D02*
X110656Y247643D01*
X104299Y248031D02*
X105495D01*
X106823Y245507D02*
X109347Y248031D01*
X105126Y247204D02*
X105827Y247905D01*
X98048Y248031D02*
X100623D01*
X96860Y245726D02*
X99165Y248031D01*
X95163Y247424D02*
X95771Y248031D01*
X94555D02*
X96177D01*
X88731D02*
X90878D01*
X88779Y246131D02*
X90680Y248031D01*
X96012Y246575D02*
X97262Y247826D01*
X89627Y245282D02*
X91627Y247282D01*
X97709Y244878D02*
X100742Y247912D01*
X90476Y244434D02*
X92476Y246434D01*
X87930Y246979D02*
X88983Y248031D01*
X83627Y246070D02*
X84395Y246838D01*
X83627Y244373D02*
X85243Y245989D01*
X83627Y244373D02*
X85243Y245989D01*
X104691Y248031D02*
X108628Y244094D01*
X104299Y248031D02*
X108236Y244094D01*
X108805D02*
X111505Y246795D01*
X106593Y247827D02*
X110325Y244094D01*
X97948Y247987D02*
X101840Y244094D01*
X98622D02*
X101591Y247063D01*
X100656Y247998D02*
X104559Y244094D01*
X99600Y248031D02*
X103537Y244094D01*
X114292Y245218D02*
X115235Y244275D01*
X111692Y244094D02*
Y246607D01*
X110502Y244094D02*
X111692Y245285D01*
X108236Y244094D02*
X111692D01*
X98492D02*
X104559D01*
X100319D02*
X102439Y246214D01*
X103713Y244094D02*
X104136Y244517D01*
X102016Y244094D02*
X103288Y245366D01*
X90878Y248031D02*
X94815Y244094D01*
X89417Y248031D02*
X93354Y244094D01*
X96230Y248007D02*
X100143Y244094D01*
X94555Y248031D02*
X98492Y244094D01*
X83627Y247605D02*
X87138Y244094D01*
X83627D02*
Y247605D01*
X87927Y247825D02*
X91657Y244094D01*
X86894Y248015D02*
X90815Y244094D01*
X94815D01*
X85046D02*
X86092Y245141D01*
X93531Y244094D02*
X94173Y244737D01*
X91834Y244094D02*
X93325Y245585D01*
X83627Y244094D02*
X87138D01*
X83627Y245336D02*
X84869Y244094D01*
X83627Y247034D02*
X86566Y244094D01*
X229646Y164684D02*
X230317Y165354D01*
X229646D02*
X231333D01*
X227046Y164318D02*
Y165354D01*
X229794D02*
X231333Y163815D01*
X229646Y163779D02*
Y165354D01*
X226400D02*
X227046Y164708D01*
X224135Y165354D02*
X227046D01*
X217996D02*
X218385D01*
X224703D02*
X226393Y163665D01*
X224135Y164263D02*
X225226Y165354D01*
X217940Y165329D02*
X218225Y165044D01*
X216981Y163800D02*
X218385Y165204D01*
X216287Y165285D02*
X217377Y164196D01*
X216883Y163800D02*
X218385Y165302D01*
X213111Y165354D02*
X216125D01*
X214862Y163800D02*
X216981D01*
X215186D02*
X216583Y165196D01*
X213111Y165119D02*
X213347Y165354D01*
X214521D02*
X216075Y163800D01*
X210511Y164318D02*
Y165354D01*
X213037Y163348D02*
X215044Y165354D01*
X213111Y163779D02*
Y165354D01*
X203367D02*
X206807D01*
X208678D02*
X210511D01*
X199361D02*
X200767D01*
X209430D02*
X210489Y164296D01*
X203367Y163860D02*
X204861Y165354D01*
X213111Y165067D02*
X214446Y163732D01*
X213060Y163421D02*
X213503Y162979D01*
X199283Y165319D02*
X200767Y163835D01*
X207935Y165152D02*
X209640Y163447D01*
X231333Y161417D02*
Y165354D01*
X229646Y163805D02*
X231333Y162118D01*
X228077Y161417D02*
X231333Y164674D01*
X229774Y161417D02*
X231333Y162977D01*
X224097Y162528D02*
X226923Y165354D01*
X224135Y164226D02*
X225545Y162816D01*
X224135Y162839D02*
Y165354D01*
X224146Y161417D02*
X227046Y164318D01*
X211941Y161417D02*
X213943Y163419D01*
X227823Y161417D02*
X229266Y162860D01*
X227823Y161417D02*
X231333D01*
X224104Y162559D02*
X224696Y161968D01*
X229080Y162675D02*
X230338Y161417D01*
X228232Y161826D02*
X228640Y161417D01*
X223251D02*
X224146D01*
X223251D02*
X223754Y161920D01*
X206036Y165354D02*
X208791Y162599D01*
X207610Y161417D02*
X210511Y164318D01*
X204339Y165354D02*
X207943Y161750D01*
X206015Y161417D02*
X209952Y165354D01*
X204318Y161417D02*
X208069Y165168D01*
X203367Y162303D02*
Y165354D01*
X200767Y162842D02*
Y165354D01*
X203367Y164629D02*
X206579Y161417D01*
X203358Y162154D02*
X206558Y165354D01*
X211287Y161417D02*
X212730Y162860D01*
X212327Y162457D02*
X212654Y162130D01*
X211287Y161417D02*
X211941D01*
X203018D02*
X207610D01*
X203367Y162932D02*
X204882Y161417D01*
X199343D02*
X200767Y162842D01*
X199227Y161417D02*
X200767Y162957D01*
X194804Y165354D02*
X197490D01*
X190762D02*
X192204Y163913D01*
X194804Y163782D02*
X196376Y165354D01*
X194804Y161759D02*
Y165354D01*
X185453D02*
X188172D01*
X190043D02*
X192204D01*
X182277D02*
X182853Y164778D01*
X197599Y165306D02*
X200415Y162490D01*
X189270Y165149D02*
X192204Y162215D01*
X185453Y162917D02*
X187891Y165354D01*
X195853D02*
X199566Y161641D01*
X194804Y162085D02*
X197921Y165202D01*
X185453Y164614D02*
X186194Y165354D01*
X180726D02*
X182853D01*
X180625Y165310D02*
X182853Y163081D01*
X176300Y162249D02*
X179260Y165209D01*
X171408Y165354D02*
X173700D01*
X176300D02*
X178854D01*
X171419Y164156D02*
X172617Y165354D01*
X176300Y163946D02*
X177708Y165354D01*
X172095D02*
X173700Y163749D01*
X166304Y165354D02*
X167298D01*
X167003D02*
X168819Y163539D01*
X167298Y165354D02*
X168819Y163833D01*
X171419Y162459D02*
X173700Y164740D01*
X171419Y164333D02*
X173700Y162052D01*
X171419Y161522D02*
Y164372D01*
X166304Y162436D02*
X168260Y164392D01*
X166304Y164133D02*
X167412Y165240D01*
X166304Y164356D02*
X168819Y161842D01*
X166304Y162436D02*
X168260Y164392D01*
X192204Y161417D02*
Y165354D01*
X194804Y164707D02*
X198093Y161417D01*
X189045D02*
X192204Y164576D01*
X197530Y161417D02*
X200767Y164654D01*
X195833Y161417D02*
X199770Y165354D01*
X185671D02*
X189608Y161417D01*
X185651D02*
X189396Y165162D01*
X185453Y161417D02*
Y165354D01*
X187368D02*
X191305Y161417D01*
X187348D02*
X191285Y165354D01*
X194804Y163010D02*
X196396Y161417D01*
X190742D02*
X192204Y162879D01*
X185453Y163875D02*
X187911Y161417D01*
X195146D02*
X199343D01*
X194804Y161759D02*
X195146Y161417D01*
X180560D02*
X182853Y163711D01*
X176300Y161417D02*
X182853D01*
X185453D02*
X192204D01*
X185453Y162178D02*
X186214Y161417D01*
X177186Y165354D02*
X181123Y161417D01*
X178862D02*
X182799Y165354D01*
X177165Y161417D02*
X181102Y165354D01*
X182853Y161417D02*
Y165354D01*
X178907Y165330D02*
X182820Y161417D01*
X173700D02*
Y165354D01*
X166304Y161417D02*
Y165354D01*
X176300Y164543D02*
X179426Y161417D01*
X176300D02*
Y165354D01*
X172074Y161417D02*
X173700Y163043D01*
X171523Y161417D02*
X173700D01*
X171419Y162636D02*
X172637Y161417D01*
X182256D02*
X182853Y162014D01*
X176300Y162846D02*
X177729Y161417D01*
X166304D02*
X168819D01*
X166304Y162659D02*
X167546Y161417D01*
X168819D02*
Y163833D01*
X166983Y161417D02*
X168819Y163253D01*
X314011Y242552D02*
Y244094D01*
X312468D02*
X314011D01*
X307206D02*
X308791D01*
X312468D02*
X314011Y242552D01*
X308791Y244094D02*
X312468Y240418D01*
X304067Y244094D02*
X304606Y243556D01*
X303789Y244094D02*
X304606Y243279D01*
X297363Y244094D02*
X304067D01*
X302092D02*
X304606Y241581D01*
X300219Y240347D02*
X303966Y244094D01*
X313308Y243254D02*
X314011Y243957D01*
X307206Y240546D02*
X309773Y243113D01*
X307206Y242243D02*
X308924Y243962D01*
X310360Y240306D02*
X311470Y241416D01*
X308514Y240158D02*
X310621Y242265D01*
X307206Y242375D02*
X309285Y240296D01*
X297363Y243733D02*
X300738Y240358D01*
X307206Y240679D02*
X307727Y240158D01*
X301726D02*
X304606Y243037D01*
X293607Y244094D02*
X294763Y242939D01*
X297363Y242583D02*
X298875Y244094D01*
X288308Y243710D02*
X288692Y244094D01*
X297363Y240885D02*
X300572Y244094D01*
X291910D02*
X294763Y241242D01*
X288308Y242013D02*
X290390Y244094D01*
X288308D02*
X294763D01*
X280185D02*
X285169D01*
X288308Y240316D02*
X292087Y244094D01*
X283425D02*
X285708Y241811D01*
X285122Y244094D02*
X285708Y243508D01*
X285169Y244094D02*
X285708Y243556D01*
X281545Y240341D02*
X285234Y244030D01*
X291699Y240312D02*
X294763Y243377D01*
X288308Y242605D02*
X290624Y240289D01*
X279253Y243140D02*
X280207Y244094D01*
X279253Y243162D02*
X280185Y244094D01*
X279259Y243169D02*
X282067Y240361D01*
X279253Y241443D02*
X281904Y244094D01*
X300395D02*
X304332Y240158D01*
X304606D02*
Y243556D01*
X298698Y244094D02*
X302635Y240158D01*
X307206Y244073D02*
X311121Y240158D01*
X307206D02*
Y244094D01*
X294763Y240158D02*
Y244094D01*
X297363Y240158D02*
Y244094D01*
X293241Y240158D02*
X294763Y241680D01*
X298332Y240158D02*
X302269Y244094D01*
X297363Y242036D02*
X299241Y240158D01*
X307206D02*
X308907D01*
X303423D02*
X304606Y241340D01*
X310778Y240158D02*
X312468D01*
X311909D02*
X312318Y240567D01*
X297363Y240158D02*
X299589D01*
X292143D02*
X294763D01*
X301461D02*
X304606D01*
X288516Y244094D02*
X292453Y240158D01*
X288308D02*
Y244094D01*
X285708Y240158D02*
Y243556D01*
X290213Y244094D02*
X294150Y240158D01*
X289847D02*
X293784Y244094D01*
X279664Y240158D02*
X283601Y244094D01*
X279253Y240158D02*
Y243162D01*
X281728Y244094D02*
X285665Y240158D01*
X280108Y244017D02*
X283968Y240158D01*
X284755D02*
X285708Y241110D01*
X288308Y240908D02*
X289059Y240158D01*
X283059D02*
X285708Y242807D01*
X288308Y240158D02*
X290272D01*
X279253D02*
X280954D01*
X279253Y241478D02*
X280574Y240158D01*
X282825D02*
X285708D01*
X274939Y244094D02*
X276653Y242381D01*
X272705Y244094D02*
X276714D01*
X271182Y242572D02*
X272705Y244094D01*
X273242D02*
X276653Y240684D01*
X271182Y241857D02*
X273419Y244094D01*
X268151D02*
X268669Y243577D01*
X267739Y244094D02*
X269028D01*
X262075D02*
X264939D01*
Y240647D02*
Y244094D01*
X263060D02*
X264939Y242216D01*
X268007Y240379D02*
X268582Y240954D01*
X267739Y242810D02*
X268582Y241967D01*
X267739Y243505D02*
X268328Y244094D01*
X267739Y241808D02*
X268582Y242652D01*
X267739Y240647D02*
Y244094D01*
X258138D02*
X259330D01*
X261930Y242788D02*
X263237Y244094D01*
X255237Y241194D02*
X258138Y244094D01*
X261930Y241091D02*
X264934Y244094D01*
X255237Y241186D02*
X258145Y244094D01*
X251567Y243181D02*
X252481Y244094D01*
X248981D02*
X252481D01*
X251181D02*
X251831Y243444D01*
X248981Y241719D02*
X251357Y244094D01*
X248981Y241719D02*
X251357Y244094D01*
X258053Y244010D02*
X259330Y242733D01*
X257205Y243162D02*
X259330Y241036D01*
X261930Y243528D02*
X264870Y240587D01*
X261930Y241830D02*
X263397Y240364D01*
X249484Y244094D02*
X251192Y242386D01*
X248981Y243416D02*
X249660Y244094D01*
X248981Y242899D02*
X251186Y240695D01*
X273037Y240318D02*
X276679Y243960D01*
X274573Y240158D02*
X276653Y242237D01*
Y240158D02*
Y243701D01*
X272125Y243515D02*
X275482Y240158D01*
X271276Y242666D02*
X273785Y240158D01*
X271182Y240160D02*
X275116Y244094D01*
X267739Y241113D02*
X268582Y240270D01*
X262871Y240334D02*
X264939Y242402D01*
X271182Y240158D02*
Y242572D01*
X268582Y240158D02*
Y243110D01*
X276270Y240158D02*
X276653Y240540D01*
X273508Y240158D02*
X276653D01*
X271182Y241064D02*
X271964Y240282D01*
X271182Y240158D02*
X271637D01*
X264391D02*
X264939Y240705D01*
X268170Y240158D02*
X268582D01*
X256108Y240360D02*
X259330Y243582D01*
X257603Y240158D02*
X259330Y241885D01*
X256356Y242313D02*
X258512Y240158D01*
X261930D02*
Y243950D01*
X259330Y240158D02*
Y244094D01*
X255508Y241464D02*
X256629Y240343D01*
X251186Y240158D02*
Y242262D01*
X249117Y240158D02*
X251186Y242227D01*
X248981Y240158D02*
Y244094D01*
X257235Y240158D02*
X259330D01*
X261930D02*
X262319D01*
X264190D02*
X264507D01*
X248981D02*
X251186D01*
X248981Y241202D02*
X250026Y240158D01*
X255237D02*
Y241194D01*
X250814Y240158D02*
X251186Y240529D01*
X229253Y247446D02*
X229838Y248031D01*
X229253D02*
X231333D01*
X226202Y247789D02*
X226444Y248031D01*
X226202D02*
X226653D01*
X229253Y245749D02*
X231333Y247829D01*
X229253Y247355D02*
X231333Y245274D01*
X230273Y248031D02*
X231333Y246971D01*
X222954Y248031D02*
X223602D01*
X220093Y248029D02*
X220354Y247769D01*
Y244633D02*
Y248031D01*
X222954Y244094D02*
Y248031D01*
X219405Y247020D02*
X220354Y246072D01*
X226202Y246092D02*
X226653Y246543D01*
X226202Y245315D02*
X226653Y244864D01*
X226202Y247012D02*
X226653Y246561D01*
X229253Y244052D02*
X231333Y246132D01*
X229253Y245658D02*
X231333Y243577D01*
X226202Y244394D02*
X226653Y244846D01*
X222954Y246866D02*
X223602Y246218D01*
X222954Y244541D02*
X223602Y245189D01*
X222954Y246238D02*
X223602Y246886D01*
X222954Y245169D02*
X223602Y244521D01*
X218557Y246172D02*
X220224Y244504D01*
X209830Y248031D02*
X211452D01*
X209909D02*
X211046Y246894D01*
X200513Y247556D02*
X200989Y248031D01*
X200513D02*
X206921D01*
X200513Y247047D02*
Y248031D01*
X203120D02*
X205021Y246131D01*
X204817Y248031D02*
X205869Y246979D01*
X201423Y248031D02*
X204172Y245282D01*
X218399Y246014D02*
X219734Y247349D01*
X209405Y246838D02*
X210198Y246045D01*
X217398Y245633D02*
X219376Y243655D01*
X208556Y245989D02*
X209349Y245197D01*
X200513Y247245D02*
X203324Y244434D01*
X207708Y245141D02*
X208501Y244348D01*
X206859Y244292D02*
X207652Y243500D01*
X200032Y246028D02*
X202475Y243585D01*
X231333Y240158D02*
Y248031D01*
X229253Y243961D02*
X231333Y241880D01*
X229253Y242354D02*
X231333Y244435D01*
X226653Y240158D02*
Y248031D01*
X229253Y240158D02*
Y248031D01*
X226202Y240158D02*
Y248031D01*
Y243618D02*
X226653Y243167D01*
X222847Y243579D02*
X223602Y242824D01*
X220267Y240158D02*
X223602Y243492D01*
X226202Y242698D02*
X226653Y243149D01*
X223602Y240158D02*
Y248031D01*
X229253Y240657D02*
X231333Y242738D01*
X229253Y242264D02*
X231333Y240183D01*
X226202Y241921D02*
X226653Y241470D01*
X230450Y240158D02*
X231333Y241041D01*
X229253Y240158D02*
X231333D01*
X229253Y240567D02*
X229662Y240158D01*
X226202Y241000D02*
X226653Y241452D01*
X226202Y240158D02*
X226653D01*
X222063Y242665D02*
X223602Y241127D01*
X221965Y240158D02*
X223602Y241794D01*
X219555Y240158D02*
X223602D01*
X221214Y241817D02*
X222874Y240158D01*
X216527Y244807D02*
X218527Y242807D01*
X215878Y240158D02*
X220354Y244633D01*
X215679Y243958D02*
X217679Y241958D01*
X213479Y240158D02*
X220354Y247032D01*
X215176Y240158D02*
X220354Y245335D01*
X211878Y240158D02*
X217353Y245633D01*
X203297Y240158D02*
X211171Y248031D01*
X199184Y245180D02*
X201627Y242737D01*
X198335Y244331D02*
X200778Y241888D01*
X204310Y240158D02*
X211708Y247556D01*
X202724Y240158D02*
X209449Y246883D01*
X199047Y240158D02*
X206921Y248031D01*
X219555Y240158D02*
X222573Y243175D01*
X214830Y243110D02*
X216830Y241110D01*
X213982Y242261D02*
X215982Y240261D01*
X213133Y241413D02*
X214388Y240158D01*
X220366Y240968D02*
X221177Y240158D01*
X212285Y240564D02*
X212691Y240158D01*
X206011Y243444D02*
X206804Y242651D01*
X205162Y242595D02*
X205955Y241803D01*
X204314Y241747D02*
X205106Y240954D01*
X202724Y240158D02*
X204310D01*
X211878D02*
X215878D01*
X203465Y240898D02*
X204206Y240158D01*
X196332Y248031D02*
X197345Y247018D01*
X197913Y247586D02*
Y248031D01*
X191195Y246723D02*
X192503Y248031D01*
X194635D02*
X196497Y246170D01*
X191241Y248031D02*
X194800Y244473D01*
X192938Y248031D02*
X195648Y245321D01*
X191195Y245800D02*
Y248031D01*
X183583D02*
X188595D01*
X191195D02*
X197913D01*
X183583Y247597D02*
X184018Y248031D01*
X183583Y244203D02*
X187412Y248031D01*
X187847D02*
X188595Y247283D01*
X183583Y245900D02*
X185715Y248031D01*
X188595Y246339D02*
Y248031D01*
X191195Y246380D02*
X193951Y243624D01*
X190901Y244977D02*
X193103Y242776D01*
X190057Y244124D02*
X192254Y241927D01*
X184453Y248031D02*
X187370Y245114D01*
X186150Y248031D02*
X188219Y245963D01*
X183583Y247203D02*
X186521Y244266D01*
X183478Y242400D02*
X188595Y247517D01*
X183583Y245507D02*
X185673Y243417D01*
X183583Y243809D02*
X184824Y242568D01*
X172660Y248031D02*
X175231D01*
X172660Y246856D02*
X173836Y248031D01*
X174270D02*
X179917Y242385D01*
X183583Y242913D02*
Y248031D01*
X172660Y245159D02*
X175325Y247824D01*
X169179Y248031D02*
X169860Y247351D01*
X166304Y248031D02*
X169860D01*
X166304Y247288D02*
X167047Y248031D01*
X167482D02*
X169860Y245654D01*
X166304Y247512D02*
X169860Y243956D01*
X166304Y245591D02*
X168744Y248031D01*
X178599Y247096D02*
X180983Y244712D01*
X180323Y247070D02*
X180983Y246409D01*
Y243452D02*
Y247309D01*
X172660Y243462D02*
X176146Y246948D01*
X177357Y246641D02*
X180765Y243234D01*
X166304Y243894D02*
X169860Y247450D01*
X166304Y242197D02*
X169860Y245753D01*
X166304Y242197D02*
X169860Y245753D01*
X166304Y245815D02*
X169860Y242260D01*
X196509Y240158D02*
X204383Y248031D01*
X198206Y240158D02*
X206080Y248031D01*
X197487Y243483D02*
X199930Y241040D01*
X194811Y240158D02*
X202686Y248031D01*
X194161Y240158D02*
X200132Y246128D01*
X190484Y240158D02*
X197913Y247586D01*
X188023Y240158D02*
X195897Y248031D01*
X189720Y240158D02*
X197594Y248031D01*
X189208Y243276D02*
X191405Y241079D01*
X186326Y240158D02*
X194200Y248031D01*
X186090Y240158D02*
X190814Y244881D01*
X182413Y240158D02*
X188595Y246339D01*
X196638Y242634D02*
X199081Y240191D01*
X195790Y241786D02*
X197418Y240158D01*
X188360Y242427D02*
X190557Y240230D01*
X194941Y240937D02*
X195721Y240158D01*
X194161D02*
X199047D01*
X187511Y241579D02*
X188933Y240158D01*
X183418Y242278D02*
X183976Y241720D01*
X186090Y240158D02*
X190484D01*
X182604Y241395D02*
X183127Y240871D01*
X181366Y240158D02*
X183203Y241994D01*
X186663Y240730D02*
X187235Y240158D01*
X181366D02*
X182413D01*
X172660Y247945D02*
X179068Y241536D01*
X174447Y240158D02*
X180983Y246694D01*
X172660Y240827D02*
Y248031D01*
X172750Y240158D02*
X179643Y247051D01*
X176144Y240158D02*
X180983Y244997D01*
X172660Y244551D02*
X177053Y240158D01*
X169860Y241407D02*
Y248031D01*
X172660Y241765D02*
X177554Y246659D01*
X166304Y244118D02*
X169438Y240985D01*
X172660Y246248D02*
X178220Y240688D01*
X166304Y240500D02*
X169860Y244056D01*
X166304Y240158D02*
Y248031D01*
X172660Y242854D02*
X175356Y240158D01*
X172490D02*
X177689D01*
X180983Y243452D01*
X181755Y240547D02*
X182144Y240158D01*
X172660Y241157D02*
X173659Y240158D01*
X166304Y242421D02*
X168568Y240158D01*
X166304D02*
X168611D01*
X166304Y240724D02*
X166871Y240158D01*
X168611D02*
X169860Y241407D01*
X167659Y240158D02*
X169860Y242359D01*
X158660Y317948D02*
X161417Y315190D01*
X160357Y317948D02*
X161417Y316887D01*
X156963Y317948D02*
X161417Y313493D01*
X153569Y317948D02*
X161417Y310099D01*
X155266Y317948D02*
X161417Y311796D01*
X153543Y309198D02*
X161417Y317072D01*
X153543Y306094D02*
X161417Y298220D01*
X153543Y299016D02*
X161417Y306890D01*
X153543Y297319D02*
X161417Y305193D01*
X153543Y307501D02*
X161417Y315375D01*
X153543Y316276D02*
X161417Y308402D01*
X153543Y314579D02*
X161417Y306705D01*
X153543Y315986D02*
X155505Y317948D01*
X153543Y317683D02*
X153807Y317948D01*
X153543Y312882D02*
X161417Y305008D01*
X153543Y312592D02*
X158899Y317948D01*
X153543Y314289D02*
X157202Y317948D01*
X153543Y310895D02*
X160596Y317948D01*
X153543Y307791D02*
X161417Y299917D01*
X153543Y300713D02*
X161417Y308587D01*
X153543Y304397D02*
X161417Y296523D01*
X153543Y311185D02*
X161417Y303311D01*
X153543Y302410D02*
X161417Y310284D01*
X153543Y285439D02*
X161417Y293313D01*
X153543Y294214D02*
X161417Y286340D01*
Y252919D02*
Y317948D01*
X153543Y283742D02*
X161417Y291616D01*
X153543Y292517D02*
X161417Y284643D01*
X153543Y290820D02*
X161417Y282946D01*
X158358Y252919D02*
X161417Y255978D01*
X156661Y252919D02*
X161417Y257675D01*
X160055Y252919D02*
X161417Y254281D01*
X153543Y271863D02*
X161417Y279737D01*
X153543Y289123D02*
X161417Y281249D01*
X154964Y252919D02*
X161417Y259372D01*
X153543Y292228D02*
X161417Y300101D01*
X153543Y301003D02*
X161417Y293128D01*
X153543Y299306D02*
X161417Y291431D01*
X153543Y302700D02*
X161417Y294826D01*
X153543Y295622D02*
X161417Y303496D01*
X153543Y293924D02*
X161417Y301799D01*
X153543Y295911D02*
X161417Y288037D01*
X153543Y288833D02*
X161417Y296707D01*
X153543Y287136D02*
X161417Y295010D01*
X153543Y290530D02*
X161417Y298404D01*
X153543Y297608D02*
X161417Y289734D01*
X153543Y278941D02*
X161417Y271067D01*
X153543Y280638D02*
X161417Y272764D01*
X153543Y270166D02*
X161417Y278040D01*
X153543Y282335D02*
X161417Y274461D01*
X153543Y275257D02*
X161417Y283131D01*
X153543Y273560D02*
X161417Y281434D01*
X153543Y273850D02*
X161417Y265975D01*
X153543Y266772D02*
X161417Y274646D01*
X153543Y265074D02*
X161417Y272949D01*
X153543Y268469D02*
X161417Y276343D01*
X153543Y277244D02*
X161417Y269370D01*
X153543Y275547D02*
X161417Y267673D01*
X153543Y282045D02*
X161417Y289919D01*
X153543Y309488D02*
X161417Y301614D01*
X153543Y280348D02*
X161417Y288222D01*
X153543Y305804D02*
X161417Y313678D01*
X153543Y317948D02*
X161417D01*
X153543Y304107D02*
X161417Y311981D01*
X153543Y276954D02*
X161417Y284828D01*
X153543Y285729D02*
X161417Y277855D01*
X153543Y284032D02*
X161417Y276158D01*
X153543Y287426D02*
X161417Y279552D01*
X153543Y278651D02*
X161417Y286525D01*
X153543Y268758D02*
X161417Y260884D01*
X153543Y261680D02*
X161417Y269554D01*
X153543Y259983D02*
X161417Y267857D01*
X153543Y263377D02*
X161417Y271252D01*
X153543Y272152D02*
X161417Y264279D01*
X153543Y270455D02*
X161417Y262581D01*
X153543Y256589D02*
X161417Y264463D01*
X153543Y265364D02*
X161417Y257490D01*
X153543Y263667D02*
X161417Y255793D01*
X153543Y267061D02*
X161417Y259187D01*
X153543Y258286D02*
X161417Y266160D01*
X153543Y253195D02*
X161417Y261069D01*
X153543Y253195D02*
X161417Y261069D01*
X153543Y260273D02*
X160898Y252919D01*
X153543Y261970D02*
X161417Y254096D01*
X153543Y254892D02*
X161417Y262766D01*
X153543Y252919D02*
Y317948D01*
Y255182D02*
X155807Y252919D01*
X153543Y253485D02*
X154110Y252919D01*
X153543D02*
X161417D01*
X153543Y258576D02*
X159201Y252919D01*
X153543Y256879D02*
X157504Y252919D01*
D45*
X120912Y204527D02*
X133169D01*
X100787Y206299D02*
X101181D01*
X85039Y237795D02*
X98032Y224803D01*
X83661Y239173D02*
X85236Y237598D01*
X98032Y218504D02*
Y224803D01*
X107087Y216437D02*
Y233661D01*
X103150Y216929D02*
Y229922D01*
X81102Y251969D02*
X103150Y229922D01*
X91732Y249016D02*
X107087Y233661D01*
X130709Y233577D02*
X140945Y243813D01*
X130709Y225197D02*
Y233577D01*
X134646Y235531D02*
X142717Y243602D01*
X134646Y225197D02*
Y235531D01*
Y216929D02*
Y225197D01*
X130709Y216437D02*
Y225197D01*
X125984Y226083D02*
X126772Y225295D01*
Y216929D02*
Y225295D01*
X118898Y226673D02*
X119685Y227461D01*
X118898Y216929D02*
Y226673D01*
X112992Y227067D02*
X114961Y225098D01*
Y216437D02*
Y225098D01*
X110236Y217717D02*
Y240256D01*
Y217717D02*
X111024Y216929D01*
X125984Y242351D02*
X131354Y247721D01*
X122835Y242126D02*
X129527Y248819D01*
X116535Y245177D02*
X120472Y249114D01*
X116535Y232972D02*
Y245177D01*
X111024Y249114D02*
X112992Y247146D01*
X101575Y248917D02*
X110236Y240256D01*
X130217Y242618D02*
X131496D01*
X128543Y240945D02*
X130217Y242618D01*
X128543Y239075D02*
Y240945D01*
X140945Y243813D02*
Y266142D01*
X141240Y196457D02*
X147047D01*
X133169Y204527D02*
X141240Y196457D01*
X142717Y243602D02*
Y253346D01*
X111417Y199213D02*
X115748D01*
X221260Y161265D02*
X222835Y162839D01*
Y183465D01*
X221752Y184547D02*
X222835Y183465D01*
X221260Y156790D02*
Y161265D01*
X212598Y148129D02*
X221260Y156790D01*
X214387Y184825D02*
X219685Y179528D01*
X217520Y162500D02*
X219685Y164665D01*
Y179528D01*
X224803Y156398D02*
Y160236D01*
X228346Y163779D02*
Y172082D01*
X224803Y160236D02*
X228346Y163779D01*
Y172082D02*
X229921Y173656D01*
X216535Y148130D02*
X224803Y156398D01*
X182283Y242913D02*
Y254200D01*
X174016Y234646D02*
X182283Y242913D01*
X180577Y255906D02*
X182283Y254200D01*
X217848Y251124D02*
Y255906D01*
Y251124D02*
X218815Y250157D01*
Y248268D02*
Y250157D01*
X217480Y246933D02*
X218815Y248268D01*
X216815Y246933D02*
X217480D01*
X203445Y233563D02*
X216815Y246933D01*
X142717Y253346D02*
X148425Y259055D01*
X139370Y267717D02*
X140945Y266142D01*
X269882Y216339D02*
X275244Y210976D01*
X269882Y216339D02*
Y243110D01*
X274803Y248031D01*
X260630Y225984D02*
Y244488D01*
X271654Y255512D01*
Y276575D01*
X250232Y157712D02*
Y230153D01*
X252486Y232408D01*
X216535Y128937D02*
Y148130D01*
X212598Y126969D02*
Y148129D01*
X212992Y156496D02*
X215846Y159350D01*
X212992Y153937D02*
Y156496D01*
X214862Y162500D02*
X217520D01*
X208661Y156299D02*
X214862Y162500D01*
X208661Y128937D02*
Y156299D01*
X212500Y193902D02*
Y234941D01*
X221654Y244094D02*
Y256693D01*
X212500Y234941D02*
X221654Y244094D01*
X125984Y226083D02*
Y242351D01*
X131354Y247721D02*
X135327D01*
X137008Y249401D01*
Y262205D01*
X221654Y256693D02*
X224016Y259055D01*
X231890Y257874D02*
X232283Y258268D01*
X229921Y173656D02*
Y234513D01*
X227953Y236481D02*
X229921Y234513D01*
X227953Y236481D02*
Y249453D01*
X231890Y253391D01*
Y257874D01*
X170119Y160984D02*
X185039Y146063D01*
X168148Y166343D02*
Y169254D01*
X170119Y160984D02*
Y164372D01*
X168148Y166343D02*
X170119Y164372D01*
X185039Y128937D02*
Y146063D01*
X169581Y234646D02*
X174016D01*
X168154Y231059D02*
Y233218D01*
X169581Y234646D01*
X168154Y231059D02*
X173210Y226003D01*
X252486Y242262D02*
X263779Y253555D01*
X252486Y232408D02*
Y242262D01*
X247638Y155118D02*
X250232Y157712D01*
X253937Y232454D02*
X256588Y229804D01*
X253937Y241732D02*
X267717Y255512D01*
X253937Y232454D02*
Y241732D01*
X263779Y253555D02*
Y276575D01*
X267717Y255512D02*
Y278543D01*
X258661Y171653D02*
Y219291D01*
X256588Y221365D02*
X258661Y219291D01*
X256588Y221365D02*
Y229804D01*
X254724Y167717D02*
X258661Y171653D01*
X254724Y154331D02*
Y167717D01*
X293888Y186185D02*
X295669Y184403D01*
Y174409D02*
Y184403D01*
X293888Y186185D02*
Y192727D01*
X288550Y198064D02*
X293888Y192727D01*
X281102Y159843D02*
X295669Y174409D01*
X286614D02*
Y192832D01*
X284683Y194763D02*
X286614Y192832D01*
X284683Y194763D02*
Y201932D01*
X279341Y207273D02*
X284683Y201932D01*
X271785Y159580D02*
X286614Y174409D01*
X275244Y204310D02*
X277165Y202389D01*
X275244Y204310D02*
Y210976D01*
X277165Y173622D02*
Y202389D01*
X262467Y158924D02*
X277165Y173622D01*
X268110Y174016D02*
Y211350D01*
X265976Y213484D02*
X268110Y211350D01*
X265976Y213484D02*
Y220638D01*
X260630Y225984D02*
X265976Y220638D01*
X257874Y163779D02*
X268110Y174016D01*
X199213Y146850D02*
Y159449D01*
X202067Y162303D02*
Y191184D01*
X199213Y159449D02*
X202067Y162303D01*
X196850Y126969D02*
Y131890D01*
X195669Y133071D02*
Y159055D01*
Y133071D02*
X196850Y131890D01*
X204724Y131890D02*
X205512Y132677D01*
X204724Y126969D02*
Y131890D01*
X205512Y132677D02*
Y157480D01*
X188976Y126969D02*
Y146850D01*
X277953Y214744D02*
Y243701D01*
X281102Y246850D02*
Y258661D01*
X277953Y243701D02*
X281102Y246850D01*
X274803Y272835D02*
X275590Y273622D01*
X274803Y248031D02*
Y272835D01*
X275590Y273622D02*
Y278543D01*
X284646Y246457D02*
Y272441D01*
X283465Y273622D02*
Y278543D01*
Y273622D02*
X284646Y272441D01*
X291339Y258661D02*
Y278543D01*
X291339Y258661D02*
X291339Y258661D01*
X277953Y214744D02*
X279341Y213356D01*
Y207273D02*
Y213356D01*
X287008Y205320D02*
X288550Y203777D01*
Y198064D02*
Y203777D01*
X287008Y205320D02*
Y244094D01*
X284646Y246457D02*
X287008Y244094D01*
X297908Y189100D02*
X303150Y183858D01*
X296063Y196486D02*
X297908Y194641D01*
Y189100D02*
Y194641D01*
X296063Y196486D02*
Y244882D01*
X287402Y253543D02*
X296063Y244882D01*
X307191Y179423D02*
X312598Y174016D01*
X307191Y179423D02*
Y185328D01*
X305906Y186614D02*
X307191Y185328D01*
X305906Y186614D02*
Y244094D01*
X291339Y258661D02*
X305906Y244094D01*
X313768Y237954D02*
Y240956D01*
X295276Y259449D02*
X313768Y240956D01*
X132028Y267185D02*
X134646Y264567D01*
X129921Y276772D02*
X132028Y274665D01*
Y267185D02*
Y274665D01*
X129921Y276772D02*
Y318504D01*
X138189Y326772D01*
X120472Y285827D02*
X122396Y283904D01*
Y277210D02*
X127671Y271935D01*
X122396Y277210D02*
Y283904D01*
X120472Y285827D02*
Y317717D01*
X135171Y332415D01*
X113068Y286145D02*
X118328Y280885D01*
X111417Y294882D02*
X113068Y293231D01*
Y286145D02*
Y293231D01*
X111417Y294882D02*
Y318504D01*
X125984Y333071D01*
X120472Y249114D02*
Y272835D01*
X127671Y264848D02*
X129527Y262992D01*
X127671Y264848D02*
Y271935D01*
X129527Y248819D02*
Y262992D01*
X118328Y274979D02*
Y280885D01*
Y274979D02*
X120472Y272835D01*
X109151Y284156D02*
X111024Y282283D01*
X109151Y284156D02*
Y290062D01*
X103206Y296006D02*
X109151Y290062D01*
X111024Y249114D02*
Y282283D01*
X112992Y227067D02*
Y247146D01*
X122835Y216437D02*
Y242126D01*
X189895Y245800D02*
Y255906D01*
X177165Y221654D02*
Y233071D01*
X189895Y245800D01*
X186221Y212992D02*
Y234055D01*
X199213Y247047D01*
Y255906D01*
X193701Y212814D02*
Y232972D01*
X208530Y247802D02*
Y255906D01*
X193701Y232972D02*
X208530Y247802D01*
X203445Y203062D02*
Y233563D01*
X195674Y203538D02*
X201130Y198082D01*
X193701Y212814D02*
X195674Y210840D01*
Y203538D02*
Y210840D01*
X205021Y194586D02*
X210449Y189158D01*
X203445Y203062D02*
X205021Y201486D01*
Y194586D02*
Y201486D01*
X214387Y184825D02*
Y192014D01*
X212500Y193902D02*
X214387Y192014D01*
X224902Y250492D02*
X225590Y251181D01*
X224902Y238386D02*
Y250492D01*
X221752Y235236D02*
X224902Y238386D01*
X221752Y184547D02*
Y235236D01*
X211811Y163779D02*
Y181069D01*
X210449Y182431D02*
Y189158D01*
Y182431D02*
X211811Y181069D01*
X205512Y157480D02*
X211811Y163779D01*
X201130Y192121D02*
Y198082D01*
Y192121D02*
X202067Y191184D01*
X193504Y161221D02*
Y198706D01*
X191708Y200502D02*
Y207504D01*
Y200502D02*
X193504Y198706D01*
X186221Y212992D02*
X191708Y207504D01*
X193504Y161221D02*
X195669Y159055D01*
X175000Y160827D02*
Y217846D01*
X173210Y219636D02*
Y226003D01*
Y219636D02*
X175000Y217846D01*
Y160827D02*
X188976Y146850D01*
X182448Y210689D02*
X184153Y208984D01*
X177165Y221654D02*
X182448Y216371D01*
Y210689D02*
Y216371D01*
X184153Y160728D02*
Y208984D01*
Y160728D02*
X192913Y151969D01*
X81102Y251969D02*
Y318701D01*
X85827Y323425D02*
Y335827D01*
X81102Y318701D02*
X85827Y323425D01*
X103206Y296006D02*
Y304013D01*
X101969Y305251D02*
Y318504D01*
Y305251D02*
X103206Y304013D01*
X101969Y318504D02*
X116535Y333071D01*
X99606Y293531D02*
X101575Y291562D01*
X94095Y304724D02*
X99606Y299213D01*
Y293531D02*
Y299213D01*
X101575Y248917D02*
Y291562D01*
X90491Y304051D02*
X91732Y302809D01*
X85433Y313779D02*
X90491Y308722D01*
Y304051D02*
Y308722D01*
X91732Y249016D02*
Y302809D01*
X139370Y267717D02*
Y319291D01*
X142913Y322835D01*
X303150Y172441D02*
Y183858D01*
X306299Y170866D02*
X311811D01*
X312598Y171653D01*
Y174016D01*
X253445Y149803D02*
X257874Y154232D01*
X246457Y155118D02*
X247638D01*
X299738Y164304D02*
X306299Y170866D01*
X299738Y149606D02*
Y164304D01*
X290420Y159711D02*
X303150Y172441D01*
X290420Y149606D02*
Y159711D01*
X281102Y149606D02*
Y159843D01*
X271785Y149606D02*
Y159580D01*
X262467Y149606D02*
Y158924D01*
X257874Y154232D02*
Y163779D01*
X287402Y253543D02*
Y276575D01*
X295276Y259449D02*
Y276575D01*
X279528Y265748D02*
Y276575D01*
X277953Y264173D02*
X279528Y265748D01*
X277953Y261811D02*
Y264173D01*
Y261811D02*
X281102Y258661D01*
X192913Y128937D02*
Y151969D01*
X200787Y128937D02*
Y139764D01*
X202362Y141339D01*
Y143701D01*
X199213Y146850D02*
X202362Y143701D01*
X116535Y232972D02*
X119685Y229823D01*
Y227461D02*
Y229823D01*
X91732Y332415D02*
X97900Y338583D01*
X91732Y318504D02*
Y332415D01*
X90551Y317323D02*
X91732Y318504D01*
X86614Y317323D02*
X90551D01*
X85433Y316142D02*
X86614Y317323D01*
X85433Y313779D02*
Y316142D01*
X107087Y338451D02*
X107218Y338583D01*
X107087Y333071D02*
Y338451D01*
X94095Y320079D02*
X107087Y333071D01*
X94095Y304724D02*
Y320079D01*
X116535Y333071D02*
Y338583D01*
X125853D02*
X125984Y338452D01*
Y333071D02*
Y338452D01*
X135171Y332415D02*
Y338583D01*
X138189Y326772D02*
Y333071D01*
X143701Y338583D02*
X144488D01*
X138189Y333071D02*
X143701Y338583D01*
X134646Y264567D02*
X137008Y262205D01*
X134646Y264567D02*
X134646D01*
X142913Y322835D02*
Y333858D01*
X148425Y259055D02*
Y331890D01*
X149606Y333071D01*
X151181D01*
X85827Y335827D02*
X88583Y338583D01*
D46*
X115551Y202264D02*
X117028D01*
X118602Y195374D02*
Y200689D01*
X117028Y202264D02*
X118602Y200689D01*
X115354Y192126D02*
X118602Y195374D01*
X109843Y204724D02*
X113091D01*
X115551Y202264D01*
X94882Y214961D02*
X96689Y213154D01*
X101413D02*
X109843Y204724D01*
X96689Y213154D02*
X101413D01*
X109843Y204724D02*
X109843D01*
X92520Y178740D02*
X93701Y177559D01*
X97638D02*
X100394Y180315D01*
X93701Y177559D02*
X97638D01*
X100394Y180315D02*
X112598D01*
X95669Y180709D02*
X99606Y184646D01*
X111417D01*
D47*
X96457Y201969D02*
X100787Y206299D01*
X83661Y201969D02*
X96457D01*
X172540Y317814D02*
Y320822D01*
Y317814D02*
X174311Y316043D01*
Y314665D02*
X175984Y312992D01*
X174311Y314665D02*
Y316043D01*
X200805Y234672D02*
X215345Y249213D01*
X135039Y241732D02*
X138976Y245669D01*
X134359Y241732D02*
X135039D01*
X175591Y368898D02*
Y379921D01*
Y368898D02*
X179527Y364961D01*
X178077Y267054D02*
X178937Y267913D01*
X213878Y249213D02*
X215345D01*
X174409Y390945D02*
X179527Y385827D01*
X201181D01*
X219291Y161417D02*
X221260Y163386D01*
Y181684D01*
X217060Y185883D02*
X221260Y181684D01*
X219291Y157776D02*
Y161417D01*
X217065Y155550D02*
X219291Y157776D01*
X227559Y251181D02*
X229921Y253543D01*
X229904Y257282D02*
X229921Y257265D01*
Y253543D02*
Y257265D01*
X229904Y257282D02*
Y262447D01*
X227165Y265186D02*
X229904Y262447D01*
X177657Y249213D02*
X179921D01*
X177264Y248819D02*
X177657Y249213D01*
X215345D02*
X216535D01*
X200787Y385433D02*
X201181Y385827D01*
X174409Y390945D02*
Y393701D01*
X214567Y362598D02*
X218228Y358937D01*
X210236Y362598D02*
X214567D01*
X266339Y245079D02*
X268209Y246949D01*
X266339Y238976D02*
Y245079D01*
X216795Y155550D02*
X217065D01*
X200805Y231298D02*
Y234672D01*
X200492Y229823D02*
Y230985D01*
X200805Y231298D01*
X200492Y220571D02*
Y221705D01*
Y224302D02*
Y229823D01*
X200805Y222018D02*
Y223989D01*
X200492Y221705D02*
X200805Y222018D01*
X200492Y224302D02*
X200805Y223989D01*
X198113Y214036D02*
X198425Y213723D01*
X198113Y222691D02*
X198425Y223003D01*
X198113Y214036D02*
Y222691D01*
X198031Y223397D02*
X198425Y223003D01*
X198031Y231890D02*
X198425Y232283D01*
X198031Y223397D02*
Y231890D01*
X178077Y258832D02*
Y267054D01*
Y258832D02*
X178543Y258366D01*
X180577Y265186D02*
X181449Y266057D01*
X180577Y274466D02*
X181449Y273594D01*
Y266057D02*
Y273594D01*
X177264Y257087D02*
X178543Y258366D01*
X177264Y248819D02*
Y257087D01*
X180577Y255906D02*
X181496Y256824D01*
X180577Y265186D02*
X181496Y264267D01*
Y256824D02*
Y264267D01*
X138976Y257874D02*
X138976Y257874D01*
Y245669D02*
Y257874D01*
X222572Y260499D02*
X224016Y259055D01*
X226378Y256693D01*
X226378D01*
X164977Y172425D02*
X168148Y169254D01*
X164977Y172425D02*
Y234544D01*
X171260Y240827D02*
Y255906D01*
X164977Y234544D02*
X171260Y240827D01*
X169765Y237008D02*
X172047D01*
X166611Y228665D02*
Y233854D01*
X169765Y237008D01*
X166611Y228665D02*
X170472Y224803D01*
X256299Y232677D02*
X258661Y230315D01*
X256299Y232677D02*
Y238189D01*
X313768Y237954D02*
X316535Y235187D01*
X83858Y309617D02*
X87795Y305680D01*
X83858Y317323D02*
X86221Y319685D01*
X83858Y309617D02*
Y317323D01*
X316535Y169291D02*
Y170572D01*
Y177066D02*
Y235187D01*
X316561Y170597D02*
Y177041D01*
X316535Y170572D02*
X316561Y170597D01*
X316535Y177066D02*
X316561Y177041D01*
X309842Y181496D02*
X314961Y176378D01*
Y171260D02*
Y176378D01*
X309842Y181496D02*
Y182508D01*
X312205Y168504D02*
X314961Y171260D01*
X308268Y168504D02*
X312205D01*
X309055Y149606D02*
Y161811D01*
X316535Y169291D01*
X305249Y177822D02*
X309842Y173228D01*
Y191788D02*
Y201069D01*
Y219629D02*
Y228909D01*
X286614Y196382D02*
X291207Y191788D01*
X286614Y196382D02*
Y202475D01*
X253937Y191788D02*
Y201069D01*
Y219629D02*
Y228909D01*
X309842D02*
Y238189D01*
Y201069D02*
Y210349D01*
Y219629D01*
Y182508D02*
Y191788D01*
X300525Y188639D02*
X305249Y183914D01*
X258661Y224222D02*
X263255Y219629D01*
X253937Y201069D02*
Y210349D01*
Y219629D01*
Y173228D02*
Y182508D01*
Y191788D01*
X277297Y205662D02*
X281890Y201069D01*
Y207199D02*
X286614Y202475D01*
X291207Y197919D02*
X295932Y193195D01*
X267979Y214942D02*
X272572Y210349D01*
X300525Y191788D02*
Y201069D01*
Y219629D02*
Y228909D01*
X291207Y219629D02*
Y228909D01*
X281890Y191788D02*
Y201069D01*
Y219629D02*
Y228909D01*
X272572Y191788D02*
Y201069D01*
Y219629D02*
Y228909D01*
X263255Y191788D02*
Y201069D01*
X258661Y224222D02*
Y230315D01*
X305249Y177822D02*
Y183914D01*
X300525Y228909D02*
Y238189D01*
Y201069D02*
Y210349D01*
Y219629D01*
Y173228D02*
Y182508D01*
X295932Y187102D02*
X300525Y182508D01*
X295932Y187102D02*
Y193195D01*
X300525Y188639D02*
Y191788D01*
X291207Y228909D02*
Y238189D01*
Y201069D02*
Y210349D01*
Y219629D01*
Y197919D02*
Y201069D01*
Y173228D02*
Y182508D01*
Y191788D01*
X281890Y228909D02*
Y238189D01*
Y210349D02*
Y219629D01*
Y207199D02*
Y210349D01*
Y173228D02*
Y182508D01*
Y191788D01*
X272572Y228909D02*
Y238189D01*
X277297Y205662D02*
Y211755D01*
X272572Y216479D02*
X277297Y211755D01*
X272572Y201069D02*
Y210349D01*
Y216479D02*
Y219629D01*
Y173228D02*
Y182508D01*
Y191788D01*
X263255Y228909D02*
Y238189D01*
Y201069D02*
Y210349D01*
Y219629D01*
X267979Y214942D02*
Y221035D01*
X263255Y225759D02*
X267979Y221035D01*
X263255Y173228D02*
Y182508D01*
Y191788D01*
Y225759D02*
Y228909D01*
X250394Y148425D02*
Y151969D01*
X299738Y93926D02*
Y97075D01*
X257743Y138920D02*
Y145013D01*
X262467Y84646D02*
Y93926D01*
Y103206D02*
Y112486D01*
Y121766D01*
Y140326D02*
X267060Y135733D01*
X262467Y131046D02*
Y134196D01*
X267060Y129640D02*
Y135733D01*
X262467Y140326D02*
Y149606D01*
X271785Y84646D02*
Y93926D01*
Y121766D02*
Y124916D01*
Y103206D02*
Y112486D01*
Y121766D01*
Y131046D02*
Y140326D01*
Y149606D01*
X281102Y84646D02*
Y93926D01*
Y112486D02*
Y115636D01*
Y103206D02*
Y112486D01*
Y131046D02*
Y140326D01*
Y149606D01*
X290420Y84646D02*
Y93926D01*
Y103206D02*
Y106356D01*
Y112486D02*
Y121766D01*
X285696Y111080D02*
X290420Y106356D01*
X285696Y111080D02*
Y117173D01*
X290420Y131046D02*
Y140326D01*
Y149606D01*
X299738Y84646D02*
Y93926D01*
X295013Y101800D02*
X299738Y97075D01*
X295013Y101800D02*
Y107893D01*
X299738Y103206D02*
Y112486D01*
Y121766D01*
Y131046D02*
Y140326D01*
Y149606D01*
X262467Y93926D02*
Y103206D01*
Y121766D02*
Y131046D01*
X271785Y93926D02*
Y103206D01*
Y131046D02*
X276378Y126453D01*
Y120360D02*
Y126453D01*
X281102Y93926D02*
Y103206D01*
Y121766D02*
Y131046D01*
X290420Y93926D02*
Y103206D01*
Y121766D02*
Y131046D01*
X299738Y121766D02*
Y131046D01*
X304331Y92520D02*
Y98613D01*
X253150Y140326D02*
Y145669D01*
X276378Y120360D02*
X281102Y115636D01*
Y121766D02*
X285696Y117173D01*
X267060Y129640D02*
X271785Y124916D01*
X309055Y84646D02*
Y87795D01*
X290420Y112486D02*
X295013Y107893D01*
X253150Y84646D02*
Y93926D01*
Y103206D02*
Y112486D01*
Y121766D01*
X250394Y151969D02*
X252756Y154331D01*
X250394Y148425D02*
X253150Y145669D01*
Y131046D02*
Y140326D01*
X252756Y154331D02*
X254724D01*
X257743Y138920D02*
X262467Y134196D01*
X304331Y92520D02*
X309055Y87795D01*
Y103206D02*
Y112486D01*
Y121766D01*
X299738Y103206D02*
X304331Y98613D01*
X309055Y131046D02*
Y140326D01*
Y149606D01*
X253150Y93926D02*
Y103206D01*
Y121766D02*
Y131046D01*
X309055Y93926D02*
Y103206D01*
Y121766D02*
Y131046D01*
X253150Y149606D02*
X257743Y145013D01*
X170472Y223003D02*
Y224803D01*
X198425Y204443D02*
X203018Y199850D01*
X207743Y195163D02*
X212336Y190570D01*
X217060Y176603D02*
Y179753D01*
X170472Y167323D02*
Y176603D01*
Y185883D02*
Y195163D01*
Y204443D01*
Y213723D02*
Y223003D01*
X179790Y167323D02*
Y176603D01*
Y185883D02*
Y195163D01*
Y204443D01*
Y213723D02*
Y216873D01*
Y223003D02*
Y232283D01*
X175066Y221597D02*
Y227690D01*
Y221597D02*
X179790Y216873D01*
X184383Y212317D02*
Y218410D01*
X198425Y167323D02*
Y176603D01*
Y195163D02*
Y198313D01*
Y185883D02*
Y195163D01*
X203018Y193757D02*
Y199850D01*
X207743Y167323D02*
Y176603D01*
Y185883D02*
Y189033D01*
X212336Y184477D02*
Y190570D01*
X207743Y195163D02*
Y204443D01*
Y213723D02*
Y223003D01*
Y232283D01*
X217060Y167323D02*
Y176603D01*
Y185883D02*
Y195163D01*
Y204443D01*
Y213723D02*
Y223003D01*
Y232283D01*
X226378Y185883D02*
Y195163D01*
Y204443D01*
Y213723D02*
Y223003D01*
Y232283D01*
X170472Y176603D02*
Y185883D01*
Y204443D02*
Y213723D01*
X179790Y176603D02*
Y185883D01*
Y204443D02*
Y213723D01*
X193701Y203037D02*
Y209130D01*
X198425Y176603D02*
Y185883D01*
Y204443D02*
Y213723D01*
X207743Y176603D02*
Y185883D01*
Y204443D02*
Y213723D01*
X217060Y204443D02*
Y213723D01*
X226378Y176603D02*
Y185883D01*
Y204443D02*
Y213723D01*
X184383Y212317D02*
X189108Y207593D01*
X193701Y203037D02*
X198425Y198313D01*
X189108Y167323D02*
Y176603D01*
Y204443D02*
Y207593D01*
Y185883D02*
Y195163D01*
Y204443D01*
Y213723D02*
Y223003D01*
Y232283D01*
X170472D02*
X175066Y227690D01*
X179790Y223003D02*
X184383Y218410D01*
X203018Y193757D02*
X207743Y189033D01*
X212336Y184477D02*
X217060Y179753D01*
X189108Y176603D02*
Y185883D01*
Y213723D02*
X193701Y209130D01*
X86221Y319685D02*
X89370D01*
X87795Y305680D02*
Y305680D01*
X171260Y255906D02*
Y265186D01*
Y274466D01*
Y283746D01*
Y293026D01*
Y302306D01*
Y311586D01*
X180577Y274466D02*
Y283746D01*
Y293026D01*
Y302306D01*
X189895Y255906D02*
Y265186D01*
Y274466D01*
Y283746D01*
Y293026D01*
X199213Y255906D02*
Y265186D01*
Y274466D01*
Y283746D01*
X208530Y255906D02*
Y265186D01*
Y274466D01*
X217848Y255906D02*
Y265186D01*
X180577Y311586D02*
Y320866D01*
X189895Y302306D02*
Y311586D01*
Y320866D01*
X199213Y293026D02*
Y302306D01*
Y311586D01*
Y320866D01*
X208530Y283746D02*
Y293026D01*
Y302306D01*
Y311586D01*
Y320866D01*
X217848Y274466D02*
Y283746D01*
Y293026D01*
Y302306D01*
Y311586D01*
Y320866D01*
X227165Y265186D02*
Y274466D01*
Y283746D01*
Y293026D01*
Y302306D01*
Y311586D01*
Y320866D01*
X175984Y306899D02*
Y312992D01*
Y306899D02*
X180577Y302306D01*
X185302Y297619D02*
X189895Y293026D01*
X185302Y297619D02*
Y303712D01*
X180577Y308436D02*
X185302Y303712D01*
X180577Y308436D02*
Y311586D01*
X194619Y288339D02*
X199213Y283746D01*
X194619Y288339D02*
Y294432D01*
X189895Y299156D02*
X194619Y294432D01*
X189895Y299156D02*
Y302306D01*
X203937Y279059D02*
X208530Y274466D01*
X203937Y279059D02*
Y285152D01*
X199213Y289876D02*
X203937Y285152D01*
X199213Y289876D02*
Y293026D01*
X213255Y269779D02*
X217848Y265186D01*
X213255Y269779D02*
Y275872D01*
X208530Y280596D02*
X213255Y275872D01*
X208530Y280596D02*
Y283746D01*
X222572Y260499D02*
Y266592D01*
X217848Y271316D02*
X222572Y266592D01*
X217848Y271316D02*
Y274466D01*
X225590Y251181D02*
X227559D01*
X143701Y305680D02*
Y314961D01*
Y296400D02*
Y305680D01*
Y287120D02*
Y296400D01*
Y277840D02*
Y287120D01*
Y268560D02*
Y277840D01*
Y259280D02*
Y268560D01*
X134383Y305680D02*
Y314961D01*
Y296400D02*
Y305680D01*
Y287120D02*
Y296400D01*
Y277840D02*
Y287120D01*
Y268560D02*
Y277840D01*
X125066Y305680D02*
Y314961D01*
Y296400D02*
Y305680D01*
Y287120D02*
Y296400D01*
Y277840D02*
Y287120D01*
X115748Y305680D02*
Y314961D01*
Y296400D02*
Y305680D01*
Y287120D02*
Y296400D01*
X106430Y305680D02*
Y314961D01*
Y296400D02*
Y305680D01*
X97113D02*
Y314961D01*
X134383Y250000D02*
Y259280D01*
X125066D02*
Y268560D01*
Y250000D02*
Y259280D01*
X115748Y268560D02*
Y277840D01*
Y259280D02*
Y268560D01*
Y250000D02*
Y259280D01*
X106430Y277840D02*
Y287120D01*
Y268560D02*
Y277840D01*
Y259280D02*
Y268560D01*
Y250000D02*
Y259280D01*
X97113Y287120D02*
Y296400D01*
Y277840D02*
Y287120D01*
Y268560D02*
Y277840D01*
Y259280D02*
Y268560D01*
Y250000D02*
Y259280D01*
X87795Y296400D02*
Y305680D01*
Y287120D02*
Y296400D01*
Y277840D02*
Y287120D01*
Y268560D02*
Y277840D01*
Y259280D02*
Y268560D01*
Y250000D02*
Y259280D01*
X138976Y257874D02*
Y263967D01*
X134383Y268560D02*
X138976Y263967D01*
X125066Y277840D02*
X129659Y273247D01*
Y267154D02*
Y273247D01*
Y267154D02*
X134383Y262430D01*
Y259280D02*
Y262430D01*
X115748Y287120D02*
X120341Y282527D01*
Y276434D02*
Y282527D01*
Y276434D02*
X125066Y271710D01*
Y268560D02*
Y271710D01*
X106430Y296400D02*
X111024Y291807D01*
Y285714D02*
Y291807D01*
Y285714D02*
X115748Y280990D01*
Y277840D02*
Y280990D01*
X97113Y305680D02*
X101706Y301087D01*
Y294994D02*
Y301087D01*
Y294994D02*
X106430Y290270D01*
Y287120D02*
Y290270D01*
X87795Y314961D02*
X92388Y310367D01*
Y304275D02*
Y310367D01*
Y304275D02*
X97113Y299550D01*
Y296400D02*
Y299550D01*
X142913Y333858D02*
X144882D01*
X147244Y336221D01*
Y339764D01*
X144488Y342520D02*
X147244Y339764D01*
X144488Y342520D02*
Y347863D01*
X135171Y353993D02*
Y357143D01*
Y353993D02*
X139895Y349269D01*
Y343176D02*
Y349269D01*
Y343176D02*
X144488Y338583D01*
X125853Y363273D02*
Y366423D01*
Y363273D02*
X130577Y358549D01*
Y352456D02*
Y358549D01*
Y352456D02*
X135171Y347863D01*
X116535Y372553D02*
Y375703D01*
Y372553D02*
X121260Y367829D01*
Y361736D02*
Y367829D01*
Y361736D02*
X125853Y357143D01*
X107218Y381834D02*
Y384983D01*
Y381834D02*
X111942Y377109D01*
Y371016D02*
Y377109D01*
Y371016D02*
X116535Y366423D01*
X97900Y391114D02*
Y394263D01*
Y391114D02*
X102625Y386389D01*
Y380296D02*
Y386389D01*
Y380296D02*
X107218Y375703D01*
X93307Y389576D02*
X97900Y384983D01*
X93307Y389576D02*
Y395669D01*
X88583Y400394D02*
X93307Y395669D01*
X88583Y400394D02*
Y403543D01*
X144488Y394263D02*
Y403543D01*
Y384983D02*
Y394263D01*
Y375703D02*
Y384983D01*
Y366423D02*
Y375703D01*
Y357143D02*
Y366423D01*
Y347863D02*
Y357143D01*
X135171Y394263D02*
Y403543D01*
Y384983D02*
Y394263D01*
Y375703D02*
Y384983D01*
Y366423D02*
Y375703D01*
Y357143D02*
Y366423D01*
X125853Y394263D02*
Y403543D01*
Y384983D02*
Y394263D01*
Y375703D02*
Y384983D01*
Y366423D02*
Y375703D01*
X116535Y394263D02*
Y403543D01*
Y384983D02*
Y394263D01*
Y375703D02*
Y384983D01*
X107218Y394263D02*
Y403543D01*
Y384983D02*
Y394263D01*
X97900D02*
Y403543D01*
X135171Y338583D02*
Y347863D01*
X125853D02*
Y357143D01*
Y338583D02*
Y347863D01*
X116535Y357143D02*
Y366423D01*
Y347863D02*
Y357143D01*
Y338583D02*
Y347863D01*
X107218Y366423D02*
Y375703D01*
Y357143D02*
Y366423D01*
Y347863D02*
Y357143D01*
Y338583D02*
Y347863D01*
X97900Y375703D02*
Y384983D01*
Y366423D02*
Y375703D01*
Y357143D02*
Y366423D01*
Y347863D02*
Y357143D01*
Y338583D02*
Y347863D01*
X88583Y384983D02*
Y394263D01*
Y375703D02*
Y384983D01*
Y366423D02*
Y375703D01*
Y357143D02*
Y366423D01*
Y347863D02*
Y357143D01*
Y338583D02*
Y347863D01*
D51*
X107283Y174213D02*
D03*
X125000D02*
D03*
X83661Y229134D02*
D03*
X302756Y276772D02*
D03*
X166142Y374803D02*
D03*
Y362598D02*
D03*
X148622Y174213D02*
D03*
X83661Y174213D02*
D03*
X148622Y186024D02*
D03*
X83661Y186024D02*
D03*
X166142Y350394D02*
D03*
X148622Y198031D02*
D03*
X198819Y331496D02*
D03*
X83661Y201969D02*
D03*
Y239173D02*
D03*
X312598Y276772D02*
D03*
X177559Y128347D02*
D03*
X167717D02*
D03*
D52*
X146260Y195669D02*
D03*
X86024Y236811D02*
D03*
X104724Y197441D02*
D03*
X172540Y320822D02*
D03*
X94882Y214961D02*
D03*
X120912Y204527D02*
D03*
X101181Y206299D02*
D03*
X91732Y214567D02*
D03*
X82284Y220866D02*
D03*
X109843Y204724D02*
D03*
X98032Y218504D02*
D03*
X95276Y233858D02*
D03*
X131496Y242618D02*
D03*
X128543Y239075D02*
D03*
X135039Y241732D02*
D03*
X140157Y207776D02*
D03*
Y211319D02*
D03*
X171450Y387520D02*
D03*
X175591Y379921D02*
D03*
X92520Y178740D02*
D03*
X112598Y180315D02*
D03*
X111417Y184646D02*
D03*
X95669Y180315D02*
D03*
X91732Y171653D02*
D03*
X132677Y194095D02*
D03*
X115748Y199213D02*
D03*
X119685Y183858D02*
D03*
X115354Y192126D02*
D03*
X178937Y267913D02*
D03*
X168504Y338583D02*
D03*
X171653D02*
D03*
X144095Y212106D02*
D03*
X147244D02*
D03*
X226772Y125984D02*
D03*
X229921D02*
D03*
X250394Y279528D02*
D03*
X253543D02*
D03*
X143701Y240846D02*
D03*
X123622Y207874D02*
D03*
Y211024D02*
D03*
X179921Y249213D02*
D03*
X213484Y248819D02*
D03*
X216535Y249213D02*
D03*
X228346Y348819D02*
D03*
X177953Y350000D02*
D03*
X221260Y343307D02*
D03*
Y346457D02*
D03*
X200787Y350000D02*
D03*
X197638D02*
D03*
X192126D02*
D03*
X179527Y364961D02*
D03*
X201181Y385827D02*
D03*
X174409Y390945D02*
D03*
Y393701D02*
D03*
X194882Y350000D02*
D03*
X219291Y375984D02*
D03*
X210236Y362598D02*
D03*
X218898Y367323D02*
D03*
X214961Y366535D02*
D03*
X211811D02*
D03*
X199606Y399213D02*
D03*
X194882D02*
D03*
X233405Y377677D02*
D03*
X224409Y381496D02*
D03*
X208661Y366535D02*
D03*
X221595Y365866D02*
D03*
X233405Y366063D02*
D03*
X220472Y386221D02*
D03*
X184193Y399331D02*
D03*
X180709Y351969D02*
D03*
X204331Y399213D02*
D03*
X218228Y358937D02*
D03*
X268209Y246949D02*
D03*
X266339Y238976D02*
D03*
X215846Y159350D02*
D03*
X212992Y153937D02*
D03*
X216795Y155550D02*
D03*
X200492Y220571D02*
D03*
Y229823D02*
D03*
X177264Y248819D02*
D03*
X178543Y258366D02*
D03*
X226378Y256693D02*
D03*
X232283Y258268D02*
D03*
X256299Y238189D02*
D03*
X212598Y126969D02*
D03*
X204724D02*
D03*
X196850D02*
D03*
X188976D02*
D03*
X291339Y278543D02*
D03*
X283465D02*
D03*
X275590D02*
D03*
X267717D02*
D03*
X130709Y216437D02*
D03*
X122835D02*
D03*
X114961D02*
D03*
X107087D02*
D03*
X134646Y216929D02*
D03*
X246457Y155118D02*
D03*
X309842Y201069D02*
D03*
Y191788D02*
D03*
X253937Y201069D02*
D03*
X263255D02*
D03*
X253937Y191788D02*
D03*
X263255D02*
D03*
X309842Y238189D02*
D03*
Y228909D02*
D03*
Y219629D02*
D03*
Y210349D02*
D03*
Y182508D02*
D03*
Y173228D02*
D03*
X263255Y238189D02*
D03*
X253937Y228909D02*
D03*
X263255D02*
D03*
X253937Y219629D02*
D03*
X263255D02*
D03*
X253937Y210349D02*
D03*
X263255D02*
D03*
X253937Y182508D02*
D03*
X263255D02*
D03*
X253937Y173228D02*
D03*
X263255D02*
D03*
X308268Y168504D02*
D03*
X300525Y201069D02*
D03*
Y191788D02*
D03*
X291207Y201069D02*
D03*
Y191788D02*
D03*
X281890Y201069D02*
D03*
Y191788D02*
D03*
X272572Y201069D02*
D03*
Y191788D02*
D03*
X300525Y238189D02*
D03*
Y228909D02*
D03*
Y219629D02*
D03*
Y210349D02*
D03*
Y182508D02*
D03*
Y173228D02*
D03*
X291207Y238189D02*
D03*
Y228909D02*
D03*
Y219629D02*
D03*
Y210349D02*
D03*
Y182508D02*
D03*
Y173228D02*
D03*
X281890Y238189D02*
D03*
Y228909D02*
D03*
Y219629D02*
D03*
Y210349D02*
D03*
Y182508D02*
D03*
Y173228D02*
D03*
X272572Y238189D02*
D03*
Y228909D02*
D03*
Y219629D02*
D03*
Y210349D02*
D03*
Y182508D02*
D03*
Y173228D02*
D03*
X262467Y84646D02*
D03*
Y93926D02*
D03*
Y103206D02*
D03*
Y112486D02*
D03*
Y140326D02*
D03*
Y149606D02*
D03*
X271785Y84646D02*
D03*
Y93926D02*
D03*
Y103206D02*
D03*
Y112486D02*
D03*
Y140326D02*
D03*
Y149606D02*
D03*
X281102Y84646D02*
D03*
Y93926D02*
D03*
Y103206D02*
D03*
Y112486D02*
D03*
Y140326D02*
D03*
Y149606D02*
D03*
X290420Y84646D02*
D03*
Y93926D02*
D03*
Y103206D02*
D03*
Y112486D02*
D03*
Y140326D02*
D03*
Y149606D02*
D03*
X299738Y84646D02*
D03*
Y93926D02*
D03*
Y103206D02*
D03*
Y112486D02*
D03*
Y140326D02*
D03*
Y149606D02*
D03*
X254724Y154331D02*
D03*
X262467Y121766D02*
D03*
Y131046D02*
D03*
X271785Y121766D02*
D03*
Y131046D02*
D03*
X281102Y121766D02*
D03*
Y131046D02*
D03*
X290420Y121766D02*
D03*
Y131046D02*
D03*
X299738Y121766D02*
D03*
Y131046D02*
D03*
X253150Y84646D02*
D03*
Y93926D02*
D03*
Y103206D02*
D03*
Y112486D02*
D03*
Y140326D02*
D03*
Y149606D02*
D03*
X309055Y84646D02*
D03*
Y93926D02*
D03*
Y103206D02*
D03*
Y112486D02*
D03*
Y140326D02*
D03*
Y149606D02*
D03*
X253150Y121766D02*
D03*
Y131046D02*
D03*
X309055Y121766D02*
D03*
Y131046D02*
D03*
X295276Y276575D02*
D03*
X263779D02*
D03*
X271654D02*
D03*
X279528D02*
D03*
X287402D02*
D03*
X277559Y256693D02*
D03*
X281496Y262992D02*
D03*
X309842Y259449D02*
D03*
X253937Y250787D02*
D03*
X185039Y128937D02*
D03*
X216535D02*
D03*
X208661D02*
D03*
X200787D02*
D03*
X192913D02*
D03*
X202756Y148819D02*
D03*
X198819Y142520D02*
D03*
X170472Y146063D02*
D03*
X226378Y154724D02*
D03*
X170472Y167323D02*
D03*
Y176603D02*
D03*
Y185883D02*
D03*
Y195163D02*
D03*
Y223003D02*
D03*
Y232283D02*
D03*
X179790Y167323D02*
D03*
Y176603D02*
D03*
Y185883D02*
D03*
Y195163D02*
D03*
Y223003D02*
D03*
Y232283D02*
D03*
X198425Y167323D02*
D03*
Y176603D02*
D03*
Y185883D02*
D03*
Y195163D02*
D03*
Y223003D02*
D03*
Y232283D02*
D03*
X207743Y167323D02*
D03*
Y176603D02*
D03*
Y185883D02*
D03*
Y195163D02*
D03*
Y223003D02*
D03*
Y232283D02*
D03*
X217060Y167323D02*
D03*
Y176603D02*
D03*
Y185883D02*
D03*
Y195163D02*
D03*
Y223003D02*
D03*
Y232283D02*
D03*
X226378Y176603D02*
D03*
Y185883D02*
D03*
Y195163D02*
D03*
Y223003D02*
D03*
Y232283D02*
D03*
X170472Y204443D02*
D03*
Y213723D02*
D03*
X179790Y204443D02*
D03*
Y213723D02*
D03*
X198425Y204443D02*
D03*
Y213723D02*
D03*
X207743Y204443D02*
D03*
Y213723D02*
D03*
X217060Y204443D02*
D03*
Y213723D02*
D03*
X226378Y204443D02*
D03*
Y213723D02*
D03*
X189108Y167323D02*
D03*
Y176603D02*
D03*
Y185883D02*
D03*
Y195163D02*
D03*
Y223003D02*
D03*
Y232283D02*
D03*
Y204443D02*
D03*
Y213723D02*
D03*
X172047Y237008D02*
D03*
X116142Y228642D02*
D03*
X120079Y234941D02*
D03*
X151181Y333071D02*
D03*
X111024Y216929D02*
D03*
X118898D02*
D03*
X126772D02*
D03*
X103150D02*
D03*
X199213Y283746D02*
D03*
X227165Y320866D02*
D03*
X171260Y255906D02*
D03*
X217848D02*
D03*
X208530D02*
D03*
X199213D02*
D03*
X189895D02*
D03*
X199213Y265186D02*
D03*
X208530D02*
D03*
X217848D02*
D03*
X227165D02*
D03*
Y274466D02*
D03*
X217848D02*
D03*
X208530D02*
D03*
X199213D02*
D03*
X227165Y283746D02*
D03*
X217848D02*
D03*
X208530D02*
D03*
X199213Y293026D02*
D03*
X208530D02*
D03*
X217848D02*
D03*
X227165D02*
D03*
Y302306D02*
D03*
X217848D02*
D03*
X208530D02*
D03*
X199213D02*
D03*
Y311586D02*
D03*
X208530D02*
D03*
X217848D02*
D03*
X227165D02*
D03*
X217848Y320866D02*
D03*
X208530D02*
D03*
X199213D02*
D03*
X189895Y265186D02*
D03*
Y274466D02*
D03*
Y283746D02*
D03*
Y293026D02*
D03*
Y302306D02*
D03*
Y311586D02*
D03*
Y320866D02*
D03*
X180577D02*
D03*
Y311586D02*
D03*
Y302306D02*
D03*
Y293026D02*
D03*
Y283746D02*
D03*
Y274466D02*
D03*
Y265186D02*
D03*
Y255906D02*
D03*
X171260Y265186D02*
D03*
Y274466D02*
D03*
Y283746D02*
D03*
Y293026D02*
D03*
Y302306D02*
D03*
Y311586D02*
D03*
X225590Y251181D02*
D03*
X115748Y287120D02*
D03*
X87795Y250000D02*
D03*
X143701Y314961D02*
D03*
X87795D02*
D03*
X97113D02*
D03*
X106430D02*
D03*
X115748D02*
D03*
X125066D02*
D03*
X115748Y305680D02*
D03*
X106430D02*
D03*
X97113D02*
D03*
X87795D02*
D03*
Y296400D02*
D03*
X97113D02*
D03*
X106430D02*
D03*
X115748D02*
D03*
X87795Y287120D02*
D03*
X97113D02*
D03*
X106430D02*
D03*
X115748Y277840D02*
D03*
X106430D02*
D03*
X97113D02*
D03*
X87795D02*
D03*
Y268560D02*
D03*
X97113D02*
D03*
X106430D02*
D03*
X115748D02*
D03*
Y259280D02*
D03*
X106430D02*
D03*
X97113D02*
D03*
X87795D02*
D03*
X97113Y250000D02*
D03*
X106430D02*
D03*
X115748D02*
D03*
X125066Y305680D02*
D03*
Y296400D02*
D03*
Y287120D02*
D03*
Y277840D02*
D03*
Y268560D02*
D03*
Y259280D02*
D03*
Y250000D02*
D03*
X134383D02*
D03*
Y259280D02*
D03*
Y268560D02*
D03*
Y277840D02*
D03*
Y287120D02*
D03*
Y296400D02*
D03*
Y305680D02*
D03*
Y314961D02*
D03*
X143701Y305680D02*
D03*
Y296400D02*
D03*
Y287120D02*
D03*
Y277840D02*
D03*
Y268560D02*
D03*
Y259280D02*
D03*
X89370Y319685D02*
D03*
X142913Y333858D02*
D03*
X88583Y403543D02*
D03*
Y394263D02*
D03*
Y384983D02*
D03*
Y375703D02*
D03*
Y366423D02*
D03*
Y357143D02*
D03*
Y347863D02*
D03*
X97900Y338583D02*
D03*
Y347863D02*
D03*
Y357143D02*
D03*
Y366423D02*
D03*
Y375703D02*
D03*
Y384983D02*
D03*
Y394263D02*
D03*
Y403543D02*
D03*
X107218D02*
D03*
Y394263D02*
D03*
Y384983D02*
D03*
Y375703D02*
D03*
Y366423D02*
D03*
Y357143D02*
D03*
Y347863D02*
D03*
X116535Y403543D02*
D03*
X125853D02*
D03*
X135171D02*
D03*
X144488Y394263D02*
D03*
X135171D02*
D03*
X125853D02*
D03*
X116535D02*
D03*
Y384983D02*
D03*
X125853D02*
D03*
X135171D02*
D03*
X144488D02*
D03*
Y375703D02*
D03*
X135171D02*
D03*
X125853D02*
D03*
X116535D02*
D03*
X125853Y366423D02*
D03*
X135171D02*
D03*
X144488D02*
D03*
X116535Y357143D02*
D03*
X125853D02*
D03*
X135171D02*
D03*
X144488D02*
D03*
Y347863D02*
D03*
X135171D02*
D03*
X125853D02*
D03*
X116535D02*
D03*
X107218Y338583D02*
D03*
X116535D02*
D03*
X125853D02*
D03*
X135171D02*
D03*
X144488D02*
D03*
X88583D02*
D03*
X144488Y403543D02*
D03*
X116535Y366423D02*
D03*
D53*
X124016Y195276D02*
D03*
Y200787D02*
D03*
Y198031D02*
D03*
X196791Y379252D02*
D03*
Y374528D02*
D03*
Y369803D02*
D03*
X192067D02*
D03*
X187343D02*
D03*
Y374528D02*
D03*
Y379252D02*
D03*
X192067D02*
D03*
Y374528D02*
D03*
D54*
X110433Y199016D02*
D03*
M02*
