M48
;Layer_Color=9474304
;FILE_FORMAT=2:5
INCH,LZ
;TYPE=PLATED
T1F00S00C0.01181
T2F00S00C0.01200
T3F00S00C0.04200
T4F00S00C0.12598
%
T01
X0169291Y0079528
Y0082677
X0175984
X0179134
Y0079528
X0175984
X0185039Y0081693
X0188976Y0079724
X0192913Y0081693
X019685Y0079724
X0200787Y0081693
X0204724Y0079724
X0208661Y0081693
X0212598Y0079724
X0216535Y0081693
X0226772Y007874
X0229921
X025315Y0074522
Y0065242
Y0055962
Y0046682
Y0037402
X0262467
Y0046682
Y0055962
Y0065242
Y0074522
Y0083802
Y0093082
Y0102362
X0271785
Y0093082
Y0083802
Y0074522
Y0065242
Y0055962
Y0046682
Y0037402
X0281102
Y0046682
Y0055962
Y0065242
Y0074522
Y0083802
Y0093082
Y0102362
X029042
Y0093082
Y0083802
Y0074522
Y0065242
Y0055962
Y0046682
Y0037402
X0299738
Y0046682
Y0055962
Y0065242
Y0074522
Y0083802
Y0093082
Y0102362
X0309055
Y0093082
Y0083802
Y0074522
Y0065242
Y0055962
Y0046682
Y0037402
X0308268Y012126
X0309842Y0125984
Y0135264
Y0144544
X0300525
Y0135264
Y0125984
X0291207
Y0135264
Y0144544
X028189
Y0135264
Y0125984
X0272572
Y0135264
Y0144544
X0263255
Y0135264
Y0125984
X0253937
Y0135264
Y0144544
X0226378Y0138639
Y0129359
X021706
Y0120079
X0215846Y0112106
X0216795Y0108306
X0212992Y0106693
X0226378Y010748
X0246457Y0107874
X0254724Y0107087
X025315Y0102362
Y0093082
Y0083802
X0198819Y0095276
X0202756Y0101575
X0198425Y0120079
Y0129359
Y0138639
X0207743
Y0129359
Y0120079
X0189108
Y0129359
Y0138639
X017979
Y0129359
Y0120079
X0170472
Y0129359
Y0138639
X0170472Y0098819
X021706Y0138639
X0150197Y0137205
X0147047
Y0140354
X0150197
Y0128543
X0147047
Y0125394
X0150197
X0126575Y0125394
X0123425
Y0128543
X0126575
X0119685Y0136614
X0111417Y0137402
X0112598Y0133071
X0108858Y0128543
X0105709
Y0125394
X0108858
X0091732Y0124409
X0085236Y0125394
X0082087
Y0128543
X0085236
Y0137205
X0082087
Y0140354
X0085236
X009252Y0131496
X0095669Y0133071
X0115354Y0144882
X0132677Y014685
X0166142Y0082677
Y0079528
X0150197Y0149213
X0147047
Y0152362
X0150197
X0147244Y0164862
X0144095
X0140157Y0164075
Y0160531
X0134646Y0169685
X0130709Y0169193
X0126772Y0169685
X0122835Y0169193
X0118898Y0169685
X0114961Y0169193
X0111024Y0169685
X0107087Y0169193
X010315Y0169685
X0098032Y017126
X0094882Y0167717
X0091732Y0167323
X0082284Y0173622
X0082087Y0180315
X0085236
Y0183465
X0082087
Y0190354
X0085236
Y0193504
X0082087
X0087795Y0202756
Y0212036
Y0221316
Y0230596
Y0239876
Y0249156
Y0258436
Y0267717
X008937Y0272441
X0097113Y0267717
Y0258436
Y0249156
Y0239876
Y0230596
Y0221316
Y0212036
Y0202756
X010643
Y0212036
Y0221316
Y0230596
Y0239876
Y0249156
Y0258436
Y0267717
X0115748
Y0258436
Y0249156
Y0239876
Y0230596
Y0221316
Y0212036
Y0202756
X0125066
Y0212036
Y0221316
Y0230596
Y0239876
Y0249156
Y0258436
Y0267717
X0134383
Y0258436
Y0249156
Y0239876
Y0230596
Y0221316
Y0212036
Y0202756
X0135039Y0194488
X0131496Y0195374
X0128543Y0191831
X0120079Y0187697
X0116142Y0181398
X0123622Y0163779
Y016063
X0120912Y0157283
X0124016Y0153543
Y0150787
Y0148031
X0115748Y0151969
X0109843Y015748
X0101181Y0159055
X0104724Y015
X0085236Y015315
X0082087
Y0156299
X0085236
X0095276Y0186614
X0143701Y0193602
X0143701Y0212036
Y0221316
Y0230596
Y0239876
Y0249156
Y0258436
Y0267717
X0142913Y0286614
X0144488Y0291339
Y0300619
X0135171
Y0291339
X0125853
Y0300619
X0116535
Y0291339
X0107218
Y0300619
X00979
Y0291339
X0088583
Y0300619
X0164567Y0301575
X0151181Y0285827
X0168504Y0291339
X0171653
X0167717Y0301575
X0177953Y0302756
X0192126Y0302756
X0194882
X0197638
X0200787
X0200394Y0285827
X0197244
Y0282677
X0200394
X0199213Y0273622
Y0264342
Y0255062
Y0245782
Y0236502
Y0227222
Y0217941
Y0208661
X020853
Y0217941
Y0227222
Y0236502
Y0245782
Y0255062
Y0264342
Y0273622
X0217848
Y0264342
Y0255062
Y0245782
Y0236502
Y0227222
Y0217941
Y0208661
X0216535Y0201969
X0213484Y0201575
X022559Y0203937
X0226378Y0209449
X0232283Y0211024
X0227165Y0217941
Y0227222
Y0236502
Y0245782
Y0255062
Y0264342
Y0273622
X022126Y0296063
Y0299213
X0228346Y0301575
X0189895Y0273622
Y0264342
Y0255062
Y0245782
Y0236502
Y0227222
Y0217941
Y0208661
X0180577
X0178543Y0211122
X0180577Y0217941
X0178937Y0220669
X0180577Y0227222
Y0236502
Y0245782
Y0255062
Y0264342
Y0273622
X017254Y0273578
X017126Y0264342
Y0255062
Y0245782
Y0236502
Y0227222
Y0217941
Y0208661
X0177264Y0201575
X0179921Y0201969
X017979Y0185039
Y0175759
Y0166479
Y0157199
Y0147919
X0170472
Y0157199
Y0166479
Y0175759
Y0185039
X0172047Y0189764
X0189108Y0185039
Y0175759
Y0166479
Y0157199
Y0147919
X0198425
Y0157199
Y0166479
X0200492Y0173327
X0198425Y0175759
X0200492Y0182579
X0198425Y0185039
X0207743
Y0175759
Y0166479
Y0157199
Y0147919
X021706
Y0157199
Y0166479
Y0175759
Y0185039
X0226378
Y0175759
Y0166479
Y0157199
Y0147919
X0253937Y0153824
Y0163105
Y0172385
Y0181665
X0263255
Y0190945
X0266339Y0191732
X0272572Y0190945
Y0181665
Y0172385
Y0163105
Y0153824
X0263255
Y0163105
Y0172385
X028189
Y0181665
Y0190945
X0291207
Y0181665
Y0172385
Y0163105
Y0153824
X0300525
Y0163105
Y0172385
Y0181665
Y0190945
X0309842
Y0181665
Y0172385
Y0163105
Y0153824
X028189
Y0163105
X0268209Y0199705
X0253937Y0203543
X0256299Y0190945
X0277559Y0209449
X0281496Y0215748
X0279528Y0229331
X0283465Y0231299
X0287402Y0229331
X0291339Y0231299
X0295276Y0229331
X0301181Y0227953
X0304331
Y0231102
X0301181
X0311024
X0314173
Y0227953
X0311024
X0309842Y0212205
X027559Y0231299
X0271654Y0229331
X0267717Y0231299
X0263779Y0229331
X0253543Y0232283
X0250394
X0228228Y0306693
X0228228Y0311693
X0223228
Y0306693
X0218228
X0218228Y0311693
X0218898Y0320079
X0221595Y0318622
X0214961Y0319291
X0211811
X0208661
X0210236Y0315354
X0219291Y032874
X0224409Y0334252
X0220472Y0338976
X0201181Y0338583
X0199606Y0351969
X0194882
X0204331
X0184193Y0352087
X0174409Y0346457
Y0343701
X017145Y0340276
X0175591Y0332677
X0167717Y0329134
Y0325984
Y0316929
Y0313779
Y0304724
X0180709Y0304724
X0179527Y0317717
X0233405Y0318819
X0233405Y0330433
X0164567Y0329134
Y0325984
Y0316929
Y0313779
Y0304724
X0144488Y0309899
Y0319179
Y0328459
Y0337739
Y0347019
Y0356299
X0135171
Y0347019
Y0337739
Y0328459
Y0319179
Y0309899
X0125853
Y0319179
Y0328459
Y0337739
Y0347019
Y0356299
X0116535
Y0347019
Y0337739
Y0328459
Y0319179
Y0309899
X0107218
Y0319179
Y0328459
Y0337739
Y0347019
Y0356299
X00979
Y0347019
Y0337739
Y0328459
Y0319179
Y0309899
X0088583
Y0319179
Y0328459
Y0337739
Y0347019
Y0356299
T02
X0187343Y0322559
X0192067
X0196791
Y0327283
Y0332008
X0192067
X0187343
Y0327283
X0192067
T03
X0213228Y0309193
X0233228Y0313193
Y0305193
T04
X0374016Y0019685
X0019685
X0374016Y0374016
X0019685
M30
