G04*
G04 #@! TF.GenerationSoftware,Altium Limited,Altium Designer,20.1.11 (218)*
G04*
G04 Layer_Color=32896*
%FSLAX25Y25*%
%MOIN*%
G70*
G04*
G04 #@! TF.SameCoordinates,BC695F09-BB28-4D9F-8763-E19565E056B6*
G04*
G04*
G04 #@! TF.FilePolarity,Positive*
G04*
G01*
G75*
%ADD11C,0.01968*%
D11*
X426399Y80303D02*
X423119Y83583D01*
X416559D01*
X413279Y80303D01*
Y77023D01*
X416559Y73743D01*
X423119D01*
X426399Y70464D01*
Y67184D01*
X423119Y63904D01*
X416559D01*
X413279Y67184D01*
X432958Y63904D02*
X439518D01*
X436238D01*
Y77023D01*
X432958D01*
X449357Y63904D02*
X455917D01*
X452637D01*
Y83583D01*
X449357D01*
X465756Y63904D02*
Y83583D01*
Y70464D02*
X475595Y77023D01*
X465756Y70464D02*
X475595Y63904D01*
X485435D02*
X495274D01*
X498554Y67184D01*
X495274Y70464D01*
X488715D01*
X485435Y73743D01*
X488715Y77023D01*
X498554D01*
X518232D02*
X508393D01*
X505113Y73743D01*
Y67184D01*
X508393Y63904D01*
X518232D01*
X524792Y77023D02*
Y63904D01*
Y70464D01*
X528072Y73743D01*
X531352Y77023D01*
X534631D01*
X554310Y63904D02*
X547751D01*
X544471Y67184D01*
Y73743D01*
X547751Y77023D01*
X554310D01*
X557590Y73743D01*
Y70464D01*
X544471D01*
X573989Y63904D02*
X567429D01*
X564149Y67184D01*
Y73743D01*
X567429Y77023D01*
X573989D01*
X577269Y73743D01*
Y70464D01*
X564149D01*
X583828Y63904D02*
Y77023D01*
X593667D01*
X596947Y73743D01*
Y63904D01*
X623185Y83583D02*
Y63904D01*
X633025D01*
X636305Y67184D01*
Y70464D01*
X633025Y73743D01*
X623185D01*
X633025D01*
X636305Y77023D01*
Y80303D01*
X633025Y83583D01*
X623185D01*
X646144Y63904D02*
X652704D01*
X655983Y67184D01*
Y73743D01*
X652704Y77023D01*
X646144D01*
X642864Y73743D01*
Y67184D01*
X646144Y63904D01*
X665823Y80303D02*
Y77023D01*
X662543D01*
X669102D01*
X665823D01*
Y67184D01*
X669102Y63904D01*
X682222Y80303D02*
Y77023D01*
X678942D01*
X685501D01*
X682222D01*
Y67184D01*
X685501Y63904D01*
X698620D02*
X705180D01*
X708460Y67184D01*
Y73743D01*
X705180Y77023D01*
X698620D01*
X695341Y73743D01*
Y67184D01*
X698620Y63904D01*
X715019D02*
Y77023D01*
X718299D01*
X721579Y73743D01*
Y63904D01*
Y73743D01*
X724859Y77023D01*
X728138Y73743D01*
Y63904D01*
M02*
